<svg width="56" height="36" viewBox="0 0 56 36" fill="none" xmlns="http://www.w3.org/2000/svg">
<path d="M51.5356 14.7919C50.0018 15.1393 49.1419 16.2288 48.8995 16.5611C50.4967 11.6472 49.8045 9.23361 48.7523 7.93869C48.0181 7.03245 46.7072 6.18158 45.9066 4.20396C45.5539 3.31977 45.3615 2.38152 45.3381 1.43186C41.479 1.43186 39.6037 4.6168 39.6037 4.6168C39.3992 2.5697 36.3244 0.689752 36.3244 0.689752C33.4194 1.96151 32.4613 6.23495 32.4613 6.23495C32.0676 4.58954 31.2687 3.06484 30.135 1.79537C29.5109 1.10273 28.7924 0.498534 28 0C27.2034 0.49786 26.4808 1.10207 25.8527 1.79537C24.7189 3.06485 23.9196 4.58952 23.5254 6.23495C23.5254 6.23495 22.5806 1.96151 19.6653 0.684717C19.6653 0.684717 16.5855 2.5697 16.3861 4.6168C16.3861 4.6168 14.5108 1.43186 10.6527 1.43186C10.6289 2.38157 10.4361 3.31981 10.0832 4.20396C9.28766 6.18158 7.97166 7.03547 7.2426 7.93869C6.19143 9.23361 5.50429 11.6472 7.09637 16.5611C6.85403 16.2288 5.99511 15.1393 4.45926 14.7919C1.96633 14.229 0.111456 16.3134 0 16.256C5.24968 18.9959 5.78753 20.7711 6.68532 24.0769C7.36939 27.2487 9.35515 29.322 10.437 30.2383C13.1426 32.5361 17.6315 35.849 28 36C38.3634 35.849 42.8533 32.5361 45.564 30.2383C46.6459 29.322 48.6316 27.2487 49.3157 24.0769C50.2125 20.7711 50.7473 18.9959 56 16.256C55.8845 16.3134 54.0286 14.229 51.5356 14.7919ZM45.5763 18.9787C44.9423 20.9866 45.4792 21.5686 44.9536 23.1072C44.52 24.3789 44.0855 24.1836 42.7388 26.2106C41.4095 28.2063 41.6651 28.6484 40.4759 30.5303C40.2438 30.8968 40.0321 31.2352 39.8327 31.5373C40.0659 29.1538 40.3634 27.9002 40.6508 27.2467C40.7197 27.0826 40.812 26.9291 40.9248 26.7906C41.2858 26.2317 41.5843 25.9236 41.8451 25.4372C41.9034 25.3295 41.9586 25.2147 42.0148 25.0858C42.0363 25.0335 42.0578 24.9801 42.0792 24.9247C42.0905 24.8965 42.1017 24.8663 42.112 24.8361C42.6416 23.3861 42.1549 22.8494 42.5649 20.8194C42.8451 19.4339 43.2214 18.9415 42.9044 18.585C42.4954 18.1208 41.3134 18.3424 40.525 18.8086C39.3808 19.4852 38.9615 20.7369 38.5403 22.0459C38.4891 22.208 38.4441 22.357 38.4063 22.497C38.3981 22.5252 38.3899 22.5544 38.3838 22.5826C38.3255 22.8011 38.2816 22.9914 38.2519 23.1606C38.2448 23.2008 38.2386 23.2381 38.2325 23.2753C38.2325 23.2955 38.2253 23.3126 38.2233 23.3317C38.211 23.4123 38.1987 23.4888 38.1916 23.5603L38.1854 23.6157C38.1854 23.6469 38.1793 23.6781 38.1762 23.7073C38.1732 23.7365 38.1762 23.7466 38.1701 23.7637C38.1701 23.7979 38.1701 23.8282 38.1629 23.8594C38.1558 23.8906 38.1629 23.8906 38.1629 23.9067C38.1497 24.0738 38.1425 24.2168 38.122 24.3558C38.122 24.3689 38.122 24.383 38.1159 24.3981C38.1098 24.4132 38.1159 24.4253 38.1088 24.4404C38.1016 24.4555 38.0995 24.4827 38.0944 24.5038C38.0893 24.525 38.0842 24.5461 38.0791 24.5672L38.0638 24.6206V24.6317C38.0634 24.636 38.0634 24.6404 38.0638 24.6448C38.0159 24.79 37.9518 24.9294 37.8725 25.0606C37.3776 25.9014 34.1014 26.9738 32.9419 27.4612C31.0124 28.2748 29.363 29.8839 28.5634 31.646C28.459 31.8777 28.3682 32.115 28.2914 32.3569C28.1462 32.8207 28.0485 33.2977 28 33.7807C27.951 33.2983 27.8531 32.822 27.7076 32.3589C27.6308 32.117 27.54 31.8797 27.4356 31.648C26.638 29.8859 24.9866 28.2768 23.0571 27.4632C21.8975 26.9718 18.6213 25.9034 18.1264 25.0627C18.0482 24.9319 17.9848 24.7932 17.9373 24.6488C17.9368 24.6445 17.9368 24.6401 17.9373 24.6357C17.9366 24.6324 17.9366 24.629 17.9373 24.6256L17.9311 24.6065C17.925 24.5834 17.9189 24.5582 17.9117 24.533C17.9015 24.4897 17.8933 24.4474 17.8851 24.4031C17.8851 24.387 17.8851 24.3739 17.878 24.3578C17.8575 24.2188 17.8503 24.0759 17.837 23.9087C17.837 23.8765 17.8319 23.8422 17.8299 23.808C17.8299 23.7949 17.8299 23.7798 17.8299 23.7657C17.8299 23.7516 17.8299 23.7285 17.8248 23.7093C17.8074 23.5382 17.7818 23.3408 17.7368 23.1052C17.7256 23.0488 17.7133 22.9894 17.7 22.93C17.6775 22.8222 17.6489 22.7094 17.6162 22.5866L17.5937 22.501C17.5937 22.494 17.5886 22.4849 17.5855 22.4758C17.5794 22.4497 17.5712 22.4225 17.563 22.3963C17.5334 22.2865 17.4976 22.1717 17.4608 22.0499C17.0405 20.7409 16.6202 19.4893 15.477 18.8126C14.6887 18.3464 13.5087 18.1249 13.0976 18.5891C12.7806 18.9455 13.1569 19.4379 13.4361 20.8235C13.8451 22.8534 13.3604 23.3901 13.8901 24.8401C13.9613 25.0391 14.0475 25.2326 14.1478 25.4191C14.4126 25.9226 14.7132 26.2247 15.0813 26.7946C15.1934 26.9334 15.2852 27.087 15.3543 27.2507C16.4188 29.1639 16.4566 31.0771 16.5313 32.079C16.4168 31.9108 16.2992 31.7326 16.1765 31.5433C15.9781 31.2352 15.7674 30.9009 15.5333 30.5364C14.3431 28.6544 14.5966 28.2124 13.2704 26.2166C11.9237 24.1896 11.4892 24.385 11.0566 23.1132C10.5321 21.5726 11.0669 20.9906 10.4329 18.9848C10.2359 18.4284 10.1322 17.8441 10.1261 17.2549C10.1287 16.7504 10.2048 16.2488 10.3521 15.7656C10.7366 14.3831 10.3951 13.79 10.5392 11.7832C10.7437 8.96375 11.483 9.21146 11.5618 6.6478C11.5935 5.54017 11.481 4.71045 12.0148 4.35903C12.4851 4.05695 13.2909 4.22712 13.7715 4.63996C14.1191 4.936 14.5128 5.54017 14.2827 8.21157C14.1253 10.0371 13.8635 10.6564 13.7173 11.8365C13.5792 12.9381 13.5393 14.5422 14.0557 16.5812C14.9549 14.8533 15.8533 13.1251 16.7511 11.3965C17.3271 9.88812 17.9025 8.37771 18.4772 6.8653C18.6602 5.67912 18.9649 4.33386 19.4629 4.2966C19.5345 4.2966 19.7696 4.2966 20.1214 4.91184C20.9783 6.42224 20.6214 8.30219 20.2911 9.73003C19.8193 11.7555 19.2005 13.7449 18.4393 15.683C18.4138 15.7284 18.3892 15.7727 18.3647 15.819L18.786 15.5773C19.7246 15.0366 20.3924 14.6519 21.1613 14.1213C22.6777 13.0761 23.9099 11.9362 24.6195 11.2747C26.1318 9.86496 26.6779 9.14299 27.1135 9.32121C27.5071 9.48132 27.5572 10.2818 27.5102 10.7722C27.4079 11.8567 26.7351 12.2534 25.0173 14.1767C23.5643 15.8019 23.3812 16.256 22.2391 17.1904C21.7638 17.5779 21.2634 17.9345 20.741 18.2578C21.9924 18.083 23.1954 17.6629 24.279 17.0223C26.004 15.9891 27.0736 14.5482 27.5419 14.8251C27.6697 14.8996 27.774 15.1171 27.681 15.7394C27.4015 16.2938 27.0381 16.803 26.6032 17.2498C26.0858 17.7765 25.8281 17.8439 25.186 18.3655C23.9508 19.3725 24.0009 19.8759 23.3056 20.2928L23.3424 20.325C23.6809 20.6275 23.9752 20.9749 24.2166 21.3571C24.4569 21.7418 24.5428 22.0167 25.2514 24.1856C25.2514 24.1957 25.3159 24.382 25.3189 24.3941C25.4476 24.9671 25.6797 25.5128 26.004 26.0051C26.413 26.6274 26.8844 26.995 27.319 27.9254C27.3885 28.0804 27.455 28.2395 27.5174 28.4007C27.7162 28.9071 27.8775 29.427 28 29.9564C28.1206 29.4273 28.2795 28.9074 28.4755 28.4007C28.5389 28.2395 28.6053 28.0804 28.6738 27.9254C29.1094 26.995 29.5757 26.6274 29.9898 26.0051C30.3138 25.5127 30.5455 24.967 30.6739 24.3941C30.6739 24.382 30.7383 24.1927 30.7424 24.1856C31.45 22.0167 31.5369 21.7418 31.7772 21.3571C32.0231 20.9733 32.3225 20.6256 32.6668 20.324C31.9122 19.8981 31.9991 19.3986 30.7302 18.3645C30.0911 17.8429 29.8314 17.7755 29.3139 17.2488C28.8787 16.8023 28.5153 16.293 28.2362 15.7384C28.1421 15.1161 28.2474 14.8986 28.3753 14.8241C28.8426 14.5472 29.9091 15.9881 31.6371 17.0213C32.7214 17.662 33.9252 18.0821 35.1772 18.2568C34.6542 17.9338 34.1535 17.5772 33.6781 17.1894C32.5329 16.255 32.3488 15.8008 30.8999 14.1757C29.182 12.2524 28.5123 11.8597 28.407 10.7712C28.3589 10.2808 28.407 9.48031 28.8037 9.32021C29.2393 9.14198 29.7853 9.86496 31.2977 11.2737C32.0073 11.9352 33.2405 13.0751 34.7548 14.1203C35.5248 14.6509 36.1925 15.0356 37.1312 15.5763C37.3286 15.6891 37.5126 15.7958 37.6854 15.8925L37.5699 15.682C36.8087 13.7439 36.1899 11.7544 35.7181 9.72902C35.3868 8.30119 35.0299 6.41922 35.8888 4.91083C36.2344 4.30063 36.4747 4.29056 36.5473 4.29559C37.0433 4.33285 37.348 5.67812 37.532 6.86429L39.257 11.3955C40.1555 13.1241 41.0543 14.8523 41.9535 16.5802C42.4698 14.5412 42.429 12.9371 42.294 11.8355C42.1457 10.6534 41.885 10.0341 41.7254 8.21056C41.4954 5.53916 41.8901 4.935 42.2367 4.63896C42.7173 4.22611 43.5231 4.05091 43.9934 4.35802C44.5282 4.70944 44.4137 5.54319 44.4464 6.64679C44.5241 9.20944 45.2644 8.96274 45.4689 11.7822C45.6131 13.789 45.2706 14.3821 45.6561 15.7646C45.8034 16.2478 45.8795 16.7494 45.882 17.2539C45.8762 17.8414 45.773 18.424 45.5763 18.9787Z" fill="url(#paint0_linear_1648_8059)"/>
<defs>
<linearGradient id="paint0_linear_1648_8059" x1="27.5692" y1="0" x2="27.5692" y2="-29.5714" gradientUnits="userSpaceOnUse">
<stop stop-color="#E6434F"/>
<stop offset="0.166667" stop-color="#FF9500"/>
<stop offset="0.338542" stop-color="#FFE61E"/>
<stop offset="0.5" stop-color="#59CA56"/>
<stop offset="0.671875" stop-color="#009FF5"/>
<stop offset="0.838542" stop-color="#1570F0"/>
<stop offset="1" stop-color="#B240EB"/>
</linearGradient>
</defs>
</svg>
