<svg width="32" height="32" viewBox="0 0 32 32" fill="none" xmlns="http://www.w3.org/2000/svg">
<circle cx="16" cy="16" r="16" fill="#EAEFF3"/>
<path d="M16 28C22.6274 28 28 22.6274 28 16C28 9.37258 22.6274 4 16 4C9.37258 4 4 9.37258 4 16C4 22.6274 9.37258 28 16 28Z" stroke="#577084" stroke-width="1.5" stroke-linecap="round" stroke-linejoin="round"/>
<path d="M22.4507 18.0087C21.5945 20.7589 19.0303 22.7551 15.9981 22.7551C12.9659 22.7551 10.4016 20.7589 9.5455 18.0087H22.4486H22.4507Z" stroke="#577084" stroke-width="1.5" stroke-linecap="round" stroke-linejoin="round"/>
<path d="M9.29825 13.8057C9.5557 13.3603 10.0379 13.062 10.5875 13.062C11.1024 13.062 11.556 13.3235 11.8237 13.7179" stroke="#577084" stroke-width="1.5" stroke-linecap="round" stroke-linejoin="round"/>
<path d="M22.7102 13.8057C22.4527 13.3603 21.9705 13.062 21.4209 13.062C20.906 13.062 20.4524 13.3235 20.1847 13.7179" stroke="#577084" stroke-width="1.5" stroke-linecap="round" stroke-linejoin="round"/>
</svg>
