<svg width="32" height="32" viewBox="0 0 32 32" fill="none" xmlns="http://www.w3.org/2000/svg">
<circle cx="16" cy="16" r="16" fill="#EAEFF3"/>
<path d="M9 13.5C9 12.6705 9.67052 12 10.5 12C11.3295 12 12 12.6705 12 13.5C12 14.3295 11.3295 15 10.5 15C9.67052 15 9 14.3295 9 13.5Z" fill="#577084"/>
<path d="M19.817 13.5C19.817 12.6705 20.4875 12 21.317 12C22.1465 12 22.817 12.6705 22.817 13.5C22.817 14.3295 22.1465 15 21.317 15C20.4875 15 19.817 14.3295 19.817 13.5Z" fill="#577084"/>
<path d="M16 28C22.6274 28 28 22.6274 28 16C28 9.37259 22.6274 4 16 4C9.37258 4 4 9.37259 4 16C4 22.6274 9.37258 28 16 28Z" stroke="#577084" stroke-width="1.5" stroke-linecap="round" stroke-linejoin="round"/>
<path d="M9.80487 19.2773H22.1951" stroke="#577084" stroke-width="1.5" stroke-linecap="round" stroke-linejoin="round"/>
</svg>
