<svg width="32" height="32" viewBox="0 0 32 32" fill="none" xmlns="http://www.w3.org/2000/svg">
<circle cx="16" cy="16" r="16" fill="#EAEFF3"/>
<path d="M16 28C22.6274 28 28 22.6274 28 16C28 9.37258 22.6274 4 16 4C9.37258 4 4 9.37258 4 16C4 22.6274 9.37258 28 16 28Z" stroke="#577084" stroke-width="1.5" stroke-linecap="round" stroke-linejoin="round"/>
<path d="M11.1293 19.0008L9.53151 16.0013L7.93369 19.0008C7.6742 19.479 7.54547 19.7364 7.54547 20.1777C7.54547 21.275 8.43428 22.1638 9.53151 22.1638C10.6287 22.1638 11.5175 21.275 11.5175 20.1777C11.5175 19.7364 11.4154 19.5505 11.1293 19.0008Z" stroke="#577084" stroke-width="1.5" stroke-linecap="round" stroke-linejoin="round"/>
<path d="M12.6127 18.0078C13.5955 17.3805 14.7642 17.0148 16.0168 17.0148C17.4246 17.0148 18.7261 17.4745 19.7763 18.2509" stroke="#577084" stroke-width="1.5" stroke-linecap="round" stroke-linejoin="round"/>
<path d="M9.29199 13.1108C9.54944 13.5563 10.0316 13.8546 10.5813 13.8546C11.0962 13.8546 11.5498 13.593 11.8174 13.1987" stroke="#577084" stroke-width="1.5" stroke-linecap="round" stroke-linejoin="round"/>
<path d="M22.7039 13.1108C22.4465 13.5563 21.9643 13.8546 21.4146 13.8546C20.8997 13.8546 20.4461 13.593 20.1785 13.1987" stroke="#577084" stroke-width="1.5" stroke-linecap="round" stroke-linejoin="round"/>
</svg>
