<svg width="32" height="32" viewBox="0 0 32 32" fill="none" xmlns="http://www.w3.org/2000/svg">
<circle cx="16" cy="16" r="16" fill="#EAEFF3"/>
<path d="M16 28C22.6274 28 28 22.6274 28 16C28 9.37258 22.6274 4 16 4C9.37258 4 4 9.37258 4 16C4 22.6274 9.37258 28 16 28Z" stroke="#577084" stroke-width="1.5" stroke-linecap="round" stroke-linejoin="round"/>
<path d="M9 13.5C9 12.6734 9.67052 12 10.5 12C11.3295 12 12 12.6705 12 13.5C12 14.3295 11.3295 15 10.5 15C9.67052 15 9 14.3295 9 13.5Z" fill="#577084"/>
<path d="M19.8149 13.5C19.8149 12.6734 20.4855 12 21.3149 12C22.1444 12 22.8149 12.6705 22.8149 13.5C22.8149 14.3295 22.1444 15 21.3149 15C20.4855 15 19.8149 14.3295 19.8149 13.5Z" fill="#577084"/>
<path d="M22.4542 18.0098C21.598 20.76 19.0338 22.7562 16.0016 22.7562C12.9694 22.7562 10.4051 20.76 9.54901 18.0098" stroke="#577084" stroke-width="1.5" stroke-linecap="round" stroke-linejoin="round"/>
<path d="M10.0619 17.7135L8.83182 18.304" stroke="#577084" stroke-width="1.5" stroke-linecap="round" stroke-linejoin="round"/>
<path d="M21.9413 17.7135L23.1713 18.304" stroke="#577084" stroke-width="1.5" stroke-linecap="round" stroke-linejoin="round"/>
</svg>
