<svg width="32" height="32" viewBox="0 0 32 32" fill="none" xmlns="http://www.w3.org/2000/svg">
<circle cx="16" cy="16" r="16" fill="#EAEFF3"/>
<path d="M16 28C22.6274 28 28 22.6274 28 16C28 9.37258 22.6274 4 16 4C9.37258 4 4 9.37258 4 16C4 22.6274 9.37258 28 16 28Z" stroke="#577084" stroke-width="1.5" stroke-linecap="round" stroke-linejoin="round"/>
<path d="M9 13.5C9 12.6734 9.67052 12 10.5 12C11.3295 12 12 12.6705 12 13.5C12 14.3295 11.3295 15 10.5 15C9.67052 15 9 14.3295 9 13.5Z" fill="#577084"/>
<path d="M19.817 13.5C19.817 12.6734 20.4875 12 21.317 12C22.1464 12 22.817 12.6705 22.817 13.5C22.817 14.3295 22.1464 15 21.317 15C20.4875 15 19.817 14.3295 19.817 13.5Z" fill="#577084"/>
<path d="M10.1872 20.9099C11.1598 18.6644 13.3971 17.0931 16.0002 17.0931C18.6033 17.0931 20.8386 18.6624 21.8112 20.9079" stroke="#577084" stroke-width="1.5" stroke-linecap="round" stroke-linejoin="round"/>
</svg>
