<svg width="36" height="36" viewBox="0 0 36 36" fill="none" xmlns="http://www.w3.org/2000/svg">
<path fill-rule="evenodd" clip-rule="evenodd" d="M25.7695 6.615C25.7695 4.62 27.3895 3 29.3845 3C31.3795 3 32.9995 4.62 32.9995 6.615C32.9995 8.61 31.3795 10.23 29.3845 10.23C27.3895 10.23 25.7695 8.61 25.7695 6.615ZM19.9949 22.1386L24.3299 16.5451L24.2699 16.5751C24.5099 16.2451 24.5549 15.8251 24.3899 15.4501C24.2264 15.0751 23.8649 14.8201 23.4764 14.7901C23.0699 14.7451 22.6664 14.9251 22.4249 15.2551L18.7964 19.9501L14.6399 16.6801C14.3849 16.4851 14.0849 16.4086 13.7849 16.4401C13.4864 16.4851 13.2164 16.6486 13.0349 16.8886L8.59642 22.6651L8.50492 22.8001C8.24992 23.2786 8.36992 23.8936 8.81992 24.2251C9.02992 24.3601 9.25492 24.4501 9.50992 24.4501C9.85642 24.4651 10.1849 24.2836 10.3949 24.0001L14.1599 19.1536L18.4349 22.3651L18.5699 22.4536C19.0499 22.7086 19.6499 22.5901 19.9949 22.1386ZM23.175 5.67045C23.115 6.04545 23.085 6.42045 23.085 6.79545C23.085 10.1705 25.815 12.8989 29.175 12.8989C29.55 12.8989 29.91 12.8555 30.285 12.7955V24.899C30.285 29.9855 27.285 33.0005 22.185 33.0005H11.1015C6 33.0005 3 29.9855 3 24.899V13.8005C3 8.70045 6 5.67045 11.1015 5.67045H23.175Z" fill="url(#paint0_linear_556_3615)" fill-opacity="0.9"/>
<defs>
<linearGradient id="paint0_linear_556_3615" x1="3" y1="33.0004" x2="38.9613" y2="21.2584" gradientUnits="userSpaceOnUse">
<stop stop-color="#00476E"/>
<stop offset="1" stop-color="#398137"/>
</linearGradient>
</defs>
</svg>
