<svg width="20" height="20" viewBox="0 0 20 20" fill="none" xmlns="http://www.w3.org/2000/svg">
<path fill-rule="evenodd" clip-rule="evenodd" d="M2.58333 10C2.58333 9.58579 2.91912 9.25 3.33333 9.25H16.6667C17.0809 9.25 17.4167 9.58579 17.4167 10C17.4167 10.4142 17.0809 10.75 16.6667 10.75H3.33333C2.91912 10.75 2.58333 10.4142 2.58333 10Z" fill="white"/>
<path fill-rule="evenodd" clip-rule="evenodd" d="M11.1363 4.46967C11.4292 4.17678 11.9041 4.17678 12.197 4.46967L17.197 9.46967C17.4899 9.76256 17.4899 10.2374 17.197 10.5303L12.197 15.5303C11.9041 15.8232 11.4292 15.8232 11.1363 15.5303C10.8434 15.2374 10.8434 14.7626 11.1363 14.4697L15.606 10L11.1363 5.53033C10.8434 5.23744 10.8434 4.76256 11.1363 4.46967Z" fill="white"/>
</svg>
