<svg width="28" height="28" viewBox="0 0 28 28" fill="none" xmlns="http://www.w3.org/2000/svg">
<path fill-rule="evenodd" clip-rule="evenodd" d="M5.25 5.125C5.18096 5.125 5.125 5.18096 5.125 5.25V22.75C5.125 22.819 5.18096 22.875 5.25 22.875H22.75C22.819 22.875 22.875 22.819 22.875 22.75V5.25C22.875 5.18096 22.819 5.125 22.75 5.125H5.25ZM3.625 5.25C3.625 4.35254 4.35254 3.625 5.25 3.625H22.75C23.6475 3.625 24.375 4.35254 24.375 5.25V22.75C24.375 23.6475 23.6475 24.375 22.75 24.375H5.25C4.35254 24.375 3.625 23.6475 3.625 22.75V5.25Z" fill="white"/>
<path fill-rule="evenodd" clip-rule="evenodd" d="M19.25 1.875C19.6642 1.875 20 2.21079 20 2.625V6.125C20 6.53921 19.6642 6.875 19.25 6.875C18.8358 6.875 18.5 6.53921 18.5 6.125V2.625C18.5 2.21079 18.8358 1.875 19.25 1.875Z" fill="white"/>
<path fill-rule="evenodd" clip-rule="evenodd" d="M8.75 1.875C9.16421 1.875 9.5 2.21079 9.5 2.625V6.125C9.5 6.53921 9.16421 6.875 8.75 6.875C8.33579 6.875 8 6.53921 8 6.125V2.625C8 2.21079 8.33579 1.875 8.75 1.875Z" fill="white"/>
<path fill-rule="evenodd" clip-rule="evenodd" d="M3.625 9.625C3.625 9.21079 3.96079 8.875 4.375 8.875H23.625C24.0392 8.875 24.375 9.21079 24.375 9.625C24.375 10.0392 24.0392 10.375 23.625 10.375H4.375C3.96079 10.375 3.625 10.0392 3.625 9.625Z" fill="white"/>
<path fill-rule="evenodd" clip-rule="evenodd" d="M10.1875 16.625C10.1875 16.2108 10.5233 15.875 10.9375 15.875H17.0625C17.4767 15.875 17.8125 16.2108 17.8125 16.625C17.8125 17.0392 17.4767 17.375 17.0625 17.375H10.9375C10.5233 17.375 10.1875 17.0392 10.1875 16.625Z" fill="white"/>
<path fill-rule="evenodd" clip-rule="evenodd" d="M14 12.8125C14.4142 12.8125 14.75 13.1483 14.75 13.5625V19.6875C14.75 20.1017 14.4142 20.4375 14 20.4375C13.5858 20.4375 13.25 20.1017 13.25 19.6875V13.5625C13.25 13.1483 13.5858 12.8125 14 12.8125Z" fill="white"/>
</svg>
