<svg width="24" height="24" viewBox="0 0 24 24" fill="none" xmlns="http://www.w3.org/2000/svg">
<path fill-rule="evenodd" clip-rule="evenodd" d="M4.00005 6.25005V20.353L6.60822 18.1605C6.92357 17.8954 7.32233 17.75 7.73431 17.75H20V6.25005H4.00005ZM2.51261 4.76261C2.8408 4.43442 3.28592 4.25005 3.75005 4.25005H20.25C20.7142 4.25005 21.1593 4.43442 21.4875 4.76261C21.8157 5.0908 22 5.53592 22 6.00005V18C22 18.4642 21.8157 18.9093 21.4875 19.2375C21.1593 19.5657 20.7142 19.75 20.25 19.75H7.82542L4.87613 22.2293C4.62104 22.4438 4.31001 22.5809 3.97964 22.6246C3.64927 22.6684 3.31328 22.6168 3.01118 22.4761C2.70908 22.3354 2.45344 22.1114 2.27432 21.8304C2.0952 21.5494 2.00005 21.223 2.00005 20.8898V6.00005C2.00005 5.53592 2.18442 5.0908 2.51261 4.76261Z" fill="#374957"/>
<path d="M12 13.125C12.6213 13.125 13.125 12.6213 13.125 12C13.125 11.3787 12.6213 10.875 12 10.875C11.3787 10.875 10.875 11.3787 10.875 12C10.875 12.6213 11.3787 13.125 12 13.125Z" fill="#374957"/>
<path d="M7.5 13.125C8.12132 13.125 8.625 12.6213 8.625 12C8.625 11.3787 8.12132 10.875 7.5 10.875C6.87868 10.875 6.375 11.3787 6.375 12C6.375 12.6213 6.87868 13.125 7.5 13.125Z" fill="#374957"/>
<path d="M16.5 13.125C17.1213 13.125 17.625 12.6213 17.625 12C17.625 11.3787 17.1213 10.875 16.5 10.875C15.8787 10.875 15.375 11.3787 15.375 12C15.375 12.6213 15.8787 13.125 16.5 13.125Z" fill="#374957"/>
</svg>
