<svg width="16" height="16" viewBox="0 0 16 16" fill="none" xmlns="http://www.w3.org/2000/svg">
<path d="M2.06803 14.6667C1.8628 14.6664 1.66715 14.5798 1.52882 14.4281C1.38795 14.2777 1.31794 14.0743 1.33641 13.869L1.51565 11.8975L9.79619 3.61761L12.3839 6.20534L4.10561 14.4845L2.13461 14.6638C2.11193 14.666 2.08925 14.6667 2.06803 14.6667ZM12.9005 5.68794L10.3134 3.10021L11.8652 1.54801C12.0025 1.41059 12.1887 1.33337 12.3829 1.33337C12.577 1.33337 12.7632 1.41059 12.9005 1.54801L14.4523 3.10021C14.5896 3.23748 14.6668 3.42374 14.6668 3.61798C14.6668 3.81221 14.5896 3.99848 14.4523 4.13574L12.9012 5.68721L12.9005 5.68794Z" fill="#A7BAC9"/>
</svg>
