<?xml version="1.0" encoding="utf-8"?>
<!-- Generator: Adobe Illustrator 26.4.1, SVG Export Plug-In . SVG Version: 6.00 Build 0)  -->
<svg version="1.1" id="Layer_1" xmlns="http://www.w3.org/2000/svg" xmlns:xlink="http://www.w3.org/1999/xlink" x="0px" y="0px"
	 viewBox="0 0 24 24" style="enable-background:new 0 0 24 24;" xml:space="preserve">
<style type="text/css">
	.st0{fill:#374957;}
</style>
<path class="st0" d="M18,20.9c-0.2,0-0.4-0.1-0.6-0.2l-4.8-3.8c-0.4-0.3-0.9-0.3-1.2,0l-4.8,3.8C6.3,21,5.9,21,5.6,20.8
	C5.2,20.7,5,20.3,5,19.9V4.2C5,2.8,6,2,7,2h10c1,0,2,0.8,2,2.2v15.7c0,0.4-0.2,0.7-0.6,0.9C18.3,20.9,18.1,20.9,18,20.9z M7,4
	c0.1,0,0,0.1,0,0.2v13.6l3.1-2.5c1.1-0.9,2.6-0.9,3.7,0l3.1,2.5V4.2C17,4.1,16.9,4,16.9,4L7,4z"/>
</svg>
