<svg width="30" height="24" viewBox="0 0 30 24" fill="none" xmlns="http://www.w3.org/2000/svg">
<path d="M28.1795 0C28.4377 0.127488 28.7282 0.286851 29.051 0.478087C29.4383 0.669324 29.6966 0.89243 29.8257 1.14741C30.0194 1.40239 30.0516 1.72111 29.9225 2.10359C29.7934 2.42231 29.3415 2.77291 28.5668 3.15538H28.6637C23.7573 6.66135 21.3041 9.75299 21.3041 12.4303C21.3041 13.8964 22.0142 14.8526 23.4345 15.2988C25.6294 16.1912 26.7269 17.5299 26.7269 19.3147C26.7269 20.5259 26.3073 21.6096 25.468 22.5657C24.6933 23.5219 23.4022 24 21.5946 24C19.9161 24 18.399 23.3307 17.0432 21.992C15.6875 20.5896 15.0097 18.8048 15.0097 16.6375C15.0097 13.1315 16.9141 9.49801 20.7231 5.73705C24.4674 1.91235 26.9206 0 28.0826 0H28.1795ZM13.1698 0C13.428 0.127488 13.7185 0.286851 14.0413 0.478087C14.4287 0.669324 14.6869 0.89243 14.816 1.14741C15.0097 1.40239 15.042 1.72111 14.9128 2.10359C14.7837 2.42231 14.3318 2.77291 13.5571 3.15538H13.654C8.74759 6.66135 6.29439 9.75299 6.29439 12.4303C6.29439 13.8964 7.00452 14.8526 8.42479 15.2988C10.6198 16.1912 11.7172 17.5299 11.7172 19.3147C11.7172 20.5259 11.2976 21.6096 10.4584 22.5657C9.68366 23.5219 8.39251 24 6.58489 24C4.90639 24 3.38928 23.3307 2.03357 21.992C0.677856 20.5896 0 18.8048 0 16.6375C0 13.1315 1.90446 9.49801 5.71336 5.73705C9.45772 1.91235 11.9109 0 13.073 0H13.1698Z" fill="white"/>
</svg>
