<svg width="20" height="20" viewBox="0 0 20 20" fill="none" xmlns="http://www.w3.org/2000/svg">
<path d="M19.3211 9.74614C19.2937 9.68442 18.6321 8.21675 17.1607 6.74527C15.201 4.78536 12.7248 3.74936 10 3.74936C7.27516 3.74936 4.79897 4.78536 2.83928 6.74527C1.36787 8.21676 0.70633 9.68442 0.678863 9.74614C0.643362 9.82606 0.625019 9.91253 0.625019 9.99997C0.625019 10.0874 0.643362 10.1739 0.678863 10.2538C0.70633 10.3156 1.36795 11.7829 2.83936 13.2541C4.79904 15.2136 7.27516 16.2494 10 16.2494C12.7248 16.2494 15.201 15.2136 17.1606 13.2541C18.6321 11.7829 19.2937 10.3156 19.3211 10.2538C19.3566 10.1739 19.375 10.0874 19.375 9.99997C19.375 9.91253 19.3566 9.82606 19.3211 9.74614V9.74614ZM10 7.18755C10.5563 7.18755 11.1 7.3525 11.5625 7.66154C12.0251 7.97058 12.3855 8.40983 12.5984 8.92375C12.8113 9.43767 12.867 10.0032 12.7585 10.5487C12.6499 11.0943 12.3821 11.5955 11.9887 11.9888C11.5954 12.3821 11.0943 12.65 10.5487 12.7585C10.0031 12.867 9.43762 12.8113 8.9237 12.5985C8.40979 12.3856 7.97053 12.0251 7.66149 11.5626C7.35245 11.1001 7.1875 10.5563 7.1875 10C7.18834 9.25438 7.48493 8.5395 8.01219 8.01224C8.53945 7.48497 9.25434 7.18839 10 7.18755V7.18755Z" fill="#577084"/>
</svg>
