<svg width="25" height="24" viewBox="0 0 25 24" fill="none" xmlns="http://www.w3.org/2000/svg">
<path d="M12.5 2.25C10.5716 2.25 8.68657 2.82183 7.08319 3.89317C5.47982 4.96451 4.23013 6.48726 3.49218 8.26884C2.75422 10.0504 2.56114 12.0108 2.93735 13.9021C3.31355 15.7934 4.24215 17.5307 5.60571 18.8943C6.96928 20.2579 8.70656 21.1865 10.5979 21.5627C12.4892 21.9389 14.4496 21.7458 16.2312 21.0078C18.0127 20.2699 19.5355 19.0202 20.6068 17.4168C21.6782 15.8134 22.25 13.9284 22.25 12C22.2471 9.41504 21.2189 6.93679 19.3911 5.10894C17.5632 3.28109 15.085 2.25293 12.5 2.25ZM12.3126 6.75003C12.5351 6.75003 12.7526 6.81601 12.9376 6.93963C13.1226 7.06325 13.2668 7.23895 13.3519 7.44452C13.4371 7.65008 13.4593 7.87628 13.4159 8.09451C13.3725 8.31274 13.2654 8.5132 13.108 8.67053C12.9507 8.82786 12.7503 8.93501 12.532 8.97842C12.3138 9.02183 12.0876 8.99955 11.882 8.9144C11.6765 8.82925 11.5008 8.68506 11.3772 8.50005C11.2535 8.31505 11.1876 8.09754 11.1876 7.87503C11.1876 7.57667 11.3061 7.29052 11.5171 7.07954C11.728 6.86856 12.0142 6.75003 12.3126 6.75003ZM13.25 17.25H12.5C12.3011 17.25 12.1103 17.171 11.9697 17.0303C11.829 16.8897 11.75 16.6989 11.75 16.5V12C11.5511 12 11.3603 11.921 11.2197 11.7803C11.079 11.6397 11 11.4489 11 11.25C11 11.0511 11.079 10.8603 11.2197 10.7197C11.3603 10.579 11.5511 10.5 11.75 10.5H12.5C12.6989 10.5 12.8897 10.579 13.0303 10.7197C13.171 10.8603 13.25 11.0511 13.25 11.25V15.75C13.4489 15.75 13.6397 15.829 13.7803 15.9697C13.921 16.1103 14 16.3011 14 16.5C14 16.6989 13.921 16.8897 13.7803 17.0303C13.6397 17.171 13.4489 17.25 13.25 17.25Z" fill="#009FF5"/>
</svg>
