<svg width="29" height="28" viewBox="0 0 29 28" fill="none" xmlns="http://www.w3.org/2000/svg">
<path fill-rule="evenodd" clip-rule="evenodd" d="M6 9.16667C6 6.68139 8.05669 4.66667 10.5937 4.66667H20.8021C21.6478 4.66667 22.3333 5.33824 22.3333 6.16667V21.1667C22.3333 21.719 21.8763 22.1667 21.3125 22.1667H9.57292C7.77295 22.1667 6.28385 20.8628 6.03618 19.1667H6V9.16667ZM20.8021 16.6667H9.57292C8.44534 16.6667 7.53125 17.5621 7.53125 18.6667C7.53125 19.7712 8.44534 20.6667 9.57292 20.6667H20.8021V16.6667ZM10.3385 9.16667C10.3385 8.75246 10.6813 8.41667 11.1042 8.41667H18.25C18.6728 8.41667 19.0156 8.75246 19.0156 9.16667C19.0156 9.58089 18.6728 9.91667 18.25 9.91667H11.1042C10.6813 9.91667 10.3385 9.58089 10.3385 9.16667ZM11.1042 11.4167C10.6813 11.4167 10.3385 11.7525 10.3385 12.1667C10.3385 12.5809 10.6813 12.9167 11.1042 12.9167H16.2083C16.6312 12.9167 16.974 12.5809 16.974 12.1667C16.974 11.7525 16.6312 11.4167 16.2083 11.4167H11.1042Z" fill="#D6E0E8"/>
</svg>
