<svg width="24" height="24" viewBox="0 0 24 24" fill="none" xmlns="http://www.w3.org/2000/svg">
<path fill-rule="evenodd" clip-rule="evenodd" d="M7.5 21.75C7.5 21.3358 7.83579 21 8.25 21H15.75C16.1642 21 16.5 21.3358 16.5 21.75C16.5 22.1642 16.1642 22.5 15.75 22.5H8.25C7.83579 22.5 7.5 22.1642 7.5 21.75Z" fill="#009FF5"/>
<path fill-rule="evenodd" clip-rule="evenodd" d="M12 12.75C12.4142 12.75 12.75 13.0858 12.75 13.5V18.75C12.75 19.1642 12.4142 19.5 12 19.5C11.5858 19.5 11.25 19.1642 11.25 18.75V13.5C11.25 13.0858 11.5858 12.75 12 12.75Z" fill="#009FF5"/>
<path fill-rule="evenodd" clip-rule="evenodd" d="M8.46967 9.96967C8.76256 9.67678 9.23744 9.67678 9.53033 9.96967L12 12.4393L14.4697 9.96967C14.7626 9.67678 15.2374 9.67678 15.5303 9.96967C15.8232 10.2626 15.8232 10.7374 15.5303 11.0303L12.5303 14.0303C12.2374 14.3232 11.7626 14.3232 11.4697 14.0303L8.46967 11.0303C8.17678 10.7374 8.17678 10.2626 8.46967 9.96967Z" fill="#009FF5"/>
<path fill-rule="evenodd" clip-rule="evenodd" d="M15.8162 4.18242C14.6468 3.38081 13.2546 2.96778 11.8372 3.00191C8.18257 3.08793 5.2299 6.13122 5.25011 9.78818C5.25494 10.8064 5.49051 11.8108 5.9391 12.7249C6.3877 13.639 7.03766 14.4395 7.84013 15.0662L7.37848 15.6573L7.83918 15.0655C8.19964 15.3461 8.49149 15.7051 8.69261 16.1152C8.89373 16.5254 8.99884 16.9759 8.99998 17.4327L8.99998 17.4346L8.99999 18H15L15 17.4308C15.0027 16.9719 15.1098 16.5196 15.313 16.1082C15.5158 15.6976 15.8092 15.3384 16.1709 15.0576C17.285 14.182 18.0954 12.9779 18.487 11.616C18.8789 10.2535 18.8318 8.80209 18.3524 7.46779C17.873 6.13349 16.9857 4.98402 15.8162 4.18242ZM11.8015 1.50234C13.5337 1.46071 15.2351 1.96552 16.6643 2.94517C18.0936 3.9249 19.1781 5.3298 19.7641 6.9606C20.35 8.59139 20.4076 10.3653 19.9286 12.0306C19.4496 13.696 18.4585 15.1682 17.0957 16.2386L17.0918 16.2417C16.9088 16.3834 16.7604 16.5649 16.6579 16.7725C16.5557 16.9794 16.5017 17.2069 16.5 17.4377L16.5 18C16.5 18.3978 16.342 18.7794 16.0607 19.0607C15.7794 19.342 15.3978 19.5 15 19.5H8.99999C8.60217 19.5 8.22064 19.342 7.93934 19.0607C7.65803 18.7794 7.5 18.3978 7.49999 18L7.49998 17.4365C7.49998 17.4362 7.49998 17.4367 7.49998 17.4365C7.4993 17.2076 7.44658 16.9811 7.34582 16.7756C7.24494 16.5699 7.09856 16.3899 6.91777 16.2491L6.91682 16.2484C5.93568 15.4821 5.14101 14.5034 4.59253 13.3858C4.04409 12.2683 3.75607 11.041 3.75013 9.79614C3.72558 5.32295 7.32813 1.60784 11.8015 1.50234Z" fill="#009FF5"/>
</svg>
