<svg width="46" height="46" viewBox="0 0 46 46" fill="none" xmlns="http://www.w3.org/2000/svg">
<path d="M37.375 14.375H30.9062V9.34375C30.9062 7.24688 30.0733 5.2359 28.5906 3.75319C27.1079 2.27048 25.0969 1.4375 23 1.4375C20.9031 1.4375 18.8921 2.27048 17.4094 3.75319C15.9267 5.2359 15.0938 7.24688 15.0938 9.34375V14.375H8.625C7.86277 14.3759 7.13201 14.6791 6.59303 15.218C6.05405 15.757 5.75087 16.4878 5.75 17.25V37.375C5.75087 38.1372 6.05405 38.868 6.59303 39.407C7.13201 39.9459 7.86277 40.2491 8.625 40.25H37.375C38.1372 40.2491 38.868 39.9459 39.407 39.407C39.9459 38.868 40.2491 38.1372 40.25 37.375V17.25C40.2491 16.4878 39.9459 15.757 39.407 15.218C38.868 14.6791 38.1372 14.3759 37.375 14.375ZM22.9989 29.4688C22.5725 29.4688 22.1556 29.3423 21.801 29.1054C21.4464 28.8684 21.17 28.5317 21.0068 28.1377C20.8436 27.7437 20.8009 27.3101 20.8841 26.8918C20.9673 26.4736 21.1727 26.0894 21.4742 25.7878C21.7758 25.4862 22.16 25.2809 22.5783 25.1977C22.9966 25.1145 23.4301 25.1572 23.8241 25.3204C24.2181 25.4836 24.5549 25.76 24.7918 26.1146C25.0287 26.4691 25.1552 26.886 25.1552 27.3125C25.1552 27.5957 25.0994 27.8761 24.9911 28.1377C24.8827 28.3993 24.7239 28.637 24.5236 28.8372C24.3234 29.0374 24.0857 29.1963 23.8241 29.3046C23.5625 29.413 23.2821 29.4688 22.9989 29.4688ZM28.0312 14.375H17.9688V9.34375C17.9688 8.00938 18.4988 6.72966 19.4424 5.78612C20.3859 4.84258 21.6656 4.3125 23 4.3125C24.3344 4.3125 25.6141 4.84258 26.5576 5.78612C27.5012 6.72966 28.0312 8.00938 28.0312 9.34375V14.375Z" fill="#EAEFF3"/>
</svg>
