<svg width="22" height="22" viewBox="0 0 22 22" fill="none" xmlns="http://www.w3.org/2000/svg">
<path fill-rule="evenodd" clip-rule="evenodd" d="M14.4247 6.86023C14.7176 6.56737 15.1925 6.56743 15.4853 6.86036L19.0937 10.4697C19.3865 10.7626 19.3865 11.2374 19.0937 11.5303L15.4853 15.1396C15.1925 15.4326 14.7176 15.4326 14.4247 15.1398C14.1317 14.8469 14.1317 14.372 14.4245 14.0791L17.5028 11L14.4245 7.92089C14.1317 7.62795 14.1317 7.15308 14.4247 6.86023Z" fill="#374957"/>
<path fill-rule="evenodd" clip-rule="evenodd" d="M8.1875 11C8.1875 10.5858 8.52329 10.25 8.9375 10.25H18.56C18.9742 10.25 19.31 10.5858 19.31 11C19.31 11.4142 18.9742 11.75 18.56 11.75H8.9375C8.52329 11.75 8.1875 11.4142 8.1875 11Z" fill="#374957"/>
<path fill-rule="evenodd" clip-rule="evenodd" d="M4.1875 4.1875H8.9375C9.35171 4.1875 9.6875 3.85171 9.6875 3.4375C9.6875 3.02329 9.35171 2.6875 8.9375 2.6875H4.125C3.74375 2.6875 3.37812 2.83895 3.10853 3.10853C2.83895 3.37812 2.6875 3.74375 2.6875 4.125V17.875C2.6875 18.2562 2.83895 18.6219 3.10853 18.8915C3.37812 19.1611 3.74375 19.3125 4.125 19.3125H8.9375C9.35171 19.3125 9.6875 18.9767 9.6875 18.5625C9.6875 18.1483 9.35171 17.8125 8.9375 17.8125H4.1875V4.1875Z" fill="#374957"/>
</svg>
