<svg width="24" height="24" viewBox="0 0 24 24" fill="none" xmlns="http://www.w3.org/2000/svg">
<path d="M22.0867 10.6255C21.4294 10.7744 21.0608 11.2413 20.9569 11.3837C21.6415 9.27781 21.3448 8.24339 20.8938 7.68843C20.5792 7.30004 20.0174 6.93538 19.6742 6.08783C19.5231 5.70889 19.4406 5.30679 19.4306 4.89979C17.7767 4.89979 16.973 6.26476 16.973 6.26476C16.8854 5.38743 15.5676 4.58174 15.5676 4.58174C14.3226 5.12678 13.912 6.95826 13.912 6.95826C13.7432 6.25308 13.4009 5.59964 12.915 5.05558C12.6475 4.75873 12.3396 4.49979 12 4.28613C11.6586 4.4995 11.3489 4.75845 11.0797 5.05558C10.5938 5.59964 10.2513 6.25307 10.0823 6.95826C10.0823 6.95826 9.67739 5.12678 8.428 4.57958C8.428 4.57958 7.10806 5.38743 7.0226 6.26476C7.0226 6.26476 6.21889 4.89979 4.56546 4.89979C4.55523 5.30681 4.47261 5.70891 4.32137 6.08783C3.98043 6.93538 3.41643 7.30133 3.10397 7.68843C2.65347 8.24339 2.35898 9.27781 3.0413 11.3837C2.93744 11.2413 2.56933 10.7744 1.91111 10.6255C0.842713 10.3843 0.0477669 11.2776 0 11.253C2.24986 12.4272 2.48037 13.188 2.86514 14.6048C3.15831 15.9642 4.00935 16.8527 4.47299 17.2454C5.63255 18.2302 7.55637 19.65 12 19.7147C16.4414 19.65 18.3657 18.2302 19.5274 17.2454C19.9911 16.8527 20.8421 15.9642 21.1353 14.6048C21.5196 13.188 21.7488 12.4272 24 11.253C23.9505 11.2776 23.1551 10.3843 22.0867 10.6255ZM19.5327 12.4199C19.261 13.2804 19.4911 13.5298 19.2658 14.1892C19.08 14.7343 18.8938 14.6505 18.3166 15.5192C17.7469 16.3746 17.8565 16.564 17.3468 17.3706C17.2473 17.5276 17.1566 17.6726 17.0712 17.8021C17.1711 16.7806 17.2986 16.2434 17.4218 15.9633C17.4513 15.893 17.4909 15.8272 17.5392 15.7678C17.6939 15.5283 17.8219 15.3962 17.9336 15.1878C17.9586 15.1416 17.9823 15.0924 18.0064 15.0372C18.0156 15.0148 18.0248 14.9919 18.034 14.9681C18.0388 14.9561 18.0436 14.9431 18.048 14.9302C18.275 14.3087 18.0664 14.0787 18.2421 13.2087C18.3622 12.6149 18.5235 12.4039 18.3876 12.2511C18.2123 12.0522 17.7057 12.1471 17.3679 12.3469C16.8775 12.6369 16.6978 13.1734 16.5173 13.7344C16.4953 13.8038 16.4761 13.8677 16.4598 13.9277C16.4563 13.9398 16.4528 13.9523 16.4502 13.9644C16.4252 14.058 16.4064 14.1396 16.3937 14.2121C16.3906 14.2293 16.388 14.2453 16.3853 14.2613C16.3853 14.2699 16.3823 14.2772 16.3814 14.2854C16.3761 14.32 16.3709 14.3528 16.3678 14.3834L16.3652 14.4071C16.3652 14.4205 16.3626 14.4339 16.3612 14.4464C16.3599 14.4589 16.3612 14.4632 16.3586 14.4706C16.3586 14.4853 16.3586 14.4982 16.3555 14.5116C16.3525 14.525 16.3555 14.525 16.3555 14.5319C16.3499 14.6035 16.3468 14.6648 16.338 14.7243C16.338 14.7299 16.338 14.736 16.3354 14.7425C16.3328 14.7489 16.3354 14.7541 16.3323 14.7606C16.3293 14.767 16.3284 14.7787 16.3262 14.7878C16.324 14.7968 16.3218 14.8059 16.3196 14.815L16.313 14.8378V14.8426C16.3129 14.8444 16.3129 14.8463 16.313 14.8482C16.2925 14.9104 16.265 14.9702 16.2311 15.0264C16.019 15.3867 14.6149 15.8463 14.118 16.0552C13.291 16.4039 12.5842 17.0935 12.2415 17.8487C12.1967 17.948 12.1578 18.0497 12.1249 18.1534C12.0626 18.3522 12.0208 18.5566 12 18.7636C11.979 18.5569 11.937 18.3527 11.8747 18.1542C11.8418 18.0506 11.8028 17.9488 11.7581 17.8496C11.4163 17.0944 10.7085 16.4048 9.88161 16.0561C9.38465 15.8455 7.98057 15.3876 7.76847 15.0273C7.73494 14.9712 7.70775 14.9118 7.6874 14.8499C7.68721 14.848 7.68721 14.8462 7.6874 14.8443C7.68711 14.8429 7.68711 14.8414 7.6874 14.84L7.68477 14.8318C7.68214 14.8219 7.67951 14.8111 7.67644 14.8003C7.67206 14.7817 7.66855 14.7636 7.66505 14.7446C7.66505 14.7377 7.66505 14.7321 7.66198 14.7252C7.65322 14.6656 7.65015 14.6044 7.64445 14.5327C7.64445 14.5189 7.64226 14.5042 7.64138 14.4896C7.64138 14.484 7.64138 14.4775 7.64138 14.4714C7.64138 14.4654 7.64138 14.4555 7.63919 14.4473C7.63174 14.3739 7.62079 14.2893 7.6015 14.1883C7.59668 14.1642 7.59142 14.1387 7.58573 14.1133C7.57609 14.0671 7.56382 14.0188 7.54979 13.9661L7.54015 13.9294C7.54015 13.9264 7.53796 13.9225 7.53665 13.9186C7.53402 13.9074 7.53051 13.8958 7.52701 13.8845C7.5143 13.8375 7.49896 13.7883 7.48318 13.7361C7.30307 13.1751 7.12296 12.6387 6.63302 12.3487C6.29515 12.1489 5.78943 12.0539 5.61326 12.2529C5.47741 12.4056 5.63868 12.6167 5.75832 13.2105C5.93361 14.0805 5.72589 14.3105 5.95289 14.9319C5.98343 15.0172 6.02034 15.1001 6.06332 15.18C6.17682 15.3958 6.30566 15.5253 6.46343 15.7695C6.51144 15.829 6.55082 15.8948 6.58043 15.965C7.03663 16.785 7.05284 17.6049 7.08483 18.0343C7.03575 17.9622 6.98536 17.8858 6.93277 17.8047C6.84775 17.6726 6.75748 17.5294 6.65712 17.3731C6.14703 16.5666 6.25571 16.3771 5.68732 15.5218C5.11018 14.6531 4.92393 14.7368 4.73856 14.1918C4.51375 13.5315 4.74294 13.2821 4.47124 12.4225C4.38679 12.184 4.34239 11.9336 4.33977 11.6811C4.34088 11.4649 4.37349 11.2499 4.43662 11.0428C4.6014 10.4503 4.45503 10.1961 4.51682 9.33606C4.60446 8.12774 4.9213 8.2339 4.95505 7.13519C4.96863 6.66049 4.92042 6.3049 5.14918 6.15429C5.35076 6.02482 5.69609 6.09776 5.90206 6.27469C6.05105 6.40156 6.21977 6.66049 6.12117 7.80538C6.05368 8.58777 5.9415 8.85317 5.87883 9.35894C5.81967 9.83105 5.80258 10.5185 6.02388 11.3924C6.40923 10.6518 6.79429 9.91117 7.17905 9.17035C7.42592 8.5239 7.6725 7.87658 7.91878 7.2284C7.99722 6.72004 8.12782 6.1435 8.34123 6.12753C8.37191 6.12753 8.4727 6.12753 8.62345 6.39121C8.99069 7.03852 8.83774 7.84422 8.6962 8.45615C8.494 9.32418 8.22878 10.1768 7.90257 11.0074C7.89161 11.0269 7.88109 11.0458 7.87058 11.0657L8.05113 10.9621C8.45342 10.7304 8.73958 10.5655 9.06913 10.3381C9.71902 9.89017 10.2471 9.40166 10.5512 9.11813C11.1994 8.51397 11.4334 8.20456 11.6201 8.28094C11.7888 8.34955 11.8102 8.69263 11.7901 8.90279C11.7463 9.36757 11.4579 9.5376 10.7217 10.3618C10.099 11.0584 10.0205 11.253 9.53102 11.6535C9.32736 11.8195 9.1129 11.9723 8.88902 12.1109C9.42531 12.036 9.9409 11.856 10.4053 11.5814C11.1446 11.1386 11.603 10.5211 11.8037 10.6398C11.8584 10.6717 11.9032 10.7649 11.8633 11.0316C11.7435 11.2692 11.5878 11.4874 11.4014 11.6789C11.1796 11.9046 11.0692 11.9335 10.794 12.1571C10.2646 12.5886 10.2861 12.8044 9.98809 12.983L10.0039 12.9969C10.149 13.1265 10.2751 13.2754 10.3786 13.4392C10.4815 13.604 10.5183 13.7218 10.822 14.6514C10.822 14.6557 10.8497 14.7355 10.851 14.7407C10.9061 14.9863 11.0056 15.2202 11.1446 15.4312C11.3199 15.6979 11.5219 15.8554 11.7081 16.2542C11.7379 16.3206 11.7664 16.3888 11.7932 16.4578C11.8784 16.6749 11.9475 16.8977 12 17.1246C12.0517 16.8978 12.1198 16.675 12.2038 16.4578C12.2309 16.3888 12.2594 16.3206 12.2888 16.2542C12.4755 15.8554 12.6753 15.6979 12.8528 15.4312C12.9916 15.2201 13.0909 14.9863 13.146 14.7407C13.146 14.7355 13.1736 14.6544 13.1753 14.6514C13.4786 13.7218 13.5158 13.604 13.6188 13.4392C13.7242 13.2747 13.8525 13.1257 14.0001 12.9964C13.6767 12.8139 13.7139 12.5998 13.1701 12.1566C12.8962 11.9331 12.7849 11.9042 12.5631 11.6785C12.3766 11.4871 12.2208 11.2688 12.1012 11.0312C12.0609 10.7645 12.1061 10.6713 12.1608 10.6393C12.3611 10.5207 12.8182 11.1382 13.5588 11.581C14.0235 11.8555 14.5394 12.0356 15.0759 12.1105C14.8518 11.972 14.6372 11.8192 14.4335 11.653C13.9427 11.2526 13.8638 11.0579 13.2428 10.3614C12.5066 9.53716 12.2196 9.36886 12.1744 8.90236C12.1538 8.6922 12.1744 8.34912 12.3444 8.28051C12.5311 8.20412 12.7651 8.51397 13.4133 9.1177C13.7174 9.40123 14.2459 9.88974 14.8949 10.3377C15.2249 10.5651 15.5111 10.73 15.9134 10.9617C15.998 11.01 16.0768 11.0558 16.1509 11.0972L16.1014 11.007C15.7752 10.1764 15.5099 9.32375 15.3077 8.45571C15.1658 7.84378 15.0128 7.03723 15.3809 6.39077C15.529 6.12926 15.632 6.12494 15.6631 6.1271C15.8757 6.14307 16.0063 6.71961 16.0852 7.22797L16.8245 9.16992C17.2095 9.91074 17.5947 10.6514 17.9801 11.3919C18.2014 10.5181 18.1838 9.83061 18.126 9.3585C18.0624 8.85187 17.9507 8.58647 17.8823 7.80495C17.7837 6.66006 17.9529 6.40113 18.1014 6.27426C18.3074 6.09732 18.6527 6.02224 18.8543 6.15386C19.0835 6.30447 19.0344 6.66178 19.0485 7.13476C19.0818 8.23304 19.399 8.12731 19.4867 9.33563C19.5485 10.1957 19.4017 10.4499 19.5669 11.0424C19.63 11.2495 19.6626 11.4644 19.6637 11.6806C19.6612 11.9324 19.617 12.1821 19.5327 12.4199Z" fill="#374957"/>
</svg>
