<svg width="44" height="44" viewBox="0 0 44 44" fill="none" xmlns="http://www.w3.org/2000/svg">
<path d="M43.0519 20.8469C42.8705 20.5301 42.6273 20.2531 42.3366 20.0324C42.0459 19.8116 41.7138 19.6517 41.36 19.562C39.7895 19.1742 38.1628 19.0665 36.5549 19.2436C36.9781 16.9038 36.8288 14.4964 36.1198 12.2268C35.9111 11.5796 35.4694 11.033 34.8805 10.693C34.2916 10.353 33.5974 10.2439 32.9326 10.3867C31.3389 10.7391 29.8179 11.3639 28.4366 12.2335C27.3338 9.91218 25.6934 7.88721 23.6516 6.32648C23.1761 5.96786 22.5968 5.77389 22.0012 5.77393C21.4057 5.77396 20.8264 5.96799 20.351 6.32665C18.3092 7.88731 16.6689 9.91223 15.5662 12.2335C14.185 11.364 12.6641 10.7392 11.0705 10.3867C10.4057 10.2439 9.71144 10.3532 9.12249 10.6932C8.53355 11.0332 8.09183 11.5798 7.88297 12.2269C7.17398 14.4964 7.02472 16.9038 7.44792 19.2435C5.83994 19.0662 4.21331 19.1741 2.64281 19.562C2.28952 19.6529 1.95791 19.8134 1.6674 20.034C1.37689 20.2546 1.13331 20.531 0.950915 20.8469C0.768525 21.1628 0.650991 21.5119 0.605195 21.8738C0.559398 22.2357 0.58626 22.6031 0.684206 22.9545C1.29231 25.1293 3.15365 29.2632 8.786 32.5153C14.3833 35.7467 19.3299 35.7503 21.9922 35.7503C21.9948 35.7503 21.9974 35.7507 22.0001 35.7507L22.0014 35.7506L22.0027 35.7507C22.0054 35.7507 22.0079 35.7503 22.0106 35.7503C24.6729 35.7503 29.6195 35.7467 35.2168 32.5151C40.8491 29.2632 42.7105 25.1293 43.3186 22.9545C43.4179 22.6033 43.4455 22.2357 43.3996 21.8736C43.3538 21.5115 43.2355 21.1623 43.0519 20.8469ZM22.0066 8.53013C23.6587 9.76363 27.5014 13.4114 27.5014 20.6253C27.5014 27.8392 23.6587 31.487 22.0069 32.7204C22.0061 32.7211 22.0053 32.7216 22.0043 32.722C22.0034 32.7224 22.0024 32.7226 22.0014 32.7226C22.0004 32.7226 21.9994 32.7224 21.9984 32.722C21.9975 32.7216 21.9967 32.7211 21.9959 32.7204C20.3437 31.4865 16.5014 27.8387 16.5014 20.6253C16.5014 13.4114 20.3441 9.76363 22.0066 8.53013ZM3.32577 22.2257C4.92382 21.8424 6.58577 21.8086 8.19811 22.1265C8.6384 23.3739 9.1948 24.5773 9.85997 25.7208C11.3402 28.2626 13.2793 30.5077 15.5788 32.342C13.6784 31.8631 11.8546 31.1198 10.161 30.1337C5.37375 27.3696 3.82797 23.9853 3.32577 22.2257ZM33.8418 30.1335C32.1482 31.1196 30.3245 31.863 28.4241 32.3419C30.7235 30.5076 32.6626 28.2626 34.1428 25.7208C34.808 24.5773 35.3644 23.3739 35.8047 22.1265C37.4145 21.8111 39.0729 21.8409 40.6703 22.214C40.1748 23.9853 38.629 27.3696 33.8418 30.1335Z" fill="url(#paint0_linear_2150_1779)"/>
<defs>
<linearGradient id="paint0_linear_2150_1779" x1="0.583495" y1="35.7507" x2="47.2483" y2="13.9758" gradientUnits="userSpaceOnUse">
<stop stop-color="#009FF5"/>
<stop offset="1" stop-color="#59CA56"/>
</linearGradient>
</defs>
</svg>
