<svg width="24" height="24" viewBox="0 0 24 24" fill="none" xmlns="http://www.w3.org/2000/svg">
<path fill-rule="evenodd" clip-rule="evenodd" d="M3 5.8C3 5.35817 3.35817 5 3.8 5H19.8C20.2418 5 20.6 5.35817 20.6 5.8C20.6 6.24183 20.2418 6.6 19.8 6.6H3.8C3.35817 6.6 3 6.24183 3 5.8Z" fill="#FAFAFA"/>
<path fill-rule="evenodd" clip-rule="evenodd" d="M3 11.8C3 11.3582 3.35817 11 3.8 11H19.8C20.2418 11 20.6 11.3582 20.6 11.8C20.6 12.2418 20.2418 12.6 19.8 12.6H3.8C3.35817 12.6 3 12.2418 3 11.8Z" fill="#FAFAFA"/>
<path fill-rule="evenodd" clip-rule="evenodd" d="M3 17.8C3 17.3582 3.35817 17 3.8 17H19.8C20.2418 17 20.6 17.3582 20.6 17.8C20.6 18.2418 20.2418 18.6 19.8 18.6H3.8C3.35817 18.6 3 18.2418 3 17.8Z" fill="#FAFAFA"/>
</svg>
