<svg width="26" height="26" viewBox="0 0 26 26" fill="none" xmlns="http://www.w3.org/2000/svg">
<path d="M16.3039 11.687L3.21346 3.22595C2.99297 3.08334 2.74053 3.00545 2.48213 3.00028C2.22373 2.9951 1.96868 3.06284 1.74325 3.19652C1.51781 3.33019 1.33012 3.52498 1.19949 3.76084C1.06885 3.9967 0.999997 4.26511 1 4.53846V21.4621C1.00021 21.7354 1.0692 22.0036 1.19988 22.2394C1.33057 22.4751 1.51823 22.6698 1.74359 22.8034C1.96895 22.937 2.22389 23.0048 2.48221 22.9997C2.74054 22.9947 2.99293 22.917 3.21346 22.7746L16.3039 14.3135C16.5165 14.176 16.6922 13.983 16.8141 13.7531C16.936 13.5231 17 13.2639 17 13.0003C17 12.7367 16.936 12.4774 16.8141 12.2475C16.6922 12.0175 16.5165 11.8246 16.3039 11.687V11.687Z" fill="#374957"/>
<rect x="19" y="3" width="6" height="20" rx="1" fill="#374957"/>
</svg>
