<?xml version="1.0" encoding="utf-8"?>
<!-- Generator: Adobe Illustrator 26.4.1, SVG Export Plug-In . SVG Version: 6.00 Build 0)  -->
<svg version="1.1" id="Layer_1" xmlns="http://www.w3.org/2000/svg" xmlns:xlink="http://www.w3.org/1999/xlink" x="0px" y="0px"
	 viewBox="0 0 22 22" style="enable-background:new 0 0 22 22;" xml:space="preserve">
<style type="text/css">
	.st0{fill:#374957;}
</style>
<path class="st0" d="M6.2,20H2.8C2.3,20,2,19.7,2,19.3v-3.4c0-0.2,0.1-0.4,0.2-0.5l4.9-4.9C6.7,9,6.7,7.5,7.1,6.2
	c0.5-1.5,1.5-2.8,2.8-3.7c1.3-0.9,2.9-1.3,4.5-1.1c1.6,0.2,3.1,0.9,4.2,2c1.1,1.1,1.8,2.6,2,4.2c0.2,1.6-0.2,3.2-1.1,4.5
	c-0.9,1.3-2.2,2.3-3.7,2.8c-1.4,0.4-2.8,0.4-4.2,0l-0.8,0.8c-0.1,0.1-0.3,0.2-0.5,0.2H9v1.3c0,0.4-0.3,0.8-0.8,0.8H6.9v1.3
	C6.9,19.7,6.6,20,6.2,20z M3.5,18.5h1.9v-1.3c0-0.4,0.3-0.8,0.8-0.8h1.3v-1.3c0-0.4,0.3-0.8,0.8-0.8H10l0.9-0.9
	c0.2-0.2,0.5-0.3,0.8-0.2c1.2,0.5,2.5,0.5,3.6,0.1c1.2-0.4,2.2-1.2,2.9-2.2s1-2.3,0.9-3.5c-0.1-1.2-0.7-2.4-1.6-3.3
	c-0.9-0.9-2.1-1.4-3.3-1.6C13,2.7,11.8,3,10.8,3.7c-1,0.7-1.8,1.7-2.2,2.9c-0.4,1.2-0.3,2.5,0.1,3.6c0.1,0.3,0,0.6-0.2,0.8l-5,5
	V18.5z M15.5,7.6c0.6,0,1-0.5,1-1s-0.5-1-1-1c-0.6,0-1,0.5-1,1S14.9,7.6,15.5,7.6z"/>
</svg>
