<svg width="26" height="26" viewBox="0 0 26 26" fill="none" xmlns="http://www.w3.org/2000/svg">
<path d="M24.3039 11.687L11.2135 3.22595C10.993 3.08334 10.7405 3.00545 10.4821 3.00028C10.2237 2.9951 9.96868 3.06284 9.74325 3.19652C9.51781 3.33019 9.33012 3.52498 9.19949 3.76084C9.06885 3.9967 9 4.26511 9 4.53846V21.4621C9.00021 21.7354 9.0692 22.0036 9.19988 22.2394C9.33057 22.4751 9.51823 22.6698 9.74359 22.8034C9.96895 22.937 10.2239 23.0048 10.4822 22.9997C10.7405 22.9947 10.9929 22.917 11.2135 22.7746L24.3039 14.3135C24.5165 14.176 24.6922 13.983 24.8141 13.7531C24.936 13.5231 25 13.2639 25 13.0003C25 12.7367 24.936 12.4774 24.8141 12.2475C24.6922 12.0175 24.5165 11.8246 24.3039 11.687V11.687Z" fill="#374957"/>
</svg>
