<svg width="26" height="26" viewBox="0 0 26 26" fill="none" xmlns="http://www.w3.org/2000/svg">
<path d="M9.69615 11.687L22.7865 3.22595C23.007 3.08334 23.2595 3.00545 23.5179 3.00028C23.7763 2.9951 24.0313 3.06284 24.2568 3.19652C24.4822 3.33019 24.6699 3.52498 24.8005 3.76084C24.9311 3.9967 25 4.26511 25 4.53846V21.4621C24.9998 21.7354 24.9308 22.0036 24.8001 22.2394C24.6694 22.4751 24.4818 22.6698 24.2564 22.8034C24.031 22.937 23.7761 23.0048 23.5178 22.9997C23.2595 22.9947 23.0071 22.917 22.7865 22.7746L9.69615 14.3135C9.4835 14.176 9.3078 13.983 9.18591 13.7531C9.06401 13.5231 9 13.2639 9 13.0003C9 12.7367 9.06401 12.4774 9.18591 12.2475C9.3078 12.0175 9.4835 11.8246 9.69615 11.687V11.687Z" fill="#374957"/>
<rect width="6" height="20" rx="1" transform="matrix(-1 0 0 1 7 3)" fill="#374957"/>
</svg>
