<svg width="29" height="28" viewBox="0 0 29 28" fill="none" xmlns="http://www.w3.org/2000/svg">
<path d="M14.5002 4.66667C12.3177 4.66667 10.5485 6.44962 10.5485 8.649C10.5485 10.8484 12.3177 12.6313 14.5002 12.6313C16.6826 12.6313 18.4518 10.8484 18.4518 8.649C18.4518 6.44962 16.6826 4.66667 14.5002 4.66667Z" fill="#009FF5"/>
<path d="M10.2851 14.7552C8.10269 14.7552 6.3335 16.5382 6.3335 18.7376V19.9995C6.3335 20.7994 6.90873 21.4814 7.69208 21.6103C12.201 22.3521 16.7994 22.3521 21.3082 21.6103C22.0916 21.4814 22.6668 20.7994 22.6668 19.9995V18.7376C22.6668 16.5382 20.8976 14.7552 18.7152 14.7552H18.356C18.1616 14.7552 17.9684 14.7862 17.7836 14.847L16.8716 15.1472C15.3307 15.6542 13.6697 15.6542 12.1288 15.1472L11.2167 14.847C11.0319 14.7862 10.8387 14.7552 10.6443 14.7552H10.2851Z" fill="#009FF5"/>
</svg>
