<svg width="24" height="24" viewBox="0 0 24 24" fill="none" xmlns="http://www.w3.org/2000/svg">
<path d="M18.364 18.364C16.6749 20.0494 14.3862 20.9958 12 20.9958C9.6139 20.9958 7.3252 20.0494 5.63602 18.364C5.49536 18.2234 5.41633 18.0326 5.41633 17.8337C5.41633 17.6348 5.49536 17.444 5.63602 17.3033C5.77668 17.1627 5.96746 17.0836 6.16638 17.0836C6.36531 17.0836 6.55609 17.1627 6.69675 17.3033C7.74564 18.3522 9.08201 19.0665 10.5369 19.3559C11.9917 19.6453 13.4997 19.4968 14.8702 18.9291C16.2406 18.3614 17.4119 17.4001 18.236 16.1668C19.0602 14.9334 19.5 13.4834 19.5 12C19.5 10.5167 19.0602 9.06661 18.236 7.83324C17.4119 6.59988 16.2406 5.63858 14.8702 5.07093C13.4997 4.50327 11.9917 4.35474 10.5369 4.64413C9.08201 4.93351 7.74564 5.64782 6.69675 6.69671L6.29506 7.09839L8.01474 8.81807C8.11961 8.92297 8.19102 9.05661 8.21995 9.20209C8.24888 9.34757 8.23402 9.49836 8.17725 9.6354C8.12048 9.77244 8.02436 9.88957 7.90103 9.97198C7.7777 10.0544 7.6327 10.0984 7.48437 10.0984H2.98437C2.78546 10.0984 2.5947 10.0194 2.45405 9.87872C2.3134 9.73807 2.23438 9.5473 2.23438 9.34839V4.84839C2.23437 4.70005 2.27836 4.55504 2.36078 4.4317C2.44319 4.30836 2.56033 4.21223 2.69738 4.15547C2.83443 4.0987 2.98523 4.08385 3.13072 4.1128C3.27621 4.14174 3.40985 4.21318 3.51474 4.31807L5.23437 6.03771L5.63602 5.63607C7.32385 3.94823 9.61305 3 12 3C14.387 3 16.6762 3.94821 18.364 5.63604C20.0519 7.32388 21.0001 9.61308 21.0001 12C21.0001 14.387 20.0519 16.6762 18.364 18.364Z" fill="#374957"/>
</svg>
