<svg width="20" height="20" viewBox="0 0 20 20" fill="none" xmlns="http://www.w3.org/2000/svg">
<path fill-rule="evenodd" clip-rule="evenodd" d="M9.0625 3.5C5.99042 3.5 3.5 5.99042 3.5 9.0625C3.5 12.1346 5.99042 14.625 9.0625 14.625C12.1346 14.625 14.625 12.1346 14.625 9.0625C14.625 5.99042 12.1346 3.5 9.0625 3.5ZM1.5 9.0625C1.5 4.88585 4.88585 1.5 9.0625 1.5C13.2392 1.5 16.625 4.88585 16.625 9.0625C16.625 13.2392 13.2392 16.625 9.0625 16.625C4.88585 16.625 1.5 13.2392 1.5 9.0625Z" fill="#A7BAC9"/>
<path fill-rule="evenodd" clip-rule="evenodd" d="M12.9957 12.9957C13.3862 12.6052 14.0194 12.6052 14.4099 12.9957L18.2068 16.7926C18.5974 17.1831 18.5974 17.8163 18.2068 18.2068C17.8163 18.5974 17.1831 18.5974 16.7926 18.2068L12.9957 14.4099C12.6052 14.0194 12.6052 13.3862 12.9957 12.9957Z" fill="#A7BAC9"/>
</svg>
