<svg width="22" height="22" viewBox="0 0 22 22" fill="none" xmlns="http://www.w3.org/2000/svg">
<path fill-rule="evenodd" clip-rule="evenodd" d="M9.32119 4.0989C9.06374 4.32072 8.75273 4.55488 8.39158 4.70431C8.03483 4.85192 7.65166 4.90126 7.31906 4.92285C7.1019 4.93695 6.85792 4.94073 6.63748 4.94415C6.53311 4.94577 6.43402 4.94731 6.34554 4.94982C5.68154 4.96866 5.36977 5.05136 5.21056 5.21056C5.05136 5.36977 4.96867 5.68153 4.94982 6.34554C4.94731 6.43401 4.94577 6.53311 4.94415 6.63748C4.94073 6.85792 4.93695 7.10189 4.92285 7.31906C4.90126 7.65165 4.85192 8.03482 4.70431 8.39158C4.55488 8.75273 4.32072 9.06373 4.0989 9.32117C3.94612 9.49849 3.7693 9.68292 3.61056 9.84848C3.54542 9.91643 3.48332 9.9812 3.42718 10.041C3.21506 10.2669 3.0546 10.455 2.94639 10.6302C2.84131 10.8003 2.8125 10.9158 2.8125 11C2.8125 11.0841 2.84131 11.1996 2.9464 11.3697C3.0546 11.5449 3.21506 11.733 3.42718 11.959C3.48333 12.0188 3.54543 12.0835 3.61058 12.1515C3.76931 12.3171 3.94612 12.5015 4.0989 12.6788C4.32072 12.9363 4.55488 13.2473 4.70431 13.6084C4.85192 13.9652 4.90126 14.3483 4.92285 14.6809C4.93695 14.8981 4.94073 15.1421 4.94415 15.3625C4.94577 15.4669 4.94731 15.566 4.94982 15.6545C4.96866 16.3185 5.05136 16.6302 5.21056 16.7894C5.36977 16.9486 5.68153 17.0313 6.34554 17.0502C6.43401 17.0527 6.53311 17.0542 6.63748 17.0558C6.85792 17.0593 7.10189 17.063 7.31906 17.0771C7.65165 17.0987 8.03482 17.1481 8.39158 17.2957C8.75273 17.4451 9.06373 17.6793 9.32117 17.9011C9.49849 18.0539 9.68292 18.2307 9.84849 18.3894C9.91644 18.4546 9.9812 18.5167 10.041 18.5728C10.2669 18.7849 10.455 18.9454 10.6302 19.0536C10.8003 19.1587 10.9158 19.1875 11 19.1875C11.0841 19.1875 11.1996 19.1587 11.3697 19.0536C11.5449 18.9454 11.733 18.7849 11.959 18.5728C12.0188 18.5167 12.0836 18.4546 12.1515 18.3894C12.3171 18.2307 12.5015 18.0539 12.6788 17.9011C12.9363 17.6793 13.2473 17.4451 13.6084 17.2957C13.9652 17.1481 14.3483 17.0987 14.6809 17.0772C14.8981 17.0631 15.1421 17.0593 15.3625 17.0558C15.4669 17.0542 15.566 17.0527 15.6545 17.0502C16.3185 17.0313 16.6302 16.9486 16.7894 16.7894C16.9486 16.6302 17.0313 16.3185 17.0502 15.6545C17.0527 15.566 17.0542 15.4669 17.0558 15.3625C17.0593 15.1421 17.063 14.8981 17.0771 14.6809C17.0987 14.3483 17.1481 13.9652 17.2957 13.6084C17.4451 13.2473 17.6793 12.9363 17.9011 12.6788C18.0539 12.5015 18.2307 12.3171 18.3894 12.1515C18.4546 12.0836 18.5167 12.0188 18.5728 11.959C18.7849 11.7331 18.9454 11.545 19.0536 11.3698C19.1587 11.1997 19.1875 11.0842 19.1875 11C19.1875 10.9159 19.1587 10.8004 19.0536 10.6303C18.9454 10.4551 18.7849 10.267 18.5728 10.041C18.5167 9.98123 18.4546 9.91647 18.3894 9.84852C18.2307 9.68295 18.0539 9.49851 17.9011 9.32119C17.6793 9.06374 17.4451 8.75273 17.2957 8.39158C17.1481 8.03483 17.0987 7.65166 17.0772 7.31906C17.0631 7.10189 17.0593 6.85791 17.0558 6.63747C17.0542 6.5331 17.0527 6.43401 17.0502 6.34554C17.0313 5.68154 16.9486 5.36977 16.7894 5.21056C16.6302 5.05136 16.3185 4.96867 15.6545 4.94982C15.566 4.94731 15.4669 4.94577 15.3625 4.94415C15.1421 4.94073 14.8981 4.93695 14.6809 4.92285C14.3483 4.90126 13.9652 4.85192 13.6084 4.70431C13.2473 4.55488 12.9363 4.32072 12.6788 4.0989C12.5015 3.94612 12.3171 3.76931 12.1515 3.61057C12.0836 3.54542 12.0188 3.48332 11.959 3.42718C11.7331 3.21506 11.545 3.0546 11.3698 2.94639C11.1997 2.84131 11.0842 2.8125 11 2.8125C10.9159 2.8125 10.8004 2.84131 10.6303 2.9464C10.4551 3.0546 10.267 3.21506 10.041 3.42718C9.98123 3.48332 9.91646 3.54542 9.84851 3.61057C9.68294 3.7693 9.49851 3.94612 9.32119 4.0989ZM9.84199 1.67022C10.1578 1.47512 10.5468 1.3125 11 1.3125C11.4532 1.3125 11.8422 1.47513 12.1581 1.67022C12.4689 1.86221 12.7483 2.11069 12.9857 2.3336C13.0714 2.41411 13.1502 2.48972 13.2253 2.56173C13.3759 2.70628 13.5115 2.83637 13.658 2.96255C13.87 3.14525 14.0387 3.25903 14.1819 3.31827C14.3117 3.37196 14.501 3.40801 14.7781 3.426C14.961 3.43788 15.1356 3.44042 15.3301 3.44325C15.4437 3.4449 15.5641 3.44665 15.697 3.45042C16.3043 3.46766 17.2183 3.51814 17.8501 4.1499C18.4819 4.78166 18.5323 5.69569 18.5496 6.30299C18.5534 6.43587 18.5551 6.55632 18.5568 6.66997C18.5596 6.86445 18.5621 7.03901 18.574 7.22189C18.592 7.49904 18.628 7.68834 18.6817 7.8181L17.9887 8.10484L18.6817 7.8181C18.741 7.96129 18.8548 8.13002 19.0375 8.34207C19.1636 8.48852 19.2937 8.6241 19.4383 8.77476C19.5103 8.84981 19.5859 8.92861 19.6664 9.01435C19.8893 9.25179 20.1378 9.53118 20.3298 9.84199C20.5249 10.1578 20.6875 10.5468 20.6875 11C20.6875 11.4532 20.5249 11.8422 20.3298 12.1581C20.1378 12.4689 19.8893 12.7483 19.6664 12.9857C19.5859 13.0714 19.5103 13.1502 19.4383 13.2253C19.2937 13.3759 19.1636 13.5115 19.0375 13.658C18.8547 13.87 18.741 14.0387 18.6817 14.1819C18.628 14.3117 18.592 14.501 18.574 14.7781C18.5621 14.961 18.5596 15.1356 18.5568 15.33C18.5551 15.4437 18.5533 15.5641 18.5496 15.697C18.5323 16.3043 18.4819 17.2183 17.8501 17.8501C17.2183 18.4819 16.3043 18.5323 15.697 18.5496C15.5641 18.5534 15.4437 18.5551 15.33 18.5568C15.1356 18.5596 14.961 18.5621 14.7781 18.574C14.501 18.592 14.3117 18.628 14.1819 18.6817C14.0387 18.741 13.87 18.8548 13.6579 19.0375C13.5115 19.1636 13.3759 19.2937 13.2253 19.4383C13.1502 19.5103 13.0714 19.5859 12.9856 19.6664C12.7482 19.8893 12.4688 20.1378 12.158 20.3298C11.8422 20.5249 11.4532 20.6875 11 20.6875C10.5468 20.6875 10.1578 20.5249 9.84193 20.3298C9.53113 20.1378 9.25174 19.8893 9.01431 19.6664C8.92857 19.5859 8.84978 19.5103 8.77473 19.4383C8.62407 19.2937 8.48849 19.1636 8.34204 19.0375C8.13 18.8547 7.96127 18.741 7.81809 18.6817C7.68833 18.628 7.49904 18.592 7.22189 18.574C7.039 18.5621 6.86444 18.5596 6.66995 18.5568C6.55631 18.5551 6.43587 18.5533 6.30298 18.5496C5.69569 18.5323 4.78166 18.4819 4.1499 17.8501C3.51814 17.2183 3.46766 16.3043 3.45042 15.697C3.44665 15.5641 3.4449 15.4437 3.44324 15.3301C3.44041 15.1356 3.43787 14.961 3.426 14.7781C3.40801 14.501 3.37195 14.3117 3.31826 14.1819C3.25902 14.0387 3.14524 13.87 2.96253 13.6579C2.83636 13.5115 2.70627 13.3759 2.56172 13.2253C2.4897 13.1502 2.4141 13.0714 2.33359 12.9856C2.11068 12.7482 1.8622 12.4688 1.67022 12.158C1.47512 11.8422 1.3125 11.4532 1.3125 11C1.3125 10.5468 1.47513 10.1578 1.67022 9.84193C1.86221 9.53113 2.11069 9.25174 2.3336 9.01431C2.4141 8.92856 2.48971 8.84977 2.56172 8.77471C2.70628 8.62406 2.83637 8.48848 2.96255 8.34204C3.14525 8.13 3.25903 7.96127 3.31827 7.81809C3.37196 7.68833 3.40801 7.49904 3.426 7.22189C3.43788 7.039 3.44042 6.86443 3.44325 6.66995C3.4449 6.55631 3.44665 6.43586 3.45042 6.30298C3.46766 5.69569 3.51814 4.78166 4.1499 4.1499C4.78166 3.51814 5.69569 3.46766 6.30299 3.45042C6.43587 3.44665 6.55631 3.4449 6.66995 3.44324C6.86444 3.44041 7.039 3.43787 7.22189 3.426C7.49904 3.40801 7.68834 3.37195 7.8181 3.31826L8.10484 4.01128L7.8181 3.31826C7.96129 3.25902 8.13002 3.14524 8.34207 2.96253C8.48851 2.83636 8.6241 2.70627 8.77475 2.56171C8.84981 2.4897 8.92861 2.41409 9.01435 2.33359C9.25179 2.11068 9.53118 1.8622 9.84199 1.67022Z" fill="#374957"/>
<path fill-rule="evenodd" clip-rule="evenodd" d="M15.3238 8.41965C15.6098 8.71927 15.5987 9.19401 15.2991 9.48002L10.2574 14.2925C9.96759 14.5692 9.51151 14.5692 9.22169 14.2925L6.70089 11.8863C6.40127 11.6003 6.39023 11.1255 6.67624 10.8259C6.96224 10.5263 7.43699 10.5152 7.73661 10.8012L9.73956 12.7132L14.2634 8.39498C14.563 8.10898 15.0378 8.12002 15.3238 8.41965Z" fill="#374957"/>
</svg>
