<?xml version="1.0" encoding="utf-8"?>
<!-- Generator: Adobe Illustrator 26.4.1, SVG Export Plug-In . SVG Version: 6.00 Build 0)  -->
<svg version="1.1" id="Layer_1" xmlns="http://www.w3.org/2000/svg" xmlns:xlink="http://www.w3.org/1999/xlink" x="0px" y="0px"
	 viewBox="0 0 22 22" style="enable-background:new 0 0 22 22;" xml:space="preserve">
<style type="text/css">
	.st0{fill:#374957;}
</style>
<path class="st0" d="M3.4,20.6c-0.2,0-0.4,0-0.6-0.1c-0.2-0.1-0.5-0.3-0.6-0.5C2.1,19.7,2,19.4,2,19.1V5.5c0-0.4,0.1-0.7,0.4-1
	c0.3-0.3,0.6-0.4,1-0.4h15.1c0.4,0,0.7,0.1,1,0.4c0.3,0.3,0.4,0.6,0.4,1v11c0,0.4-0.2,0.7-0.4,1c-0.3,0.3-0.6,0.4-1,0.4H7.1
	l-2.8,2.3c-0.2,0.2-0.5,0.3-0.7,0.3C3.6,20.6,3.5,20.6,3.4,20.6z M18.5,5.5L3.4,5.6L3.5,19l2.7-2.2c0.3-0.2,0.6-0.3,0.9-0.3h11.5
	L18.5,5.5z M7.1,17.9L7.1,17.9L7.1,17.9L7.1,17.9z M6.6,17.3L6.6,17.3L6.6,17.3z M11,12c0.6,0,1-0.5,1-1s-0.5-1-1-1s-1,0.5-1,1
	S10.4,12,11,12z M6.9,12c0.6,0,1-0.5,1-1s-0.5-1-1-1s-1,0.5-1,1S6.3,12,6.9,12z M15.1,12c0.6,0,1-0.5,1-1s-0.5-1-1-1s-1,0.5-1,1
	S14.6,12,15.1,12z"/>
</svg>
