<svg width="20" height="20" viewBox="0 0 20 20" fill="none" xmlns="http://www.w3.org/2000/svg">
<path fill-rule="evenodd" clip-rule="evenodd" d="M15.2145 9.07945C15.6928 8.80331 16.3044 8.96718 16.5805 9.44548L18.3626 12.532C18.6387 13.0103 18.4748 13.6219 17.9965 13.8981C17.5183 14.1742 16.9067 14.0103 16.6305 13.532L14.8485 10.4455C14.5724 9.96718 14.7362 9.35559 15.2145 9.07945Z" fill="#577084"/>
<path fill-rule="evenodd" clip-rule="evenodd" d="M11.8706 10.6762C12.4145 10.5803 12.9332 10.9434 13.0291 11.4873L13.5848 14.6392C13.6807 15.1831 13.3176 15.7017 12.7737 15.7976C12.2298 15.8936 11.7111 15.5304 11.6152 14.9865L11.0595 11.8346C10.9636 11.2907 11.3267 10.7721 11.8706 10.6762Z" fill="#577084"/>
<path fill-rule="evenodd" clip-rule="evenodd" d="M8.12208 10.6753C8.66597 10.7713 9.02914 11.2899 8.93324 11.8338L8.37739 14.9862C8.28148 15.5301 7.76282 15.8933 7.21893 15.7974C6.67504 15.7014 6.31187 15.1828 6.40777 14.6389L6.96362 11.4865C7.05952 10.9426 7.57818 10.5794 8.12208 10.6753Z" fill="#577084"/>
<path fill-rule="evenodd" clip-rule="evenodd" d="M4.78084 9.07701C5.25913 9.35315 5.42301 9.96474 5.14687 10.443L3.35626 13.5445C3.08012 14.0227 2.46853 14.1866 1.99023 13.9105C1.51194 13.6343 1.34807 13.0227 1.62421 12.5445L3.41482 9.44303C3.69096 8.96474 4.30255 8.80087 4.78084 9.07701Z" fill="#577084"/>
<path fill-rule="evenodd" clip-rule="evenodd" d="M1.87157 7.41549C2.30118 7.06842 2.9308 7.13533 3.27787 7.56493C4.48112 9.05431 6.6308 10.875 10 10.875C13.3693 10.875 15.519 9.05432 16.7222 7.56495C17.0693 7.13534 17.6989 7.06844 18.1285 7.41551C18.5581 7.76258 18.625 8.3922 18.2779 8.82181C16.8542 10.5841 14.188 12.875 10 12.875C5.81203 12.875 3.14584 10.584 1.72213 8.82179C1.37506 8.39218 1.44197 7.76256 1.87157 7.41549Z" fill="#577084"/>
</svg>
