<svg width="880" height="880" viewBox="0 0 880 880" fill="none" xmlns="http://www.w3.org/2000/svg">
<path fill-rule="evenodd" clip-rule="evenodd" d="M108.096 116.765C121.114 103.747 142.219 103.747 155.237 116.765L755.237 716.765C768.254 729.782 768.254 750.888 755.237 763.905C742.219 776.923 721.114 776.923 708.096 763.905L108.096 163.905C95.0789 150.888 95.0789 129.782 108.096 116.765Z" fill="black"/>
<path fill-rule="evenodd" clip-rule="evenodd" d="M443.076 109.015C456.239 113.81 465 126.325 465 140.335V740.335C465 753.817 456.879 765.972 444.423 771.131C431.967 776.29 417.63 773.438 408.096 763.905L251.193 607.002H98.3333C79.9238 607.002 65 592.078 65 573.668V340.335C65 321.926 79.9238 307.002 98.3333 307.002H298.333C316.743 307.002 331.667 321.926 331.667 340.335C331.667 358.744 316.743 373.668 298.333 373.668H131.667V540.335H265C273.841 540.335 282.319 543.847 288.57 550.098L398.333 659.861V231.842L387.19 245.108C375.349 259.204 354.323 261.033 340.227 249.192C326.131 237.351 324.302 216.325 336.143 202.229L406.143 118.895C415.154 108.168 429.912 104.22 443.076 109.015Z" fill="black"/>
<path fill-rule="evenodd" clip-rule="evenodd" d="M515 173.668C515 155.259 529.924 140.335 548.333 140.335C700.15 140.335 814.98 275.519 815 433.627C815 433.641 815 433.654 815 433.668H781.667L815 433.598C815 433.608 815 433.617 815 433.627C815.11 488.442 800.99 542.347 774.02 590.069C764.962 606.096 744.626 611.746 728.599 602.688C712.572 593.63 706.923 573.295 715.98 557.268C737.276 519.586 748.424 477.021 748.333 433.738L748.333 433.668C748.333 305.127 656.503 207.002 548.333 207.002C529.924 207.002 515 192.078 515 173.668Z" fill="black"/>
<path fill-rule="evenodd" clip-rule="evenodd" d="M675.254 670.678C686.11 685.546 682.858 706.399 667.991 717.255C633.337 742.56 591.666 756.45 548.76 756.999C530.352 757.235 515.238 742.503 515.003 724.095C514.767 705.687 529.499 690.573 547.907 690.338C576.972 689.966 605.201 680.556 628.676 663.415C643.544 652.558 664.397 655.81 675.254 670.678Z" fill="black"/>
<path fill-rule="evenodd" clip-rule="evenodd" d="M547.184 307.021C564.629 306.419 582.017 309.337 598.31 315.6C614.604 321.863 629.469 331.343 642.019 343.476C654.57 355.608 664.549 370.143 671.36 386.215C678.109 402.138 681.612 419.246 681.666 436.536C682.087 453.574 678.973 470.515 672.517 486.292C665.545 503.33 646.081 511.491 629.043 504.519C612.005 497.547 603.844 478.083 610.816 461.044C613.811 453.726 615.241 445.862 615.014 437.958C615.004 437.633 615 437.307 615 436.982C615.005 428.478 613.297 420.06 609.979 412.23C606.66 404.4 601.799 397.319 595.685 391.408C589.57 385.498 582.328 380.879 574.39 377.828C566.453 374.777 557.982 373.355 549.483 373.648C531.084 374.283 515.655 359.883 515.02 341.484C514.385 323.086 528.785 307.656 547.184 307.021Z" fill="black"/>
</svg>
