<svg width="880" height="880" viewBox="0 0 880 880" fill="none" xmlns="http://www.w3.org/2000/svg">
<path fill-rule="evenodd" clip-rule="evenodd" d="M441.569 110.977C454.994 115.717 463.936 128.149 463.936 142.072V737.337C463.936 750.713 455.674 762.771 443.002 767.89C430.331 773.008 415.745 770.179 406.046 760.721L246.422 605.056H90.9114C72.1826 605.056 57 590.25 57 571.985V340.494C57 322.229 72.1826 307.423 90.9114 307.423H244.585L403.974 120.901C413.114 110.205 428.145 106.237 441.569 110.977ZM396.114 233.414L286.52 361.665C280.077 369.204 270.532 373.564 260.468 373.564H124.823L124.823 538.915H260.468C269.462 538.915 278.088 542.399 284.447 548.601L396.114 657.498V233.414Z" fill="black"/>
<path fill-rule="evenodd" clip-rule="evenodd" d="M518.223 190.332C518.985 172.083 534.773 157.891 553.486 158.635C627.465 161.573 697.278 192.82 747.797 245.606C798.099 298.163 825.239 367.859 823.409 439.705C825.239 511.55 798.099 581.246 747.797 633.804C697.278 686.589 627.465 717.836 553.486 720.775C534.773 721.518 518.985 707.327 518.223 689.077C517.461 670.828 532.013 655.432 550.726 654.689C606.879 652.458 659.869 628.741 698.215 588.675C736.561 548.609 757.174 495.422 755.588 440.638C755.57 440.016 755.57 439.393 755.588 438.771C757.174 383.987 736.561 330.8 698.215 290.734C659.869 250.669 606.879 226.951 550.726 224.72C532.013 223.977 517.461 208.581 518.223 190.332Z" fill="black"/>
<path fill-rule="evenodd" clip-rule="evenodd" d="M518.195 340.494C518.195 322.229 533.377 307.423 552.106 307.423C588.081 307.423 622.583 321.36 648.022 346.168C673.46 370.975 687.751 404.621 687.751 439.704C687.751 474.788 673.46 508.434 648.022 533.241C622.583 558.049 588.081 571.986 552.106 571.986C533.377 571.986 518.195 557.179 518.195 538.915C518.195 520.651 533.377 505.845 552.106 505.845C570.094 505.845 587.345 498.877 600.064 486.473C612.783 474.069 619.929 457.246 619.929 439.704C619.929 422.163 612.783 405.34 600.064 392.936C587.345 380.532 570.094 373.564 552.106 373.564C533.377 373.564 518.195 358.758 518.195 340.494Z" fill="black"/>
</svg>
