<svg width="71" height="72" viewBox="0 0 71 72" fill="none" xmlns="http://www.w3.org/2000/svg">
<path fill-rule="evenodd" clip-rule="evenodd" d="M0.0168967 19.0672C0.117991 18.5242 0.640095 18.166 1.18305 18.2671C15.6636 20.9633 25.2083 25.5924 31.3378 31.1058C37.4841 36.6344 40.1327 42.9955 40.9131 49.0081C41.6906 54.9974 40.6127 60.6144 39.357 64.7115C38.7277 66.7645 38.05 68.448 37.528 69.6216C37.2669 70.2086 37.0443 70.669 36.8856 70.985C36.8062 71.1431 36.7428 71.2651 36.6985 71.349C36.6764 71.3909 36.659 71.4233 36.6468 71.4459L36.6324 71.4724L36.6282 71.4801L36.6268 71.4825C36.6264 71.4833 36.626 71.484 35.751 71C35.0067 71.6679 35.0062 71.6673 35.0056 71.6667L35.0043 71.6652L35.0011 71.6616L34.9922 71.6515L34.9647 71.6197C34.9422 71.5934 34.9115 71.5568 34.8735 71.51C34.7974 71.4163 34.6919 71.2816 34.5639 71.1056C34.3077 70.7536 33.9611 70.2362 33.5786 69.552C32.8134 68.1831 31.9054 66.1474 31.2931 63.4359C30.0654 57.9987 30.0437 49.9197 34.6256 39.147C34.7283 38.9058 34.9145 38.7257 35.1363 38.6262C33.8284 36.5499 32.1437 34.5208 30.0003 32.5928C24.2275 27.4002 15.0643 22.8861 0.816953 20.2333C0.274 20.1323 -0.0841975 19.6101 0.0168967 19.0672ZM36.2197 40.5174C32.0385 50.6358 32.1372 58.0938 33.244 62.9954C33.8096 65.5004 34.6428 67.3569 35.3243 68.5761C35.418 68.7436 35.5088 68.8991 35.5956 69.0426C35.6298 68.9673 35.6648 68.8893 35.7007 68.8087C36.1959 67.6954 36.8432 66.0882 37.4448 64.1254C38.6507 60.191 39.6581 54.8764 38.9298 49.2655C38.5561 46.3866 37.725 43.4226 36.2197 40.5174ZM35.751 71L35.0067 71.6679C35.2229 71.9088 35.5422 72.0301 35.8638 71.9936C36.1854 71.9571 36.4694 71.7672 36.626 71.484L35.751 71Z" fill="white"/>
<path fill-rule="evenodd" clip-rule="evenodd" d="M70.997 19.2124C71.0361 19.7633 70.6212 20.2416 70.0703 20.2807C56.201 21.2644 46.4438 25.5116 40.8087 32.4998C40.462 32.9298 39.8325 32.9973 39.4026 32.6506C38.9726 32.3039 38.9052 31.6744 39.2518 31.2444C45.3713 23.6554 55.7664 19.2902 69.9288 18.2857C70.4797 18.2466 70.958 18.6615 70.997 19.2124Z" fill="white"/>
<path fill-rule="evenodd" clip-rule="evenodd" d="M32.6502 6.15573C28.8569 7.72871 27.0544 12.0831 28.6264 15.8824C30.1984 19.6817 34.5485 21.4847 38.3418 19.9117C42.1351 18.3388 43.9375 13.9844 42.3656 10.1851C40.7936 6.38577 36.4435 4.58274 32.6502 6.15573ZM26.779 16.6485C24.7853 11.8299 27.0706 6.30433 31.8856 4.30767C36.7006 2.311 42.2193 4.60041 44.213 9.41899C46.2067 14.2376 43.9214 19.7631 39.1064 21.7598C34.2914 23.7565 28.7726 21.4671 26.779 16.6485Z" fill="white"/>
</svg>
