<svg width="65.000000" height="42.000000" viewBox="0 0 65 42" fill="none" xmlns="http://www.w3.org/2000/svg" xmlns:xlink="http://www.w3.org/1999/xlink">
	<desc>
			Created with Pixso.
	</desc>
	<defs>
		<linearGradient x1="0.000008" y1="42.000000" x2="65.000015" y2="0.000015" id="paint_linear_4501_6765_0" gradientUnits="userSpaceOnUse">
			<stop stop-color="#009FF5"/>
			<stop offset="1.000000" stop-color="#59CA56"/>
		</linearGradient>
	</defs>
	<path id="Vector" d="M59.81 17.25C58.03 17.66 57.03 18.93 56.75 19.32C58.61 13.58 57.8 10.77 56.58 9.26C55.73 8.2 54.21 7.21 53.28 4.9C52.87 3.87 52.65 2.77 52.62 1.67C48.14 1.67 45.96 5.38 45.96 5.38C45.73 2.99 42.16 0.8 42.16 0.8C38.79 2.28 37.67 7.27 37.67 7.27C37.22 5.35 36.29 3.57 34.97 2.09C34.25 1.28 33.41 0.58 32.5 0C31.57 0.58 30.73 1.28 30 2.09C28.69 3.57 27.76 5.35 27.3 7.27C27.3 7.27 26.2 2.28 22.82 0.79C22.82 0.79 19.25 2.99 19.01 5.38C19.01 5.38 16.84 1.67 12.36 1.67C12.33 2.77 12.11 3.87 11.7 4.9C10.78 7.21 9.25 8.2 8.4 9.26C7.18 10.77 6.38 13.58 8.23 19.32C7.95 18.93 6.95 17.66 5.17 17.25C2.28 16.6 0.12 19.03 0 18.96C6.09 22.16 6.71 24.23 7.75 28.08C8.55 31.79 10.85 34.2 12.11 35.27C15.25 37.95 20.46 41.82 32.5 42C44.52 41.82 49.74 37.95 52.88 35.27C54.14 34.2 56.44 31.79 57.24 28.08C58.28 24.23 58.9 22.16 65 18.96C64.86 19.03 62.71 16.6 59.81 17.25ZM52.9 22.14C52.16 24.48 52.78 25.16 52.17 26.95C51.67 28.44 51.17 28.21 49.6 30.57C48.06 32.9 48.36 33.42 46.98 35.61C46.71 36.04 46.46 36.44 46.23 36.79C46.5 34.01 46.85 32.55 47.18 31.78C47.26 31.59 47.37 31.41 47.5 31.25C47.92 30.6 48.26 30.24 48.57 29.67C48.63 29.55 48.7 29.41 48.76 29.26C48.79 29.2 48.81 29.14 48.84 29.07C48.85 29.04 48.86 29.01 48.88 28.97C49.49 27.28 48.92 26.65 49.4 24.28C49.73 22.67 50.16 22.09 49.79 21.68C49.32 21.14 47.95 21.39 47.03 21.94C45.7 22.73 45.22 24.19 44.73 25.72C44.67 25.9 44.62 26.08 44.57 26.24C44.56 26.27 44.55 26.31 44.55 26.34C44.48 26.6 44.43 26.82 44.39 27.02C44.39 27.06 44.38 27.11 44.37 27.15C44.37 27.17 44.36 27.19 44.36 27.22C44.35 27.31 44.33 27.4 44.32 27.48L44.32 27.55C44.32 27.58 44.31 27.62 44.31 27.65C44.3 27.69 44.31 27.7 44.3 27.72C44.3 27.76 44.3 27.79 44.29 27.83C44.28 27.87 44.29 27.87 44.29 27.89C44.28 28.08 44.27 28.25 44.24 28.41C44.24 28.43 44.24 28.44 44.24 28.46C44.23 28.48 44.24 28.49 44.23 28.51C44.22 28.53 44.22 28.56 44.21 28.58C44.21 28.61 44.2 28.63 44.19 28.66L44.18 28.72L44.18 28.73C44.18 28.74 44.18 28.74 44.18 28.75C44.12 28.92 44.05 29.08 43.95 29.23C43.38 30.21 39.58 31.46 38.23 32.03C35.99 32.98 34.08 34.86 33.15 36.92C33.03 37.19 32.92 37.46 32.83 37.74C32.66 38.29 32.55 38.84 32.5 39.41C32.44 38.84 32.32 38.29 32.16 37.75C32.07 37.47 31.96 37.19 31.84 36.92C30.91 34.86 29 32.98 26.76 32.04C25.41 31.46 21.61 30.22 21.03 29.23C20.94 29.08 20.87 28.92 20.82 28.75C20.81 28.75 20.81 28.74 20.82 28.74C20.81 28.73 20.81 28.73 20.82 28.73L20.81 28.7C20.8 28.68 20.79 28.65 20.79 28.62C20.77 28.57 20.76 28.52 20.75 28.47C20.75 28.45 20.75 28.43 20.75 28.41C20.72 28.25 20.71 28.08 20.7 27.89C20.7 27.85 20.69 27.81 20.69 27.77C20.69 27.76 20.69 27.74 20.69 27.72C20.69 27.71 20.69 27.68 20.68 27.66C20.66 27.46 20.63 27.23 20.58 26.95C20.57 26.89 20.56 26.82 20.54 26.75C20.51 26.62 20.48 26.49 20.44 26.35L20.42 26.25C20.42 26.24 20.41 26.23 20.41 26.22C20.4 26.19 20.39 26.15 20.38 26.12C20.35 26 20.3 25.86 20.26 25.72C19.77 24.19 19.29 22.73 17.96 21.94C17.04 21.4 15.67 21.14 15.2 21.68C14.83 22.1 15.27 22.67 15.59 24.29C16.07 26.66 15.5 27.28 16.12 28.98C16.2 29.21 16.3 29.43 16.42 29.65C16.72 30.24 17.07 30.59 17.5 31.26C17.63 31.42 17.74 31.6 17.82 31.79C19.05 34.02 19.1 36.25 19.18 37.42C19.05 37.22 18.91 37.02 18.77 36.8C18.54 36.44 18.3 36.05 18.02 35.62C16.64 33.43 16.94 32.91 15.4 30.58C13.84 28.22 13.33 28.44 12.83 26.96C12.22 25.16 12.84 24.48 12.1 22.14C11.88 21.49 11.76 20.81 11.75 20.13C11.75 19.54 11.84 18.95 12.01 18.39C12.46 16.78 12.06 16.08 12.23 13.74C12.47 10.45 13.32 10.74 13.41 7.75C13.45 6.46 13.32 5.49 13.94 5.08C14.49 4.73 15.42 4.93 15.98 5.41C16.38 5.75 16.84 6.46 16.57 9.58C16.39 11.71 16.09 12.43 15.92 13.8C15.76 15.09 15.71 16.96 16.31 19.34C17.35 17.32 18.4 15.31 19.44 13.29C20.11 11.53 20.77 9.77 21.44 8C21.65 6.62 22.01 5.05 22.59 5.01C22.67 5.01 22.94 5.01 23.35 5.73C24.34 7.49 23.93 9.68 23.55 11.35C23 13.71 22.28 16.03 21.4 18.29C21.37 18.34 21.34 18.4 21.31 18.45L21.8 18.17C22.89 17.54 23.66 17.09 24.56 16.47C26.32 15.25 27.75 13.92 28.57 13.15C30.33 11.5 30.96 10.66 31.47 10.87C31.92 11.06 31.98 11.99 31.93 12.56C31.81 13.83 31.03 14.29 29.03 16.53C27.35 18.43 27.13 18.96 25.81 20.05C25.26 20.5 24.68 20.92 24.07 21.3C25.52 21.09 26.92 20.6 28.18 19.85C30.18 18.65 31.42 16.97 31.96 17.29C32.11 17.38 32.23 17.63 32.12 18.36C31.8 19 31.38 19.6 30.87 20.12C30.27 20.73 29.97 20.81 29.23 21.42C27.8 22.6 27.85 23.18 27.05 23.67L27.09 23.71C27.48 24.06 27.82 24.47 28.1 24.91C28.38 25.36 28.48 25.68 29.3 28.21C29.3 28.22 29.38 28.44 29.38 28.45C29.53 29.12 29.8 29.76 30.18 30.33C30.65 31.06 31.2 31.49 31.7 32.57C31.79 32.76 31.86 32.94 31.93 33.13C32.17 33.72 32.35 34.33 32.5 34.94C32.64 34.33 32.82 33.72 33.05 33.13C33.12 32.94 33.2 32.76 33.28 32.57C33.78 31.49 34.32 31.06 34.8 30.33C35.18 29.76 35.45 29.12 35.6 28.45C35.6 28.44 35.67 28.22 35.68 28.21C36.5 25.68 36.6 25.36 36.88 24.91C37.16 24.46 37.51 24.06 37.91 23.71C37.04 23.21 37.14 22.63 35.66 21.42C34.92 20.81 34.62 20.73 34.02 20.12C33.51 19.6 33.09 19 32.77 18.36C32.66 17.63 32.78 17.38 32.93 17.29C33.47 16.97 34.71 18.65 36.72 19.85C37.98 20.6 39.37 21.09 40.83 21.29C40.22 20.92 39.64 20.5 39.09 20.05C37.76 18.96 37.54 18.43 35.86 16.53C33.87 14.29 33.09 13.83 32.97 12.56C32.91 11.99 32.97 11.06 33.43 10.87C33.93 10.66 34.57 11.5 36.32 13.15C37.15 13.92 38.58 15.25 40.34 16.47C41.23 17.09 42 17.54 43.09 18.17C43.32 18.3 43.54 18.42 43.74 18.54L43.6 18.29C42.72 16.03 42 13.71 41.45 11.35C41.07 9.68 40.65 7.48 41.65 5.72C42.05 5.01 42.33 5 42.42 5.01C42.99 5.05 43.35 6.62 43.56 8L45.56 13.29C46.6 15.31 47.65 17.32 48.69 19.34C49.29 16.96 49.24 15.09 49.09 13.8C48.91 12.42 48.61 11.7 48.43 9.57C48.16 6.46 48.62 5.75 49.02 5.41C49.58 4.93 50.51 4.72 51.06 5.08C51.68 5.49 51.55 6.46 51.58 7.75C51.67 10.74 52.53 10.45 52.77 13.74C52.94 16.08 52.54 16.77 52.99 18.39C53.16 18.95 53.25 19.54 53.25 20.12C53.24 20.81 53.12 21.49 52.9 22.14Z" fill="url(#paint_linear_4501_6765_0)" fill-opacity="1.000000" fill-rule="nonzero"/>
</svg>
