<svg width="48" height="48" viewBox="0 0 48 48" fill="none" xmlns="http://www.w3.org/2000/svg">
<path fill-rule="evenodd" clip-rule="evenodd" d="M46 24C46 11.8497 36.1503 2 24 2C11.8497 2 2 11.8497 2 24C2 36.1503 11.8497 46 24 46C36.1503 46 46 36.1503 46 24ZM24 2.76562e-06C37.2548 2.18624e-06 48 10.7452 48 24C48 37.2548 37.2548 48 24 48C10.7452 48 -4.69686e-07 37.2548 -1.04907e-06 24C-1.62846e-06 10.7452 10.7452 3.34501e-06 24 2.76562e-06Z" fill="#FF7043"/>
<path d="M12 20C12 18.894 12.894 18 14 18C15.106 18 16 18.894 16 20C16 21.106 15.106 22 14 22C12.894 22 12 21.106 12 20Z" fill="#FF7043"/>
<path d="M32 20C32 18.894 32.894 18 34 18C35.106 18 36 18.894 36 20C36 21.106 35.106 22 34 22C32.894 22 32 21.106 32 20Z" fill="#FF7043"/>
<path fill-rule="evenodd" clip-rule="evenodd" d="M24.0022 29C19.4701 29 15.5931 31.6497 13.9132 35.4081C13.6878 35.9123 13.0964 36.1383 12.5922 35.913C12.088 35.6876 11.8619 35.0962 12.0873 34.5919C14.0889 30.1137 18.6809 27 24.0022 27C29.3233 27 33.9115 30.1098 35.9132 34.5882C36.1386 35.0924 35.9125 35.6839 35.4083 35.9092C34.9041 36.1346 34.3127 35.9085 34.0873 35.4043C32.4075 31.6461 28.5344 29 24.0022 29Z" fill="#FF7043"/>
<path fill-rule="evenodd" clip-rule="evenodd" d="M10.1058 12.553C10.3528 12.059 10.9535 11.8588 11.4474 12.1058L17.4474 15.1058C17.9414 15.3528 18.1416 15.9535 17.8946 16.4474C17.6477 16.9414 17.047 17.1416 16.553 16.8946L10.553 13.8946C10.059 13.6477 9.8588 13.047 10.1058 12.553Z" fill="#FF7043"/>
<path fill-rule="evenodd" clip-rule="evenodd" d="M37.8946 12.553C38.1416 13.047 37.9414 13.6477 37.4474 13.8946L31.4474 16.8946C30.9535 17.1416 30.3528 16.9414 30.1058 16.4474C29.8588 15.9535 30.059 15.3528 30.553 15.1058L36.553 12.1058C37.047 11.8588 37.6477 12.059 37.8946 12.553Z" fill="#FF7043"/>
</svg>
