<svg width="48" height="48" viewBox="0 0 48 48" fill="none" xmlns="http://www.w3.org/2000/svg">
<g clip-path="url(#clip0_3795_8132)">
<circle cx="24" cy="24" r="24" fill="url(#paint0_linear_3795_8132)"/>
<path fill-rule="evenodd" clip-rule="evenodd" d="M38.1329 6.2041L35.4499 8.88707L36.3735 9.81064L39.0564 7.12767L38.1329 6.2041ZM9.96091 7.15891L10.8845 6.23534L13.549 8.89984L12.6254 9.8234L9.96091 7.15891ZM21.2243 14.1268C21.2243 16.1383 22.8374 17.7709 24.8161 17.7709C26.7949 17.7709 28.408 16.1383 28.408 14.1268V12.9317C28.408 10.9203 26.7949 9.28766 24.8161 9.28766C22.8374 9.28766 21.2243 10.9203 21.2243 12.9317V14.1268ZM22.5304 12.9252C22.5304 11.6387 23.5557 10.5872 24.8161 10.5872C26.0765 10.5872 27.1019 11.6321 27.1019 12.9252V14.1203C27.1019 15.4068 26.0765 16.4583 24.8161 16.4583C23.5557 16.4583 22.5304 15.4134 22.5304 14.1203V12.9252ZM24.8315 30.3555H25.4694C25.4694 30.029 25.2277 29.7547 24.9012 29.709C24.5747 29.6632 24.2677 29.8657 24.1828 30.1857L24.1872 30.1869L21.0808 41.4837V41.4983L21.0743 41.4967C21.009 41.7579 20.7869 41.9277 20.5387 41.9277H17.653C17.6701 41.5201 17.9515 41.1737 18.3249 41.0788L19.1119 40.8771L19.1151 40.8894L19.4939 40.7914L19.5853 40.4126L18.9588 40.2576L18.9553 40.2437L19.5853 40.3996L22.4427 28.7939L22.4457 28.7947L22.4653 28.7163V28.6379H21.865L21.8122 28.6249H22.4587V24.6673C22.4587 23.6224 22.0212 22.6167 21.2506 21.9114L14.2302 15.4983C14.1192 15.3939 14.0408 15.2436 14.0408 15.0739C14.0408 14.7473 14.2955 14.5057 14.5894 14.5057C14.7265 14.5057 14.8571 14.5579 14.9551 14.6494L19.5983 18.8943C20.382 19.6061 21.3943 20.0045 22.4522 20.0045H27.1804C28.2383 20.0045 29.2506 19.6061 30.0343 18.8943L34.6775 14.6494C34.7755 14.5579 34.8996 14.5057 35.0432 14.5057C35.3371 14.5057 35.5918 14.7473 35.5918 15.0739C35.5918 15.2436 35.52 15.3939 35.4024 15.4983L28.3755 21.9245C27.6049 22.6298 27.1673 23.629 27.1673 24.6804V40.1383H27.1739V40.6085L27.6121 40.7568L27.6114 40.7588L28.2775 40.9808C28.6772 41.114 28.9597 41.4937 28.9756 41.9343H26.0179C25.7241 41.9343 25.4694 41.6926 25.4694 41.3661V30.362H24.8552L24.8315 30.3555ZM29.2571 22.891L28.3755 21.931V21.9245L29.2571 22.891ZM33.7959 13.6828L29.1526 17.9277C28.6106 18.4241 27.9053 18.6983 27.1804 18.6983H22.4522C21.7273 18.6983 21.022 18.4241 20.48 17.9277L15.8367 13.6828L15.8335 13.6864C15.5073 13.3877 15.071 13.2061 14.5894 13.2061V13.1996C13.551 13.1996 12.7347 14.0485 12.7347 15.0739C12.7347 15.6224 12.9698 16.1188 13.3485 16.4649L20.3755 22.891L20.379 22.8872C20.8691 23.3438 21.1526 23.9862 21.1526 24.6673V28.5742L18.4115 39.7076L18.0049 39.8118C17.0253 40.06 16.3461 40.9547 16.3461 41.9669C16.3461 42.6526 16.9012 43.2339 17.6 43.2339H20.5387C21.3944 43.2339 22.1278 42.6483 22.3366 41.8285L22.3412 41.8298L24.1632 35.2038V41.3661C24.1632 42.3914 24.9861 43.2404 26.0179 43.2404H29.0285C29.7339 43.2404 30.2824 42.6657 30.2824 41.9734C30.2824 40.9677 29.649 40.0665 28.6955 39.7465L28.4734 39.6725V24.6804C28.4734 23.9947 28.7608 23.3481 29.2571 22.891L36.2841 16.4649C36.6628 16.1188 36.8979 15.6224 36.8979 15.0739C36.8979 14.0485 36.0751 13.1996 35.0432 13.1996C34.5665 13.1996 34.129 13.3824 33.7959 13.6828ZM33.7959 13.6828L34.6775 14.6428V14.6494L33.7959 13.6828ZM30.0343 18.8943L29.5902 18.411H29.5934H29.5967L30.0343 18.8943ZM14.2302 15.4983L13.7926 15.9816H13.7894H13.7861L14.2302 15.4983ZM21.0808 41.4837L21.6206 41.6319L21.5147 41.6057L21.0808 41.4837ZM21.66 41.6465L21.7077 41.66H21.7143L21.66 41.6465ZM28.382 21.9245L28.8196 22.4077H28.8261L28.382 21.9245ZM10.1224 19.4624H6.85712V20.7685H10.1224V19.4624ZM12.6346 30.3913L9.94704 33.0789L10.8706 34.0024L13.5582 31.3149L12.6346 30.3913ZM38.857 19.4624H42.1223V20.7685H38.857V19.4624ZM35.3997 31.2998L36.3233 30.3762L38.997 33.0499L38.0734 33.9735L35.3997 31.2998Z" fill="url(#paint1_linear_3795_8132)" fill-opacity="0.9"/>
</g>
<defs>
<linearGradient id="paint0_linear_3795_8132" x1="24" y1="0" x2="24" y2="48" gradientUnits="userSpaceOnUse">
<stop stop-color="#E6F7E6"/>
<stop offset="1" stop-color="#E6F7E6" stop-opacity="0"/>
</linearGradient>
<linearGradient id="paint1_linear_3795_8132" x1="6.85712" y1="43.2404" x2="49.5139" y2="29.9777" gradientUnits="userSpaceOnUse">
<stop stop-color="#00476E"/>
<stop offset="1" stop-color="#398137"/>
</linearGradient>
<clipPath id="clip0_3795_8132">
<rect width="48" height="48" fill="white"/>
</clipPath>
</defs>
</svg>
