<svg width="100" height="100" viewBox="0 0 100 100" fill="none" xmlns="http://www.w3.org/2000/svg">
<circle cx="50" cy="50" r="50" fill="#009FF5"/>
<path d="M43.119 50.4089L40.286 45.6369C39.719 44.6799 40.021 43.4379 40.963 42.8619L44.953 40.4209" stroke="white" stroke-width="2" stroke-miterlimit="10"/>
<path d="M56.2664 72.5613L50.9814 63.6562" stroke="white" stroke-width="2" stroke-miterlimit="10"/>
<path d="M68.855 48.1162L76.141 60.3932C77.844 63.2622 76.934 66.9902 74.109 68.7192L63.877 74.9812" stroke="white" stroke-width="2" stroke-miterlimit="10"/>
<path d="M66.5146 44.1729L67.4776 45.7949" stroke="white" stroke-width="2" stroke-miterlimit="10"/>
<path d="M50.0713 37.2874L54.0193 34.8714C56.8443 33.1424 60.5153 34.0664 62.2183 36.9354L65.1613 41.8934" stroke="white" stroke-width="2" stroke-miterlimit="10"/>
<path d="M60 78C62.2091 78 64 76.2091 64 74C64 71.7909 62.2091 70 60 70C57.7909 70 56 71.7909 56 74C56 76.2091 57.7909 78 60 78Z" stroke="white" stroke-width="2" stroke-miterlimit="10"/>
<path d="M52.213 40.856L43.574 26.459C43.049 25.586 42.092 25 41 25C39.343 25 38 26.343 38 28C38 28.563 38.156 29.091 38.426 29.541L54.955 57.09" stroke="white" stroke-width="2" stroke-miterlimit="10"/>
<path d="M54.5902 44.8167L53.6572 43.2637" stroke="white" stroke-width="2" stroke-miterlimit="10"/>
<path d="M60.139 54.0659L56 47.1689" stroke="white" stroke-width="2" stroke-miterlimit="10"/>
<path d="M68.5078 65.1963L69.4598 66.7833" stroke="white" stroke-width="2" stroke-miterlimit="10"/>
<path d="M58.4534 66.7711L54.2854 59.8241C53.7174 58.8771 54.0234 57.6481 54.9714 57.0801L59.6294 54.2851C60.5764 53.7171 61.8054 54.0241 62.3734 54.9721L67.0434 62.7541" stroke="white" stroke-width="2" stroke-miterlimit="10"/>
<path d="M72 41H70V43H72V41Z" fill="white"/>
<path d="M74 37H72V39H74V37Z" fill="white"/>
<path d="M75 33H73V35H75V33Z" fill="white"/>
<path d="M72 25H70V27H72V25Z" fill="white"/>
<path d="M68 23H66V25H68V23Z" fill="white"/>
<path d="M74 29H72V31H74V29Z" fill="white"/>
<path d="M56 25H54V27H56V25Z" fill="white"/>
<path d="M60 23H58V25H60V23Z" fill="white"/>
<path d="M54 29H52V31H54V29Z" fill="white"/>
<path d="M64 22H62V24H64V22Z" fill="white"/>
<path d="M31 29H29V31H31V29Z" fill="white"/>
<path d="M35 31H33V33H35V31Z" fill="white"/>
<path d="M25 35H23V37H25V35Z" fill="white"/>
<path d="M37 35H35V37H37V35Z" fill="white"/>
<path d="M31 41H29V43H31V41Z" fill="white"/>
<path d="M27 39H25V41H27V39Z" fill="white"/>
<path d="M35 39H33V41H35V39Z" fill="white"/>
<path d="M27 31H25V33H27V31Z" fill="white"/>
<path d="M26.4785 53.764C26.8865 53.3 27.3245 52.864 27.7895 52.457" stroke="white" stroke-width="2" stroke-miterlimit="10"/>
<path d="M30.268 50.723C32.266 49.624 34.56 49 37 49C44.732 49 51 55.268 51 63C51 70.732 44.732 77 37 77C29.268 77 23 70.732 23 63C23 60.569 23.619 58.283 24.709 56.291" stroke="white" stroke-width="2" stroke-miterlimit="10"/>
<path d="M37 71C41.4183 71 45 67.4183 45 63C45 58.5817 41.4183 55 37 55C32.5817 55 29 58.5817 29 63C29 67.4183 32.5817 71 37 71Z" stroke="white" stroke-width="2" stroke-miterlimit="10"/>
<path d="M29 63H45" stroke="white" stroke-width="2" stroke-miterlimit="10"/>
<path d="M37 55C37 55 34 58.8571 34 63C34 68.1909 37 71 37 71" stroke="white" stroke-width="2" stroke-miterlimit="10"/>
<path d="M37 55C37 55 40 57.7623 40 63C40 67.3337 37 71 37 71" stroke="white" stroke-width="2" stroke-miterlimit="10"/>
</svg>
