<svg width="20" height="20" viewBox="0 0 20 20" fill="none" xmlns="http://www.w3.org/2000/svg">
<path d="M6.04307 15.7716L3.5272 17.8865C3.4361 17.9631 3.32502 18.0121 3.20703 18.0277C3.08904 18.0433 2.96904 18.0249 2.86115 17.9747C2.75326 17.9244 2.66196 17.8444 2.59799 17.744C2.53401 17.6437 2.50003 17.5271 2.50003 17.4081V5C2.50003 4.83424 2.56588 4.67527 2.68309 4.55806C2.8003 4.44085 2.95927 4.375 3.12503 4.375H16.875C17.0408 4.375 17.1998 4.44085 17.317 4.55806C17.4342 4.67527 17.5 4.83424 17.5 5V15C17.5 15.1658 17.4342 15.3247 17.317 15.4419C17.1998 15.5592 17.0408 15.625 16.875 15.625H6.44525C6.29811 15.625 6.1557 15.6769 6.04307 15.7716Z" stroke="#374957" stroke-width="1.5" stroke-linecap="round" stroke-linejoin="round"/>
<path d="M10 10.9375C10.5178 10.9375 10.9375 10.5178 10.9375 10C10.9375 9.48223 10.5178 9.0625 10 9.0625C9.48223 9.0625 9.0625 9.48223 9.0625 10C9.0625 10.5178 9.48223 10.9375 10 10.9375Z" fill="#374957"/>
<path d="M6.25 10.9375C6.76777 10.9375 7.1875 10.5178 7.1875 10C7.1875 9.48223 6.76777 9.0625 6.25 9.0625C5.73223 9.0625 5.3125 9.48223 5.3125 10C5.3125 10.5178 5.73223 10.9375 6.25 10.9375Z" fill="#374957"/>
<path d="M13.75 10.9375C14.2678 10.9375 14.6875 10.5178 14.6875 10C14.6875 9.48223 14.2678 9.0625 13.75 9.0625C13.2322 9.0625 12.8125 9.48223 12.8125 10C12.8125 10.5178 13.2322 10.9375 13.75 10.9375Z" fill="#374957"/>
</svg>
