<svg width="48" height="48" viewBox="0 0 48 48" fill="none" xmlns="http://www.w3.org/2000/svg">
<path fill-rule="evenodd" clip-rule="evenodd" d="M46 24C46 11.8497 36.1503 2 24 2C11.8497 2 2 11.8497 2 24C2 36.1503 11.8497 46 24 46C36.1503 46 46 36.1503 46 24ZM24 2.76562e-06C37.2548 2.18624e-06 48 10.7452 48 24C48 37.2548 37.2548 48 24 48C10.7452 48 -4.69686e-07 37.2548 -1.04907e-06 24C-1.62846e-06 10.7452 10.7452 3.34501e-06 24 2.76562e-06Z" fill="#FF7043"/>
<path fill-rule="evenodd" clip-rule="evenodd" d="M20.5743 26.0663C19.6211 27.4166 19 29.3346 19 31.5C19 33.6654 19.6211 35.5834 20.5743 36.9337C21.5294 38.2867 22.7552 39 24 39C25.2448 39 26.4706 38.2867 27.4257 36.9337C28.3789 35.5834 29 33.6654 29 31.5C29 29.3346 28.3789 27.4166 27.4257 26.0663C26.4706 24.7133 25.2448 24 24 24C22.7552 24 21.5294 24.7133 20.5743 26.0663ZM18.9404 24.9129C20.1569 23.1895 21.9311 22 24 22C26.0689 22 27.8431 23.1895 29.0596 24.9129C30.278 26.6389 31 28.971 31 31.5C31 34.029 30.278 36.3611 29.0596 38.0871C27.8431 39.8105 26.0689 41 24 41C21.9311 41 20.1569 39.8105 18.9404 38.0871C17.722 36.3611 17 34.029 17 31.5C17 28.971 17.722 26.6389 18.9404 24.9129Z" fill="#FF7043"/>
<path fill-rule="evenodd" clip-rule="evenodd" d="M9.29262 14.2932C9.68299 13.9025 10.3162 13.9022 10.7068 14.2926L16.138 19.7196C16.5287 20.1099 16.529 20.7431 16.1386 21.1338C15.7482 21.5244 15.1151 21.5247 14.7244 21.1343L9.29317 15.7074C8.90249 15.317 8.90224 14.6838 9.29262 14.2932Z" fill="#FF7043"/>
<path fill-rule="evenodd" clip-rule="evenodd" d="M16.1386 14.2932C16.529 14.6838 16.5287 15.317 16.138 15.7074L10.7068 21.1343C10.3162 21.5247 9.68299 21.5244 9.29262 21.1338C8.90224 20.7431 8.90249 20.1099 9.29317 19.7196L14.7244 14.2926C15.1151 13.9022 15.7482 13.9025 16.1386 14.2932Z" fill="#FF7043"/>
<path fill-rule="evenodd" clip-rule="evenodd" d="M31.8629 14.2932C32.2533 13.9025 32.8865 13.9022 33.2771 14.2926L38.7083 19.7196C39.099 20.1099 39.0993 20.7431 38.7089 21.1338C38.3185 21.5244 37.6854 21.5247 37.2947 21.1343L31.8635 15.7074C31.4728 15.317 31.4726 14.6838 31.8629 14.2932Z" fill="#FF7043"/>
<path fill-rule="evenodd" clip-rule="evenodd" d="M38.7089 14.2932C39.0993 14.6838 39.099 15.317 38.7083 15.7074L33.2771 21.1343C32.8865 21.5247 32.2533 21.5244 31.8629 21.1338C31.4726 20.7431 31.4728 20.1099 31.8635 19.7196L37.2947 14.2926C37.6854 13.9022 38.3185 13.9025 38.7089 14.2932Z" fill="#FF7043"/>
</svg>
