<svg width="29" height="28" viewBox="0 0 29 28" fill="none" xmlns="http://www.w3.org/2000/svg">
<path d="M27.8964 13.2657C27.781 13.0641 27.6262 12.8879 27.4413 12.7474C27.2563 12.6069 27.0449 12.5051 26.8198 12.4481C25.8203 12.2013 24.7852 12.1327 23.762 12.2454C24.0313 10.7565 23.9363 9.22448 23.4851 7.78019C23.3523 7.36835 23.0712 7.02052 22.6965 6.80416C22.3217 6.5878 21.88 6.51833 21.4569 6.60922C20.4427 6.83351 19.4748 7.23109 18.5958 7.78447C17.894 6.30726 16.8501 5.01864 15.5508 4.02545C15.2482 3.79724 14.8796 3.67381 14.5006 3.67383C14.1216 3.67385 13.7529 3.79732 13.4504 4.02556C12.1511 5.01871 11.1073 6.30729 10.4055 7.78446C9.52658 7.23112 8.55877 6.83354 7.54467 6.60922C7.12156 6.51838 6.67978 6.58789 6.305 6.80426C5.93022 7.02063 5.64913 7.36845 5.51622 7.78029C5.06504 9.22451 4.97005 10.7565 5.23936 12.2453C4.2161 12.1326 3.18097 12.2012 2.18156 12.4481C1.95675 12.5059 1.74572 12.608 1.56085 12.7484C1.37598 12.8888 1.22097 13.0647 1.10491 13.2657C0.988839 13.4667 0.914045 13.6889 0.884902 13.9192C0.855759 14.1495 0.872852 14.3833 0.935182 14.6069C1.32216 15.9909 2.50665 18.6216 6.09087 20.691C9.65281 22.7474 12.8006 22.7497 14.4948 22.7497C14.4965 22.7497 14.4981 22.7499 14.4998 22.7499L14.5007 22.7499L14.5015 22.7499C14.5032 22.7499 14.5048 22.7497 14.5065 22.7497C16.2007 22.7497 19.3485 22.7474 22.9105 20.6909C26.4947 18.6216 27.6792 15.9909 28.0662 14.6069C28.1293 14.3834 28.1469 14.1495 28.1177 13.9191C28.0886 13.6886 28.0133 13.4664 27.8964 13.2657ZM14.504 5.42777C15.5553 6.21273 18.0007 8.53407 18.0007 13.1247C18.0007 17.7154 15.5553 20.0367 14.5041 20.8216C14.5037 20.822 14.5031 20.8224 14.5025 20.8226C14.5019 20.8229 14.5013 20.823 14.5007 20.823C14.5 20.823 14.4994 20.8229 14.4988 20.8226C14.4982 20.8224 14.4977 20.822 14.4972 20.8216C13.4457 20.0364 11.0007 17.715 11.0007 13.1247C11.0007 8.53407 13.446 6.21273 14.504 5.42777ZM2.61618 14.1432C3.63312 13.8992 4.69072 13.8777 5.71675 14.08C5.99694 14.8738 6.35101 15.6396 6.7743 16.3673C7.7163 17.9848 8.95026 19.4135 10.4135 20.5808C9.20419 20.2761 8.04364 19.803 6.96587 19.1755C3.91944 17.4165 2.93576 15.2629 2.61618 14.1432ZM22.0355 19.1754C20.9577 19.8029 19.7972 20.276 18.5879 20.5807C20.0511 19.4135 21.285 17.9848 22.227 16.3673C22.6503 15.6396 23.0044 14.8738 23.2846 14.08C24.309 13.8793 25.3643 13.8983 26.3809 14.1357C26.0656 15.2629 25.0819 17.4165 22.0355 19.1754Z" fill="#009FF5"/>
</svg>
