<svg width="29" height="20" viewBox="0 0 29 20" fill="none" xmlns="http://www.w3.org/2000/svg">
<path d="M27.8964 10.2657C27.781 10.0641 27.6262 9.88786 27.4413 9.74739C27.2563 9.60691 27.0449 9.50512 26.8198 9.44807C25.8203 9.2013 24.7852 9.13271 23.762 9.24545C24.0313 7.75649 23.9363 6.22448 23.4851 4.78019C23.3523 4.36835 23.0712 4.02052 22.6965 3.80416C22.3217 3.5878 21.88 3.51833 21.4569 3.60922C20.4427 3.83351 19.4748 4.23109 18.5958 4.78447C17.894 3.30726 16.8501 2.01864 15.5508 1.02545C15.2482 0.797243 14.8796 0.673808 14.5006 0.673828C14.1216 0.673848 13.7529 0.797321 13.4504 1.02556C12.1511 2.01871 11.1073 3.30729 10.4055 4.78446C9.52658 4.23112 8.55877 3.83354 7.54467 3.60922C7.12156 3.51838 6.67978 3.58789 6.305 3.80426C5.93022 4.02063 5.64913 4.36845 5.51622 4.78029C5.06504 6.22451 4.97005 7.75645 5.23936 9.24534C4.2161 9.13255 3.18097 9.20118 2.18156 9.44807C1.95675 9.50591 1.74572 9.60801 1.56085 9.74841C1.37598 9.8888 1.22097 10.0647 1.10491 10.2657C0.988839 10.4667 0.914045 10.6889 0.884902 10.9192C0.855759 11.1495 0.872852 11.3833 0.935182 11.6069C1.32216 12.9909 2.50665 15.6216 6.09087 17.691C9.65281 19.7474 12.8006 19.7497 14.4948 19.7497C14.4965 19.7497 14.4981 19.7499 14.4998 19.7499L14.5007 19.7499L14.5015 19.7499C14.5032 19.7499 14.5048 19.7497 14.5065 19.7497C16.2007 19.7497 19.3485 19.7474 22.9105 17.6909C26.4947 15.6216 27.6792 12.9909 28.0662 11.6069C28.1293 11.3834 28.1469 11.1495 28.1177 10.9191C28.0886 10.6886 28.0133 10.4664 27.8964 10.2657ZM14.504 2.42777C15.5553 3.21273 18.0007 5.53407 18.0007 10.1247C18.0007 14.7154 15.5553 17.0367 14.5041 17.8216C14.5037 17.822 14.5031 17.8224 14.5025 17.8226C14.5019 17.8229 14.5013 17.823 14.5007 17.823C14.5 17.823 14.4994 17.8229 14.4988 17.8226C14.4982 17.8224 14.4977 17.822 14.4972 17.8216C13.4457 17.0364 11.0007 14.715 11.0007 10.1247C11.0007 5.53407 13.446 3.21273 14.504 2.42777ZM2.61618 11.1432C3.63312 10.8992 4.69072 10.8777 5.71675 11.08C5.99694 11.8738 6.35101 12.6396 6.7743 13.3673C7.7163 14.9848 8.95026 16.4135 10.4135 17.5808C9.20419 17.2761 8.04364 16.803 6.96587 16.1755C3.91944 14.4165 2.93576 12.2629 2.61618 11.1432ZM22.0355 16.1754C20.9577 16.8029 19.7972 17.276 18.5879 17.5807C20.0511 16.4135 21.285 14.9848 22.227 13.3673C22.6503 12.6396 23.0044 11.8738 23.2846 11.08C24.309 10.8793 25.3643 10.8983 26.3809 11.1357C26.0656 12.2629 25.0819 14.4165 22.0355 16.1754Z" fill="#D6E0E8"/>
</svg>
