<svg width="48" height="48" viewBox="0 0 48 48" fill="none" xmlns="http://www.w3.org/2000/svg">
<path fill-rule="evenodd" clip-rule="evenodd" d="M46 24C46 11.8497 36.1503 2 24 2C11.8497 2 2 11.8497 2 24C2 36.1503 11.8497 46 24 46C36.1503 46 46 36.1503 46 24ZM24 2.76562e-06C37.2548 2.18624e-06 48 10.7452 48 24C48 37.2548 37.2548 48 24 48C10.7452 48 -4.69686e-07 37.2548 -1.04907e-06 24C-1.62846e-06 10.7452 10.7452 3.34501e-06 24 2.76562e-06Z" fill="#FF7043"/>
<path d="M12 18C12 16.8979 12.894 16 14 16C15.106 16 16 16.894 16 18C16 19.106 15.106 20 14 20C12.894 20 12 19.106 12 18Z" fill="#FF7043"/>
<path d="M32 18C32 16.8979 32.894 16 34 16C35.106 16 36 16.894 36 18C36 19.106 35.106 20 34 20C32.894 20 32 19.106 32 18Z" fill="#FF7043"/>
<path fill-rule="evenodd" clip-rule="evenodd" d="M11.7083 26.0438C12.2365 25.8826 12.7954 26.18 12.9567 26.7083C14.4273 31.5251 18.8243 35.0003 24.0003 35.0003C29.1762 35.0003 33.5732 31.5251 35.0438 26.7083C35.2051 26.18 35.7641 25.8826 36.2923 26.0438C36.8205 26.2051 37.118 26.7641 36.9567 27.2923C35.243 32.905 30.1024 37.0003 24.0003 37.0003C17.8981 37.0003 12.7575 32.905 11.0438 27.2923C10.8826 26.7641 11.18 26.2051 11.7083 26.0438Z" fill="#FF7043"/>
<path fill-rule="evenodd" clip-rule="evenodd" d="M13.7071 25.2929C14.0976 25.6834 14.0976 26.3166 13.7071 26.7071L11.7071 28.7071C11.3166 29.0976 10.6834 29.0976 10.2929 28.7071C9.90237 28.3166 9.90237 27.6834 10.2929 27.2929L12.2929 25.2929C12.6834 24.9024 13.3166 24.9024 13.7071 25.2929Z" fill="#FF7043"/>
<path fill-rule="evenodd" clip-rule="evenodd" d="M34.2929 25.2929C34.6834 24.9024 35.3166 24.9024 35.7071 25.2929L37.7071 27.2929C38.0976 27.6834 38.0976 28.3166 37.7071 28.7071C37.3166 29.0976 36.6834 29.0976 36.2929 28.7071L34.2929 26.7071C33.9024 26.3166 33.9024 25.6834 34.2929 25.2929Z" fill="#FF7043"/>
</svg>
