<svg width="48" height="48" viewBox="0 0 48 48" fill="none" xmlns="http://www.w3.org/2000/svg">
<g clip-path="url(#clip0_4501_6935)">
<path fill-rule="evenodd" clip-rule="evenodd" d="M32.9651 0.134705C32.3485 0.134705 31.7721 0.322302 31.2943 0.645669L31.2942 0.645604L31.2839 0.652746C30.9773 0.865892 5.60099 18.5526 5.07651 18.9185C4.28821 19.454 3.76772 20.3609 3.76772 21.3892C3.76772 22.0058 3.95532 22.5822 4.27869 23.06L4.28579 23.0705L4.29315 23.0808C4.29024 23.0767 4.78634 23.8044 5.46336 24.7973L5.47418 24.8132L5.4862 24.8308L6.67266 26.571L8.31492 28.9798L8.78242 29.6656L8.80678 29.7013L8.81599 29.7148C8.97129 29.9426 9.05988 30.0726 9.05886 30.0711L10.723 28.9617C10.7169 28.9525 8.48067 25.6723 7.06228 23.5922L24.1165 25.9074C24.4223 25.9492 24.7208 25.9635 25.0063 25.9635H25.0072C28.0807 25.9607 30.743 23.8326 31.4158 20.8319L35.0834 4.47673C38.1433 8.96447 45.5625 19.8459 45.6934 20.0381C45.8012 20.1977 45.8652 20.393 45.8652 20.5949C45.8652 20.9288 45.6959 21.2302 45.4238 21.4171C45.2955 21.5061 38.9977 25.8956 32.6154 30.3441L32.613 30.3458L32.3105 30.5566L23.3177 36.8246L20.3469 38.8951L19.5098 39.4785L19.2145 39.6842C19.0592 39.7884 18.8727 39.8493 18.6678 39.8493C18.3254 39.8493 18.032 39.6825 17.8533 39.4193C17.396 38.7456 16.4798 37.402 15.6786 36.2278L14.6334 34.6964L14.3093 34.2219L14.2205 34.0918L14.1973 34.0578L14.1913 34.0491L14.1898 34.0469L14.1895 34.0464L14.1894 34.0462L13.3636 34.6102L12.5378 35.1742L12.5379 35.1743L12.5383 35.1749L12.5398 35.1771L12.5457 35.1857L12.5689 35.2197L12.6577 35.3497L12.9816 35.8241L14.0265 37.355C14.8283 38.53 15.7431 39.8716 16.1986 40.5427L16.1988 40.543C16.7365 41.3347 17.6393 41.8493 18.6678 41.8493C19.2844 41.8493 19.8608 41.6617 20.3387 41.3384L20.3434 41.3352C20.3742 41.3141 25.9149 37.4522 31.8884 33.2887L32.0815 33.1541L33.4541 32.1974L42.4478 25.9288L45.4198 23.8575L46.2575 23.2737C46.4566 23.135 46.5552 23.0663 46.5542 23.067L46.5561 23.0657C47.334 22.5314 47.8652 21.6319 47.8652 20.5949C47.8652 19.9741 47.6704 19.3911 47.3495 18.9169L47.3482 18.915C47.2401 18.756 35.627 1.72362 35.4389 1.44805C34.9038 0.657198 33.9953 0.134705 32.9651 0.134705ZM33.5205 2.30559C33.3622 2.19739 33.171 2.1347 32.9651 2.1347C32.7608 2.1347 32.5746 2.19536 32.4195 2.2991C31.8814 2.67358 6.49033 20.3706 6.21555 20.5625L6.20912 20.567L6.20261 20.5714C5.93839 20.7498 5.76772 21.0495 5.76772 21.3892L5.76776 21.3981L24.3862 23.9257L24.387 23.9258C24.5813 23.9523 24.786 23.9634 25.0054 23.9635C27.1456 23.9615 28.9965 22.4803 29.4643 20.3943L30.44 20.6131L29.4643 20.3943L33.5205 2.30559ZM13.4479 29.9853L1.27223 37.9759L2.36957 39.648L14.5453 31.6574L13.4479 29.9853ZM6.02609 43.593L12.6918 39.2188L13.7891 40.891L7.12337 45.2651L6.02609 43.593ZM3.84724 26.0092L0.356323 28.3008L1.45384 29.9727L4.94476 27.6812L3.84724 26.0092ZM34.4644 35.9109L31.7955 37.6623L30.6982 35.9902L33.367 34.2388L34.4644 35.9109ZM16.6929 47.5735L29.678 39.0523L28.5808 37.3802L15.5957 45.9014L16.6929 47.5735ZM40.5107 14.6378H38.9221V16.2264H40.5107V14.6378ZM40.5107 17.0205H42.0993V18.6091H40.5107V17.0205ZM43.6878 19.4034H42.0993V20.992H43.6878V19.4034ZM6.75427 12.5259L8.713 11.1605L9.8567 12.8012L7.89798 14.1666L6.75427 12.5259ZM21.3907 2.32468L10.9609 9.59405L12.1045 11.2348L22.5343 3.96548L21.3907 2.32468Z" fill="url(#paint0_linear_4501_6935)"/>
</g>
<defs>
<linearGradient id="paint0_linear_4501_6935" x1="0.356323" y1="47.5735" x2="57.29" y2="28.9555" gradientUnits="userSpaceOnUse">
<stop stop-color="#009FF5"/>
<stop offset="1" stop-color="#59CA56"/>
</linearGradient>
<clipPath id="clip0_4501_6935">
<rect width="48" height="48" fill="white"/>
</clipPath>
</defs>
</svg>
