<svg width="48" height="48" viewBox="0 0 48 48" fill="none" xmlns="http://www.w3.org/2000/svg">
<g clip-path="url(#clip0_3795_8146)">
<circle cx="24" cy="24" r="24" fill="url(#paint0_linear_3795_8146)"/>
<path fill-rule="evenodd" clip-rule="evenodd" d="M16.653 41.143H15.3469V35.1806C15.3469 34.5471 15.053 33.9593 14.5437 33.5544C10.9061 30.6875 8.81631 26.312 8.81631 21.5512C8.81631 13.1267 15.6996 6.53076 24.4898 6.53076C32.5551 6.53076 37.551 11.2785 37.551 15.6736C37.551 16.7316 37.3747 17.4369 37.2049 18.1161L37.1984 18.1423L37.1984 18.1423C37.044 18.766 36.8979 19.3563 36.8979 20.245C36.8979 22.9814 37.6033 23.654 38.5828 24.5814L38.8506 24.8426C39.3012 25.2802 39.5102 25.7895 39.5102 26.4491C39.5102 27.7095 38.4849 28.7348 37.2245 28.7348H35.5918V33.5087C35.5918 35.5593 33.9265 37.2246 31.8759 37.2246H27.7551V41.1428H26.449V37.2246H23.8367V35.9185H31.8759C33.2016 35.9185 34.2857 34.841 34.2857 33.5087V28.7348C34.2857 28.0165 34.8735 27.4287 35.5918 27.4287H37.2245C37.7665 27.4287 38.2041 26.9912 38.2041 26.4491C38.2041 26.1422 38.1388 25.9724 37.9363 25.7765L37.6751 25.5283L37.6666 25.5202C36.5987 24.4979 35.5853 23.5278 35.5853 20.245C35.5853 19.1871 35.7616 18.4818 35.9314 17.8026L35.9314 17.8026L35.9379 17.7764C36.0923 17.1527 36.2384 16.5624 36.2384 15.6736C36.2384 11.9055 31.7453 7.83688 24.4833 7.83688C16.431 7.83688 10.1224 13.8581 10.1224 21.5512C10.1224 25.9071 12.0294 29.9104 15.3535 32.5291C16.1828 33.1822 16.653 34.1487 16.653 35.1806V41.143ZM26.449 20.898V22.2041C26.88 22.2041 27.3045 22.1845 27.7094 22.1519L27.6049 20.8523C27.2326 20.8849 26.8408 20.898 26.449 20.898ZM13.7471 24.8164C12.0818 24.8164 12.0818 22.7723 12.0818 21.5511C12.0818 14.9617 17.5348 9.79599 24.4899 9.79599C31.445 9.79599 34.2859 13.7013 34.2859 16.3266C34.2859 19.2915 32.5552 21.2311 29.2769 21.9299L29.0026 20.6499C31.6736 20.0817 32.9797 18.6646 32.9797 16.3266C32.9797 14.2237 30.7201 11.1021 24.4899 11.1021C18.2597 11.1021 13.3879 15.6931 13.3879 21.5511C13.3879 22.2825 13.4336 23.5103 13.7471 23.5103C13.955 23.5103 14.2723 23.1639 14.6169 22.7876L14.6548 22.7462L14.656 22.7449C15.5507 21.7522 16.9092 20.245 19.925 20.245C21.2027 20.245 22.0213 20.3916 22.8848 20.5463L22.9161 20.5519C23.5561 20.6695 24.2157 20.787 25.1169 20.8523L25.0255 22.1584C24.0665 22.0941 23.374 21.9663 22.7103 21.8439L22.681 21.8384C21.8712 21.6882 21.1006 21.5511 19.925 21.5511C17.4925 21.5511 16.4602 22.6973 15.6314 23.6174L15.6279 23.6213L15.6214 23.6285C15.0687 24.2397 14.5472 24.8164 13.7536 24.8164H13.7471ZM23.0532 19.3045C23.2687 19.4873 23.5495 19.5918 23.8369 19.5918L23.8499 19.5853C24.1373 19.5853 24.4181 19.4873 24.6336 19.2979L26.9128 17.3453C27.4483 16.8816 27.7618 16.209 27.7618 15.5102C27.7618 14.1584 26.6255 13.0612 25.2344 13.0612C24.7446 13.0612 24.2744 13.2179 23.8369 13.5184C23.3993 13.2179 22.9226 13.0612 22.4459 13.0612C21.0483 13.0612 19.9185 14.1584 19.9185 15.5102C19.9185 16.209 20.232 16.8816 20.774 17.3453L23.0532 19.3045ZM21.2246 15.5102C21.2246 14.8833 21.7732 14.3673 22.4459 14.3673L22.4393 14.3608C22.7463 14.3608 23.0663 14.5175 23.3797 14.8245L23.8369 15.2686L24.294 14.8245C25.2932 13.8514 26.4491 14.5894 26.4491 15.5102C26.4491 15.8302 26.3055 16.1371 26.0508 16.3526L23.8369 18.2531L21.623 16.3526C21.3683 16.1371 21.2246 15.8302 21.2246 15.5102Z" fill="url(#paint1_linear_3795_8146)" fill-opacity="0.9"/>
</g>
<defs>
<linearGradient id="paint0_linear_3795_8146" x1="24" y1="0" x2="24" y2="48" gradientUnits="userSpaceOnUse">
<stop stop-color="#E6F7E6"/>
<stop offset="1" stop-color="#E6F7E6" stop-opacity="0"/>
</linearGradient>
<linearGradient id="paint1_linear_3795_8146" x1="8.81631" y1="41.143" x2="46.3828" y2="30.2651" gradientUnits="userSpaceOnUse">
<stop stop-color="#00476E"/>
<stop offset="1" stop-color="#398137"/>
</linearGradient>
<clipPath id="clip0_3795_8146">
<rect width="48" height="48" fill="white"/>
</clipPath>
</defs>
</svg>
