<svg width="48" height="48" viewBox="0 0 48 48" fill="none" xmlns="http://www.w3.org/2000/svg">
<g clip-path="url(#clip0_3795_8134)">
<circle cx="24" cy="24" r="24" fill="url(#paint0_linear_3795_8134)"/>
<path fill-rule="evenodd" clip-rule="evenodd" d="M29.0611 42.1224V27.1608C29.0611 26.5535 29.2766 25.9592 29.6684 25.489L34.3378 19.8857C34.7296 19.4155 34.9451 18.8278 34.9386 18.2139C34.9386 17.7829 34.8276 17.3584 34.6251 16.9796L30.9419 10.1355L32.2741 7.36654C32.3264 7.26205 32.3264 7.23592 32.3264 7.17715C32.3264 6.99429 32.1827 6.85062 31.9998 6.85062C31.9149 6.85062 31.8562 6.86368 31.7256 6.98123L28.519 9.97878C28.4472 10.0441 28.408 10.142 28.408 10.2465C28.408 10.3184 28.4276 10.3902 28.4733 10.4555L29.5977 12.0915C30.0219 12.0478 30.4482 12.1473 30.8115 12.3821C31.347 12.7282 31.667 13.3225 31.667 13.9625C31.667 14.3301 31.5578 14.684 31.3628 14.9848L31.9344 15.9607C32.1956 16.4113 32.3393 16.9272 32.3393 17.4497C32.3393 18.3117 31.9605 19.1346 31.3074 19.6962L29.2372 21.4726C28.447 22.1517 27.4348 22.524 26.3964 22.524L26.3834 22.5305C25.443 22.5305 24.5156 22.217 23.7646 21.6554L23.1311 21.1852C22.7589 20.9109 22.5368 20.4734 22.5368 20.0097C22.5368 19.4872 22.8176 19.004 23.2748 18.7428L24.7939 17.7888L24.7902 17.7829L30.0474 14.4849C30.2498 14.3674 30.3609 14.178 30.3609 13.969C30.3609 13.6817 30.178 13.5315 30.0996 13.4858C30.0213 13.4335 29.8058 13.329 29.5511 13.44L21.3094 17.4041C20.6564 17.698 20.0817 18.129 19.6376 18.6645L17.3774 21.3742L16.3723 20.5388L18.6384 17.8221C19.2131 17.1364 19.9445 16.5747 20.7674 16.2156L28.3405 12.5701L27.3958 11.2C27.2064 10.9192 27.1019 10.5927 27.1019 10.2531C27.1019 9.79592 27.2913 9.35184 27.6309 9.03184L30.8374 6.04082C31.0594 5.83184 31.4251 5.55103 31.9998 5.55103C32.9011 5.55103 33.6325 6.28245 33.6325 7.18368C33.6325 7.51021 33.5476 7.73878 33.4496 7.94123L32.4047 10.1094L35.7745 16.3657C36.0815 16.9339 36.2382 17.5739 36.2382 18.2139C36.2382 19.1282 35.9182 20.0163 35.3305 20.7216L30.6611 26.3249C30.4651 26.56 30.3607 26.8539 30.3607 27.1608V42.1224H30.3675V43.4285H24.3525H23.8369V43.3544C23.082 43.1318 22.5304 42.4331 22.5304 41.6065C22.5304 40.8554 22.9811 40.1958 23.6733 39.915L25.7958 39.066V29.6358C25.7958 29.0481 25.5737 28.4865 25.1623 28.062C24.9141 27.8007 24.6007 27.6048 24.2611 27.4873L16.666 24.8816C15.9084 24.6203 15.1182 24.4897 14.3149 24.4897H5.55086C4.47331 24.4897 3.59167 23.6081 3.59167 22.5305C3.59167 21.453 4.47331 20.5714 5.55086 20.5714H14.6937V21.8775H5.55086C5.19167 21.8775 4.8978 22.1714 4.8978 22.5305C4.8978 22.8897 5.19167 23.1836 5.55086 23.1836H14.3149C15.2619 23.1836 16.1958 23.3403 17.0905 23.6473L24.6856 26.253C25.2211 26.4358 25.7109 26.7493 26.1027 27.1607C26.7427 27.8334 27.1019 28.7085 27.1019 29.6424V39.9542L24.1631 41.1297C23.9672 41.2081 23.8366 41.3975 23.8366 41.6065C23.8366 41.8938 24.0651 42.1224 24.3525 42.1224H29.0611ZM17.3774 21.3742L17.378 21.3747L17.3715 21.3813L17.3774 21.3742ZM23.8369 6.85707H25.143V8.16319H23.8369V6.85707ZM36.8981 11.4286H35.592V12.7347H36.8981V11.4286ZM30.3439 15.8338L26.1576 18.4626L26.1613 18.4685L23.9409 19.8595C23.8691 19.8987 23.8429 19.9509 23.8429 20.0097C23.8429 20.0554 23.8691 20.1077 23.9083 20.1338L24.5483 20.604C25.665 21.4464 27.3238 21.3877 28.3817 20.4799L30.4519 18.7036C30.8176 18.3901 31.0266 17.933 31.0266 17.4497C31.0266 17.1558 30.9483 16.8685 30.8046 16.6203L30.3439 15.8338ZM13.3878 19.2652C12.5257 19.2652 11.7029 18.9256 11.0825 18.3117L10.4294 17.6586C9.80898 17.0317 9.47592 16.2154 9.47592 15.3468C9.47592 13.5443 10.9388 12.0815 12.7412 12.0815C13.6033 12.0815 14.4261 12.4211 15.0465 13.0349L15.6996 13.688C16.32 14.3149 16.6531 15.1313 16.6531 15.9998C16.6531 17.8023 15.1902 19.2652 13.3878 19.2652ZM12.7347 13.3876C11.6571 13.3876 10.7755 14.2692 10.7755 15.3468C10.7755 15.8692 10.978 16.359 11.3502 16.7378L12.0033 17.3909C12.3755 17.7566 12.8718 17.9656 13.3878 17.9656C14.4653 17.9656 15.3469 17.0839 15.3469 16.0064C15.3469 15.4839 15.1445 14.9941 14.7722 14.6154L14.1192 13.9623C13.7469 13.5966 13.2506 13.3876 12.7347 13.3876ZM9.46923 31.0204H10.7753V32.3265H9.46923V31.0204ZM17.3063 37.5509H16.0002V38.857H17.3063V37.5509ZM12.0818 34.9388H13.3879V36.2449H12.0818V34.9388ZM40.8165 19.2653H39.5104V20.5714H40.8165V19.2653ZM38.2041 15.3469H39.5102V16.6531H38.2041V15.3469ZM21.2246 7.51021H19.9185V8.81633H21.2246V7.51021ZM16.0002 8.81625H17.3063V10.1224H16.0002V8.81625ZM21.2246 38.8571H19.9185V40.1633H21.2246V38.8571ZM40.1633 23.1837H41.4694V24.4898H40.1633V23.1837ZM40.8165 27.102H39.5104V28.4082H40.8165V27.102ZM38.2041 31.0204H39.5102V32.3265H38.2041V31.0204ZM32.9797 37.5509H31.6736V38.857H32.9797V37.5509ZM35.592 34.9388H36.8981V36.2449H35.592V34.9388ZM9.46955 27.102H8.16342V28.4082H9.46955V27.102Z" fill="url(#paint1_linear_3795_8134)" fill-opacity="0.9"/>
</g>
<defs>
<linearGradient id="paint0_linear_3795_8134" x1="24" y1="0" x2="24" y2="48" gradientUnits="userSpaceOnUse">
<stop stop-color="#E6F7E6"/>
<stop offset="1" stop-color="#E6F7E6" stop-opacity="0"/>
</linearGradient>
<linearGradient id="paint1_linear_3795_8134" x1="3.59167" y1="43.4285" x2="48.9964" y2="28.6024" gradientUnits="userSpaceOnUse">
<stop stop-color="#00476E"/>
<stop offset="1" stop-color="#398137"/>
</linearGradient>
<clipPath id="clip0_3795_8134">
<rect width="48" height="48" fill="white"/>
</clipPath>
</defs>
</svg>
