<svg width="38" height="40" viewBox="0 0 38 40" fill="none" xmlns="http://www.w3.org/2000/svg">
<path d="M17.6094 1.34526C18.3848 0.595192 19.6152 0.595191 20.3906 1.34526L23.2416 4.10333C23.685 4.53226 24.3015 4.73257 24.9123 4.64617L28.84 4.09063C29.9081 3.93955 30.9036 4.66281 31.09 5.72537L31.7754 9.63248C31.8819 10.2401 32.263 10.7645 32.8079 11.0537L36.312 12.9128C37.2649 13.4184 37.6452 14.5887 37.1714 15.5579L35.4294 19.1217C35.1584 19.6759 35.1584 20.3241 35.4294 20.8783L37.1714 24.4421C37.6452 25.4113 37.2649 26.5816 36.312 27.0872L32.8079 28.9463C32.263 29.2355 31.8819 29.7599 31.7754 30.3675L31.09 34.2746C30.9036 35.3372 29.9081 36.0605 28.84 35.9094L24.9123 35.3538C24.3015 35.2674 23.685 35.4677 23.2416 35.8967L20.3906 38.6547C19.6152 39.4048 18.3848 39.4048 17.6094 38.6547L14.7584 35.8967C14.315 35.4677 13.6985 35.2674 13.0877 35.3538L9.16003 35.9094C8.09189 36.0605 7.09639 35.3372 6.91001 34.2746L6.22464 30.3675C6.11806 29.7599 5.73704 29.2355 5.1921 28.9463L1.688 27.0872C0.735053 26.5816 0.354809 25.4113 0.828571 24.4421L2.57064 20.8783C2.84156 20.3241 2.84156 19.6759 2.57065 19.1217L0.828572 15.5579C0.354809 14.5887 0.735052 13.4184 1.688 12.9128L5.1921 11.0537C5.73704 10.7645 6.11806 10.2401 6.22464 9.63248L6.91001 5.72537C7.09639 4.66281 8.09188 3.93955 9.16003 4.09063L13.0877 4.64617C13.6985 4.73257 14.315 4.53226 14.7584 4.10333L17.6094 1.34526Z" fill="#FFE61E"/>
</svg>
