<svg width="40" height="40" viewBox="0 0 40 40" fill="none" xmlns="http://www.w3.org/2000/svg">
<g clip-path="url(#clip0_3312_8662)">
<path d="M20 40C31.0457 40 40 31.0457 40 20C40 8.95431 31.0457 0 20 0C8.95431 0 0 8.95431 0 20C0 31.0457 8.95431 40 20 40Z" fill="url(#paint0_linear_3312_8662)"/>
<path fill-rule="evenodd" clip-rule="evenodd" d="M9.05173 19.7883C14.8821 17.2481 18.77 15.5734 20.7153 14.7643C26.2695 12.4541 27.4236 12.0528 28.1759 12.0396C28.3413 12.0367 28.7112 12.0777 28.9509 12.2721C29.1532 12.4363 29.2089 12.6581 29.2355 12.8137C29.2621 12.9694 29.2953 13.324 29.2689 13.6011C28.968 16.7635 27.6656 24.438 27.003 27.98C26.7227 29.4788 26.1707 29.9813 25.6362 30.0305C24.4748 30.1374 23.5928 29.2629 22.4679 28.5255C20.7077 27.3717 19.7132 26.6534 18.0046 25.5274C16.03 24.2262 17.31 23.511 18.4354 22.3422C18.7299 22.0363 23.8472 17.3817 23.9462 16.9594C23.9586 16.9066 23.9701 16.7098 23.8532 16.6058C23.7362 16.5019 23.5636 16.5374 23.4391 16.5657C23.2625 16.6058 20.4505 18.4644 15.003 22.1417C14.2048 22.6898 13.4818 22.9568 12.8341 22.9428C12.12 22.9274 10.7463 22.5391 9.72514 22.2071C8.47264 21.8 7.47717 21.5847 7.56386 20.8933C7.60901 20.5331 8.10496 20.1648 9.05173 19.7883Z" fill="white"/>
</g>
<defs>
<linearGradient id="paint0_linear_3312_8662" x1="20" y1="0" x2="20" y2="39.7033" gradientUnits="userSpaceOnUse">
<stop stop-color="#2AABEE"/>
<stop offset="1" stop-color="#229ED9"/>
</linearGradient>
<clipPath id="clip0_3312_8662">
<rect width="40" height="40" fill="white"/>
</clipPath>
</defs>
</svg>
