<svg width="120" height="120" viewBox="0 0 120 120" fill="none" xmlns="http://www.w3.org/2000/svg">
<circle cx="60" cy="60" r="60" fill="url(#paint0_linear_1648_7775)"/>
<path opacity="0.9" d="M82.7004 70C83.2004 70.1 83.8004 69.8 83.9004 69.3C84.0004 68.8 83.7004 68.2 83.2004 68.1C71.0004 64.9 64.3004 60.6 60.8004 56.3C63.8004 49.4 63.8004 44.3 63.0004 40.7C62.6004 38.9 62.0004 37.6 61.4004 36.7C61.1004 36.2 60.9004 35.9 60.7004 35.7C60.6004 35.6 60.5004 35.5 60.5004 35.4C60.5004 35.4 60.5004 35.3 60.4004 35.3C60.4004 35.3 60.4004 35.3 59.7004 36L60.4004 35.3C60.2004 35.1 59.9004 35 59.6004 35C59.3004 35 59.0004 35.2 58.9004 35.4L59.4004 35.8C58.9004 35.4 58.9004 35.4 58.9004 35.4C58.9004 35.4 58.9004 35.4 58.9004 35.5C58.9004 35.5 58.8004 35.6 58.8004 35.7C58.7004 35.9 58.5004 36.1 58.3004 36.5C57.9004 37.2 57.4004 38.1 56.9004 39.3C55.9004 41.7 55.0004 45 55.5004 48.7C56.3004 56.3 62.6004 64.7 82.7004 70ZM58.6004 40.1C59.0004 39.2 59.4004 38.4 59.7004 37.8C60.1004 38.6 60.7004 39.7 61.0004 41.2C61.7004 44.1 61.8004 48.5 59.4004 54.4C58.1004 52.4 57.5004 50.3 57.3004 48.5C57.0004 45.2 57.7004 42.3 58.6004 40.1ZM35.7004 69.1C35.7004 68.5 36.1004 68.1 36.6004 68C46.6004 67.3 53.3004 64.2 56.8004 59.2C57.1004 58.7 57.7004 58.6 58.2004 59C58.7004 59.3 58.8004 59.9 58.4004 60.4C54.4004 66.1 47.0004 69.3 36.7004 70C36.3004 70.1 35.8004 69.7 35.7004 69.1ZM85.9004 74.7C83.1004 72.9 79.9004 71.8 76.5004 71.6C70.2004 71.2 64.2004 73.8 60.1004 78.5C56.1004 73.7 50.0004 71.2 43.7004 71.6C40.4004 71.8 37.2004 72.9 34.3004 74.7C34.1004 74.9 33.9004 75.1 33.9004 75.4C33.9004 75.7 33.9004 76 34.1004 76.2C36.1004 78.9 38.8004 81.1 41.9004 82.5C44.5004 83.6 47.2004 84.2 49.9004 84.2C53.4004 84.2 56.9004 83.2 60.0004 81.4C63.1004 83.3 66.6004 84.2 70.1004 84.2C72.8004 84.2 75.6004 83.6 78.1004 82.5C81.2004 81.1 83.9004 79 85.9004 76.2C86.1004 76 86.1004 75.7 86.1004 75.4C86.3004 75.1 86.1004 74.9 85.9004 74.7ZM42.9004 80.6C40.5004 79.5 38.3004 77.9 36.5004 75.8C38.8004 74.5 41.3004 73.8 44.0004 73.6C49.7004 73.2 55.1004 75.5 58.8004 79.9C53.8004 82.6 48.0004 82.9 42.9004 80.6ZM77.5004 80.6C72.4004 82.9 66.5004 82.6 61.6004 79.9C65.2004 75.6 70.7004 73.3 76.4004 73.6C79.0004 73.8 81.6004 74.5 83.9004 75.8C82.1004 77.9 80.0004 79.5 77.5004 80.6Z" fill="url(#paint1_linear_1648_7775)"/>
<defs>
<linearGradient id="paint0_linear_1648_7775" x1="60" y1="0" x2="60" y2="120" gradientUnits="userSpaceOnUse">
<stop stop-color="#E6F7E6"/>
<stop offset="1" stop-color="#E6F7E6" stop-opacity="0"/>
</linearGradient>
<linearGradient id="paint1_linear_1648_7775" x1="37.3665" y1="48.4115" x2="88.2357" y2="88.1491" gradientUnits="userSpaceOnUse">
<stop stop-color="#00476E"/>
<stop offset="1" stop-color="#398137"/>
</linearGradient>
</defs>
</svg>
