<svg width="120" height="120" viewBox="0 0 120 120" fill="none" xmlns="http://www.w3.org/2000/svg">
<circle cx="60" cy="60" r="60" fill="url(#paint0_linear_1648_7760)"/>
<path fill-rule="evenodd" clip-rule="evenodd" d="M61.0001 44V34H59.0001V44H61.0001ZM46.5188 35.8406L47.5318 38.4196L45.6703 39.1508L44.6573 36.5718L46.5188 35.8406ZM48.5168 40.9243L50.2888 45.4323L48.4274 46.164L46.6554 41.656L48.5168 40.9243ZM58.3964 61.3345C59.2207 64.605 61.3156 68.2586 64.5283 71.4713C67.7409 74.6839 71.3945 76.7788 74.665 77.6031C77.9587 78.4333 80.6742 77.9441 82.309 76.3093C83.9438 74.6745 84.433 71.959 83.6028 68.6653C82.7785 65.3948 80.6837 61.7412 77.471 58.5285C74.2583 55.3158 70.6047 53.221 67.3343 52.3967C64.0405 51.5665 61.3251 52.0557 59.6903 53.6905C58.0555 55.3253 57.5663 58.0408 58.3964 61.3345ZM56.4571 61.8233C56.0686 60.2821 55.917 58.7568 56.0465 57.3334L54.6899 58.69L54.6898 58.6901C53.0553 60.3251 52.5662 63.0407 53.3963 66.3346C54.2207 69.6052 56.3154 73.259 59.5278 76.4719C62.7402 79.6848 66.394 81.7797 69.6647 82.604C72.9587 83.4342 75.6745 82.9449 77.3096 81.3099L78.6664 79.953C77.2429 80.0825 75.7175 79.9309 74.1762 79.5424C70.4995 78.6157 66.5379 76.3093 63.1141 72.8855C59.6902 69.4616 57.3838 65.5001 56.4571 61.8233ZM58.2756 52.2759L58.2761 52.2763C60.6058 49.9466 64.1696 49.5365 67.8231 50.4574C71.4998 51.3841 75.4614 53.6905 78.8852 57.1143C82.309 60.5382 84.6155 64.4997 85.5422 68.1765C86.463 71.8299 86.053 75.3937 83.7232 77.7235L83.7238 77.7241L78.7238 82.7241C76.3938 85.0541 72.8297 85.4642 69.1759 84.5434C65.4989 83.6167 61.5371 81.3102 58.1135 77.886C54.6899 74.4619 52.3837 70.5002 51.457 66.8234C50.5362 63.1698 50.9461 59.6059 53.2755 57.2759H53.2756L58.2756 52.2759ZM39.5478 65.9444C37.1206 67.158 36.0001 68.6496 36.0001 69.9998C36.0001 71.3499 37.1206 72.8415 39.5478 74.0551C41.9152 75.2388 45.2557 75.9998 49.0001 75.9998C50.6422 75.9998 52.2115 75.853 53.6589 75.5863L54.0213 77.5532C52.4507 77.8425 50.76 77.9998 49.0001 77.9998C45.0125 77.9998 41.353 77.1937 38.6534 75.8439C37.6541 75.3443 36.7446 74.746 36.0001 74.0589V75.9998C36.0001 77.3499 37.1206 78.8415 39.5478 80.0551C41.9152 81.2388 45.2557 81.9998 49.0001 81.9998C52.226 81.9998 55.158 81.4347 57.427 80.5168L58.1771 82.3708C55.6361 83.3988 52.4441 83.9998 49.0001 83.9998C45.0125 83.9998 41.353 83.1937 38.6534 81.8439C36.0136 80.524 34.0001 78.5156 34.0001 75.9998V69.9998C34.0001 67.4839 36.0136 65.4755 38.6534 64.1556C41.353 62.8058 45.0125 61.9998 49.0001 61.9998V63.9998C45.2557 63.9998 41.9152 64.7607 39.5478 65.9444ZM62.964 58.3782L60.7149 56.1291L62.1291 54.7148L64.3782 56.9639C65.2655 56.3521 66.341 55.9938 67.5002 55.9938C69.1286 55.9938 70.5921 56.7012 71.599 57.8229L70.1013 59.1672C69.4602 58.4529 68.5337 58.0063 67.5002 58.0063C65.5709 58.0063 64.0064 59.5708 64.0064 61.5001C64.0064 63.4293 65.5709 64.9938 67.5002 64.9938C67.931 64.9938 68.3406 64.9167 68.7175 64.7757L68.7191 64.7751L72.5791 63.3381L72.5792 63.338C73.1793 63.1147 73.827 62.9938 74.5002 62.9938C77.5409 62.9938 80.0064 65.4593 80.0064 68.5001C80.0064 69.6593 79.6481 70.7349 79.0362 71.6221L81.3009 73.8869L79.8867 75.3011L77.6219 73.0363C76.7347 73.6481 75.6592 74.0063 74.5002 74.0063C72.8717 74.0063 71.4082 73.2989 70.4013 72.1772L71.899 70.8329C72.5401 71.5472 73.4666 71.9938 74.5002 71.9938C76.4294 71.9938 77.9939 70.4293 77.9939 68.5001C77.9939 66.5708 76.4294 65.0063 74.5002 65.0063C74.0693 65.0063 73.6591 65.0835 73.2811 65.2241L69.4228 66.6605L69.4223 66.6607C68.8213 66.8855 68.1731 67.0063 67.5002 67.0063C64.4594 67.0063 61.9939 64.5408 61.9939 61.5001C61.9939 60.3409 62.3522 59.2654 62.964 58.3782ZM34.1134 43.6989L41.3014 50.8869L39.8872 52.3011L32.6992 45.1131L34.1134 43.6989ZM74.3303 39.1508L75.3433 36.5718L73.4817 35.8406L72.4687 38.4196L74.3303 39.1508ZM71.5733 46.164L73.3454 41.656L71.484 40.9243L69.712 45.4323L71.5733 46.164ZM80.1134 52.3011L87.3014 45.1131L85.8872 43.6989L78.6992 50.8869L80.1134 52.3011Z" fill="url(#paint1_linear_1648_7760)" fill-opacity="0.9"/>
<defs>
<linearGradient id="paint0_linear_1648_7760" x1="60" y1="0" x2="60" y2="120" gradientUnits="userSpaceOnUse">
<stop stop-color="#E6F7E6"/>
<stop offset="1" stop-color="#E6F7E6" stop-opacity="0"/>
</linearGradient>
<linearGradient id="paint1_linear_1648_7760" x1="32.6992" y1="84.9993" x2="97.2423" y2="62.435" gradientUnits="userSpaceOnUse">
<stop stop-color="#00476E"/>
<stop offset="1" stop-color="#398137"/>
</linearGradient>
</defs>
</svg>
