<svg width="120" height="120" viewBox="0 0 120 120" fill="none" xmlns="http://www.w3.org/2000/svg">
<circle cx="60" cy="60" r="60" fill="url(#paint0_linear_1648_7754)"/>
<g clip-path="url(#clip0_1648_7754)">
<path fill-rule="evenodd" clip-rule="evenodd" d="M60.7698 32.3061L60.0498 33L59.3298 32.3061C59.5182 32.1105 59.7782 32 60.0498 32C60.3214 32 60.5813 32.1105 60.7698 32.3061ZM60.0498 33C59.3298 32.3061 59.3293 32.3065 59.3289 32.307L59.3278 32.3081L59.3248 32.3112L59.3162 32.3202L59.2884 32.3499C59.2652 32.3749 59.2329 32.4101 59.1925 32.4553C59.1116 32.5458 58.9979 32.6764 58.8592 32.8453C58.5818 33.1829 58.2031 33.6746 57.7841 34.305C56.9478 35.5635 55.9421 37.3888 55.2703 39.6552C53.9133 44.2328 53.9512 50.5209 59.2575 57.4105C59.4468 57.6563 59.7395 57.8004 60.0498 57.8004C60.36 57.8004 60.6527 57.6563 60.842 57.4105C66.1484 50.5209 66.1862 44.2328 64.8293 39.6552C64.1575 37.3888 63.1518 35.5635 62.3154 34.305C61.8965 33.6746 61.5177 33.1829 61.2404 32.8453C61.1016 32.6764 60.988 32.5458 60.9071 32.4553C60.8666 32.4101 60.8344 32.3749 60.8112 32.3499L60.7833 32.3202L60.7747 32.3112L60.7718 32.3081L60.7707 32.307C60.7702 32.3065 60.7698 32.3061 60.0498 33ZM60.0498 34.5654C59.8702 34.8028 59.6665 35.0859 59.4499 35.412C58.6942 36.5491 57.7896 38.1935 57.1878 40.2236C56.0658 44.0086 55.9678 49.2125 60.0498 55.1067C64.1317 49.2125 64.0337 44.0086 62.9118 40.2236C62.31 38.1935 61.4053 36.5491 60.6497 35.412C60.433 35.0859 60.2294 34.8028 60.0498 34.5654ZM41.2383 41.2515C41.2383 41.2515 52.9087 41.8067 54.2986 54.3118C41.7935 52.9219 41.2383 41.2515 41.2383 41.2515ZM41.2383 77.2581C41.2383 77.2581 52.9087 76.7029 54.2986 64.1978C41.7935 65.5876 41.2383 77.2581 41.2383 77.2581ZM78.8992 77.2581C78.8992 77.2581 67.2288 76.7029 65.8389 64.1978C78.344 65.5876 78.8992 77.2581 78.8992 77.2581ZM78.8992 41.2515C78.8992 41.2515 67.2288 41.8067 65.8389 54.3118C78.344 52.9219 78.8992 41.2515 78.8992 41.2515ZM36.1327 57.1686C37.9916 55.7889 40.8203 53.8362 44.6461 53.8362C48.4767 53.8362 51.3023 55.7939 53.1592 57.1682C53.8407 57.6726 55.0265 57.936 56.207 58.0404C56.3917 58.0567 56.5709 58.0687 56.7413 58.0774C57.094 58.0615 57.4087 58.058 57.6633 58.0598C57.8719 58.0613 58.0418 58.0663 58.1613 58.071C58.2211 58.0734 58.2683 58.0757 58.3016 58.0775L58.3409 58.0797L58.3523 58.0804L58.356 58.0806L58.3572 58.0807H58.3577C58.358 58.0807 58.3582 58.0808 58.2923 59.0786C58.3582 60.0764 58.358 60.0764 58.3577 60.0764L58.3572 60.0765L58.356 60.0766L58.3523 60.0768L58.3409 60.0775L58.3016 60.0797C58.2683 60.0815 58.2211 60.0838 58.1613 60.0862C58.0418 60.0909 57.8719 60.0959 57.6633 60.0973C57.4087 60.0991 57.094 60.0957 56.7413 60.0797C56.5709 60.0884 56.3917 60.1005 56.207 60.1168C55.0267 60.2212 53.841 60.4845 53.1595 60.9887C51.3005 62.3684 48.4719 64.321 44.6461 64.321C40.8156 64.321 37.99 62.3633 36.1331 60.9889C35.4516 60.4846 34.2658 60.2212 33.0853 60.1168C32.9006 60.1005 32.7215 60.0884 32.551 60.0797C32.1983 60.0957 31.8836 60.0991 31.629 60.0973C31.4204 60.0959 31.2505 60.0909 31.131 60.0862C31.0712 60.0838 31.024 60.0815 30.9907 60.0797L30.9514 60.0775L30.94 60.0768L30.9363 60.0766L30.9351 60.0765L30.9345 60.0764C30.9343 60.0764 30.9341 60.0764 31 59.0786C30.9341 58.0808 30.9343 58.0807 30.9346 58.0807H30.9351L30.9363 58.0806L30.94 58.0804L30.9514 58.0797L30.9907 58.0775C31.024 58.0757 31.0712 58.0734 31.131 58.071C31.2505 58.0663 31.4204 58.0613 31.629 58.0598C31.8836 58.058 32.1983 58.0615 32.551 58.0774C32.7215 58.0687 32.9006 58.0567 33.0853 58.0404C34.2656 57.936 35.4511 57.6727 36.1327 57.1686ZM31 59.0786L30.9341 60.0764C30.4086 60.0417 30 59.6053 30 59.0786C30 58.5519 30.4086 58.1154 30.9341 58.0808L31 59.0786ZM58.2923 59.0786L58.3582 58.0808C58.8837 58.1154 59.2923 58.5519 59.2923 59.0786C59.2923 59.6053 58.8837 60.0417 58.3582 60.0764L58.2923 59.0786ZM36.8537 59.0786C37.0172 59.1707 37.1743 59.2714 37.3229 59.3813C39.1494 60.7332 41.5158 62.321 44.6461 62.321C47.7731 62.321 50.1439 60.7362 51.9683 59.3821L51.9694 59.3813C52.118 59.2714 52.2751 59.1707 52.4386 59.0786C52.2751 58.9865 52.118 58.8858 51.9694 58.7758C50.1429 57.424 47.7765 55.8362 44.6461 55.8362C41.5192 55.8362 39.1484 57.4209 37.324 58.775L37.3229 58.7758C37.1743 58.8858 37.0172 58.9865 36.8537 59.0786ZM75.3542 53.8362C71.5283 53.8362 68.6996 55.7889 66.8407 57.1686C66.1591 57.6727 64.9736 57.936 63.7933 58.0404C63.6086 58.0567 63.4295 58.0687 63.259 58.0774C62.9063 58.0615 62.5916 58.058 62.337 58.0598C62.1284 58.0613 61.9585 58.0663 61.839 58.071C61.7792 58.0734 61.732 58.0757 61.6987 58.0775L61.6594 58.0797L61.648 58.0804L61.6443 58.0806L61.6431 58.0807H61.6426C61.6423 58.0807 61.6421 58.0808 61.708 59.0786L61.6421 58.0808C61.1166 58.1154 60.708 58.5519 60.708 59.0786C60.708 59.6053 61.1166 60.0417 61.6421 60.0764L61.708 59.0786C61.6421 60.0764 61.6423 60.0764 61.6426 60.0764L61.6431 60.0765L61.6443 60.0766L61.648 60.0768L61.6594 60.0775L61.6987 60.0797L61.759 60.0827C61.7699 60.0832 61.7815 60.0837 61.7939 60.0843C61.808 60.0849 61.8231 60.0855 61.839 60.0862C61.9585 60.0909 62.1284 60.0959 62.337 60.0973C62.5916 60.0991 62.9063 60.0957 63.259 60.0797C63.4295 60.0884 63.6086 60.1005 63.7933 60.1168C64.9738 60.2212 66.1597 60.4846 66.8411 60.9889C68.698 62.3633 71.5236 64.321 75.3542 64.321C79.1799 64.321 82.0085 62.3684 83.8675 60.9887C84.549 60.4845 85.7347 60.2212 86.915 60.1168C87.0997 60.1005 87.2789 60.0884 87.4493 60.0797C87.802 60.0957 88.1167 60.0991 88.3713 60.0973C88.5799 60.0959 88.7498 60.0909 88.8693 60.0862C88.9291 60.0838 88.9763 60.0815 89.0096 60.0797L89.0489 60.0775L89.0603 60.0768L89.064 60.0766L89.0653 60.0765L89.0658 60.0764C89.066 60.0764 89.0662 60.0764 89.0003 59.0786L89.0662 60.0764C89.5918 60.0417 90.0003 59.6053 90.0003 59.0786C90.0003 58.5519 89.5917 58.1154 89.0662 58.0808L89.0003 59.0786C89.0662 58.0808 89.066 58.0807 89.0658 58.0807H89.0653L89.064 58.0806L89.0603 58.0804L89.0489 58.0797L89.0096 58.0775C88.9763 58.0757 88.9291 58.0734 88.8693 58.071C88.7498 58.0663 88.5799 58.0613 88.3713 58.0598C88.1167 58.058 87.802 58.0615 87.4493 58.0774C87.2789 58.0687 87.0997 58.0567 86.915 58.0404C85.7345 57.936 84.5487 57.6726 83.8672 57.1682C82.0103 55.7939 79.1847 53.8362 75.3542 53.8362ZM68.0309 59.3813C67.8823 59.2714 67.7253 59.1707 67.5617 59.0786C67.7253 58.9865 67.8823 58.8858 68.0309 58.7758L68.032 58.775C69.8564 57.4209 72.2272 55.8362 75.3542 55.8362C78.4845 55.8362 80.8509 57.424 82.6774 58.7758C82.826 58.8858 82.9831 58.9865 83.1466 59.0786C82.9831 59.1707 82.826 59.2714 82.6774 59.3813L82.6763 59.3821C80.8519 60.7362 78.4812 62.321 75.3542 62.321C72.2238 62.321 69.8574 60.7332 68.0309 59.3813ZM60.0498 62.2336L60.7698 61.5397C60.5813 61.3441 60.3214 61.2336 60.0498 61.2336C59.7782 61.2336 59.5182 61.3441 59.3298 61.5397L60.0498 62.2336ZM60.0498 62.2336C60.7698 61.5397 60.7702 61.5401 60.7707 61.5406L60.7718 61.5418L60.7747 61.5448L60.7833 61.5539L60.8112 61.5836C60.8344 61.6085 60.8666 61.6437 60.9071 61.689C60.988 61.7794 61.1016 61.91 61.2404 62.0789C61.5177 62.4165 61.8965 62.9083 62.3154 63.5387C63.1518 64.7972 64.1575 66.6224 64.8293 68.8888C66.1862 73.4664 66.1484 79.7545 60.842 86.6442C60.6527 86.89 60.36 87.034 60.0498 87.034C59.7395 87.034 59.4468 86.89 59.2575 86.6442C53.9512 79.7545 53.9133 73.4664 55.2703 68.8888C55.9421 66.6224 56.9478 64.7972 57.7841 63.5387C58.2031 62.9083 58.5818 62.4165 58.8592 62.0789C58.9979 61.91 59.1116 61.7794 59.1925 61.689C59.2329 61.6437 59.2652 61.6085 59.2884 61.5836L59.3162 61.5539L59.3248 61.5448L59.3278 61.5418L59.3289 61.5406C59.3293 61.5401 59.3298 61.5397 60.0498 62.2336ZM59.4499 64.6456C59.6665 64.3196 59.8702 64.0364 60.0498 63.7991C60.2294 64.0364 60.433 64.3196 60.6497 64.6456C61.4053 65.7827 62.31 67.4271 62.9118 69.4572C64.0337 73.2423 64.1317 78.4461 60.0498 84.3404C55.9678 78.4461 56.0658 73.2423 57.1878 69.4572C57.7896 67.4271 58.6942 65.7827 59.4499 64.6456Z" fill="url(#paint1_linear_1648_7754)" fill-opacity="0.9"/>
</g>
<defs>
<linearGradient id="paint0_linear_1648_7754" x1="60" y1="0" x2="60" y2="120" gradientUnits="userSpaceOnUse">
<stop stop-color="#E6F7E6"/>
<stop offset="1" stop-color="#E6F7E6" stop-opacity="0"/>
</linearGradient>
<linearGradient id="paint1_linear_1648_7754" x1="30" y1="87.034" x2="100.64" y2="61.8864" gradientUnits="userSpaceOnUse">
<stop stop-color="#00476E"/>
<stop offset="1" stop-color="#398137"/>
</linearGradient>
<clipPath id="clip0_1648_7754">
<rect width="60" height="60" fill="white" transform="translate(30 30)"/>
</clipPath>
</defs>
</svg>
