<svg width="1062" height="448" viewBox="0 0 1062 448" fill="none" xmlns="http://www.w3.org/2000/svg">
<rect width="1062" height="448" rx="24" fill="#F7FAFB"/>
<line x1="120" y1="374.5" x2="968" y2="374.5" stroke="#EAEFF3"/>
<line x1="120" y1="322.5" x2="968" y2="322.5" stroke="#EAEFF3"/>
<line x1="120" y1="270.5" x2="968" y2="270.5" stroke="#EAEFF3"/>
<line x1="120" y1="218.5" x2="968" y2="218.5" stroke="#EAEFF3"/>
<line x1="120" y1="166.5" x2="968" y2="166.5" stroke="#EAEFF3"/>
<line x1="119.5" y1="375" x2="119.5" y2="130" stroke="#EAEFF3"/>
<line x1="291.5" y1="375" x2="291.5" y2="130" stroke="#EAEFF3"/>
<line x1="463.5" y1="375" x2="463.5" y2="130" stroke="#EAEFF3"/>
<line x1="635.5" y1="375" x2="635.5" y2="130" stroke="#EAEFF3"/>
<line x1="807.5" y1="375" x2="807.5" y2="130" stroke="#EAEFF3"/>
<line x1="967.5" y1="375" x2="967.5" y2="130" stroke="#EAEFF3"/>
<path d="M119.5 270C119.5 270 242 236 291 218.5C340 201 404 155.136 463 167.499C522 179.863 587.49 372 636 372C684.51 372 806 270.499 806 270.499" stroke="#59CA56" stroke-width="3" stroke-linecap="round"/>
<path d="M119.5 321.001C119.5 321.001 233.5 173.5 292 167.5C350.5 161.5 421.834 196.34 463.5 219.5C505.166 242.66 585.978 323.001 634.5 323.001C683.022 323.001 806.5 219.001 806.5 219.001" stroke="#009FF5" stroke-width="3" stroke-linecap="round"/>
<path d="M120 321C120 321 222.409 287.889 291.5 269C360.591 250.111 418 220 463.5 220C509 220 570 272 636.5 272C703 272 806.5 219 806.5 219" stroke="#AA00FF" stroke-width="3" stroke-linecap="round"/>
<g filter="url(#filter0_d_19_26)">
<rect x="434" y="88" width="60" height="60" rx="16" fill="white"/>
<rect x="464.213" y="114" width="30.0001" height="30.0001" rx="2" transform="rotate(45 464.213 114)" fill="white"/>
</g>
<g filter="url(#filter1_d_19_26)">
<path d="M472.923 179.03C473.098 179.451 472.93 181.045 472 181.414C471.07 181.784 469.882 181.414 469.882 181.414L467.726 177.102L464 180.828V164L475.414 175.414H471.162C471.37 175.814 472.7 178.495 472.923 179.03Z" fill="white"/>
<path fill-rule="evenodd" clip-rule="evenodd" d="M465 166.414V178.414L468 175.414L470.5 180.414C470.5 180.414 471.176 180.63 471.5 180.414C471.824 180.198 472.146 179.764 472 179.414C471.312 177.764 469.5 174.414 469.5 174.414H473L465 166.414Z" fill="black"/>
</g>
<path d="M448.237 399V398.233L451.118 395.08C451.456 394.71 451.735 394.389 451.953 394.116C452.172 393.841 452.334 393.582 452.439 393.341C452.547 393.097 452.601 392.841 452.601 392.574C452.601 392.267 452.527 392.001 452.379 391.777C452.235 391.553 452.036 391.379 451.783 391.257C451.53 391.135 451.246 391.074 450.931 391.074C450.595 391.074 450.303 391.143 450.053 391.283C449.806 391.419 449.614 391.611 449.477 391.858C449.344 392.105 449.277 392.395 449.277 392.727H448.271C448.271 392.216 448.389 391.767 448.625 391.381C448.861 390.994 449.182 390.693 449.588 390.477C449.997 390.261 450.456 390.153 450.965 390.153C451.476 390.153 451.929 390.261 452.324 390.477C452.719 390.693 453.029 390.984 453.253 391.351C453.477 391.717 453.59 392.125 453.59 392.574C453.59 392.895 453.531 393.209 453.415 393.516C453.301 393.82 453.102 394.159 452.818 394.534C452.537 394.906 452.146 395.361 451.646 395.898L449.686 397.994V398.062H453.743V399H448.237ZM458.401 399.119C458.043 399.114 457.685 399.045 457.327 398.915C456.969 398.784 456.642 398.564 456.347 398.254C456.051 397.942 455.814 397.52 455.635 396.989C455.456 396.455 455.367 395.784 455.367 394.977C455.367 394.205 455.439 393.52 455.584 392.923C455.729 392.324 455.939 391.82 456.215 391.411C456.49 390.999 456.823 390.686 457.212 390.473C457.604 390.26 458.046 390.153 458.537 390.153C459.026 390.153 459.46 390.251 459.841 390.447C460.225 390.641 460.537 390.911 460.779 391.257C461.02 391.604 461.176 392.003 461.247 392.455H460.208C460.111 392.062 459.923 391.737 459.645 391.479C459.367 391.22 458.997 391.091 458.537 391.091C457.861 391.091 457.328 391.385 456.939 391.973C456.553 392.561 456.358 393.386 456.355 394.449H456.423C456.583 394.207 456.771 394.001 456.99 393.831C457.212 393.658 457.456 393.524 457.723 393.43C457.99 393.337 458.273 393.29 458.571 393.29C459.071 393.29 459.529 393.415 459.943 393.665C460.358 393.912 460.691 394.254 460.941 394.692C461.191 395.126 461.316 395.625 461.316 396.188C461.316 396.727 461.195 397.222 460.953 397.67C460.712 398.116 460.372 398.472 459.935 398.736C459.5 398.997 458.989 399.125 458.401 399.119ZM458.401 398.182C458.759 398.182 459.08 398.092 459.364 397.913C459.651 397.734 459.877 397.494 460.041 397.193C460.209 396.892 460.293 396.557 460.293 396.188C460.293 395.827 460.212 395.499 460.05 395.203C459.891 394.905 459.671 394.668 459.389 394.491C459.111 394.315 458.793 394.227 458.435 394.227C458.165 394.227 457.914 394.281 457.681 394.389C457.448 394.494 457.243 394.639 457.067 394.824C456.894 395.009 456.757 395.22 456.658 395.459C456.558 395.695 456.509 395.943 456.509 396.205C456.509 396.551 456.59 396.875 456.752 397.176C456.916 397.477 457.141 397.72 457.425 397.905C457.712 398.089 458.037 398.182 458.401 398.182ZM463.331 399.068C463.121 399.068 462.941 398.993 462.79 398.842C462.639 398.692 462.564 398.511 462.564 398.301C462.564 398.091 462.639 397.911 462.79 397.76C462.941 397.609 463.121 397.534 463.331 397.534C463.541 397.534 463.722 397.609 463.872 397.76C464.023 397.911 464.098 398.091 464.098 398.301C464.098 398.44 464.063 398.568 463.992 398.685C463.923 398.801 463.831 398.895 463.715 398.966C463.601 399.034 463.473 399.068 463.331 399.068ZM468.428 399.119C467.786 399.119 467.239 398.945 466.787 398.595C466.335 398.243 465.99 397.733 465.752 397.065C465.513 396.395 465.394 395.585 465.394 394.636C465.394 393.693 465.513 392.888 465.752 392.22C465.993 391.55 466.34 391.038 466.791 390.686C467.246 390.331 467.791 390.153 468.428 390.153C469.064 390.153 469.608 390.331 470.06 390.686C470.514 391.038 470.861 391.55 471.1 392.22C471.341 392.888 471.462 393.693 471.462 394.636C471.462 395.585 471.343 396.395 471.104 397.065C470.865 397.733 470.52 398.243 470.068 398.595C469.617 398.945 469.07 399.119 468.428 399.119ZM468.428 398.182C469.064 398.182 469.558 397.875 469.911 397.261C470.263 396.648 470.439 395.773 470.439 394.636C470.439 393.881 470.358 393.237 470.196 392.706C470.037 392.175 469.807 391.77 469.506 391.491C469.208 391.213 468.848 391.074 468.428 391.074C467.797 391.074 467.304 391.385 466.949 392.007C466.594 392.626 466.416 393.503 466.416 394.636C466.416 395.392 466.496 396.034 466.655 396.562C466.814 397.091 467.043 397.493 467.341 397.768C467.642 398.044 468.004 398.182 468.428 398.182ZM475.979 399.119C475.621 399.114 475.263 399.045 474.905 398.915C474.547 398.784 474.22 398.564 473.925 398.254C473.629 397.942 473.392 397.52 473.213 396.989C473.034 396.455 472.945 395.784 472.945 394.977C472.945 394.205 473.017 393.52 473.162 392.923C473.307 392.324 473.517 391.82 473.793 391.411C474.068 390.999 474.401 390.686 474.79 390.473C475.182 390.26 475.624 390.153 476.115 390.153C476.604 390.153 477.039 390.251 477.419 390.447C477.803 390.641 478.115 390.911 478.357 391.257C478.598 391.604 478.754 392.003 478.825 392.455H477.786C477.689 392.062 477.502 391.737 477.223 391.479C476.945 391.22 476.575 391.091 476.115 391.091C475.439 391.091 474.906 391.385 474.517 391.973C474.131 392.561 473.936 393.386 473.933 394.449H474.002C474.161 394.207 474.35 394.001 474.568 393.831C474.79 393.658 475.034 393.524 475.301 393.43C475.568 393.337 475.851 393.29 476.149 393.29C476.649 393.29 477.107 393.415 477.521 393.665C477.936 393.912 478.269 394.254 478.519 394.692C478.769 395.126 478.894 395.625 478.894 396.188C478.894 396.727 478.773 397.222 478.531 397.67C478.29 398.116 477.95 398.472 477.513 398.736C477.078 398.997 476.567 399.125 475.979 399.119ZM475.979 398.182C476.337 398.182 476.658 398.092 476.942 397.913C477.229 397.734 477.455 397.494 477.619 397.193C477.787 396.892 477.871 396.557 477.871 396.188C477.871 395.827 477.79 395.499 477.628 395.203C477.469 394.905 477.249 394.668 476.968 394.491C476.689 394.315 476.371 394.227 476.013 394.227C475.743 394.227 475.492 394.281 475.259 394.389C475.026 394.494 474.821 394.639 474.645 394.824C474.472 395.009 474.335 395.22 474.236 395.459C474.137 395.695 474.087 395.943 474.087 396.205C474.087 396.551 474.168 396.875 474.33 397.176C474.494 397.477 474.719 397.72 475.003 397.905C475.29 398.089 475.615 398.182 475.979 398.182Z" fill="#577084"/>
<path d="M620.185 399V398.233L623.065 395.08C623.403 394.71 623.682 394.389 623.901 394.116C624.119 393.841 624.281 393.582 624.386 393.341C624.494 393.097 624.548 392.841 624.548 392.574C624.548 392.267 624.474 392.001 624.327 391.777C624.182 391.553 623.983 391.379 623.73 391.257C623.477 391.135 623.193 391.074 622.878 391.074C622.543 391.074 622.25 391.143 622 391.283C621.753 391.419 621.561 391.611 621.425 391.858C621.291 392.105 621.224 392.395 621.224 392.727H620.219C620.219 392.216 620.337 391.767 620.572 391.381C620.808 390.994 621.129 390.693 621.536 390.477C621.945 390.261 622.403 390.153 622.912 390.153C623.423 390.153 623.876 390.261 624.271 390.477C624.666 390.693 624.976 390.984 625.2 391.351C625.425 391.717 625.537 392.125 625.537 392.574C625.537 392.895 625.479 393.209 625.362 393.516C625.249 393.82 625.05 394.159 624.766 394.534C624.484 394.906 624.094 395.361 623.594 395.898L621.634 397.994V398.062H625.69V399H620.185ZM630.229 390.153C630.587 390.156 630.945 390.224 631.303 390.358C631.661 390.491 631.987 390.713 632.283 391.023C632.578 391.33 632.815 391.749 632.994 392.28C633.173 392.811 633.263 393.477 633.263 394.278C633.263 395.054 633.189 395.743 633.041 396.345C632.896 396.945 632.686 397.45 632.411 397.862C632.138 398.274 631.805 398.587 631.413 398.8C631.024 399.013 630.584 399.119 630.092 399.119C629.604 399.119 629.168 399.023 628.784 398.83C628.403 398.634 628.091 398.362 627.847 398.016C627.605 397.666 627.45 397.261 627.382 396.801H628.422C628.516 397.202 628.702 397.533 628.98 397.794C629.261 398.053 629.632 398.182 630.092 398.182C630.766 398.182 631.297 397.888 631.686 397.3C632.078 396.712 632.274 395.881 632.274 394.807H632.206C632.047 395.045 631.858 395.251 631.639 395.425C631.42 395.598 631.178 395.732 630.911 395.825C630.643 395.919 630.359 395.966 630.058 395.966C629.558 395.966 629.099 395.842 628.682 395.595C628.267 395.345 627.935 395.003 627.685 394.568C627.438 394.131 627.314 393.631 627.314 393.068C627.314 392.534 627.433 392.045 627.672 391.602C627.913 391.156 628.251 390.801 628.686 390.537C629.124 390.273 629.638 390.145 630.229 390.153ZM630.229 391.091C629.871 391.091 629.548 391.18 629.261 391.359C628.977 391.536 628.751 391.774 628.584 392.075C628.419 392.374 628.337 392.705 628.337 393.068C628.337 393.432 628.416 393.763 628.575 394.061C628.737 394.357 628.957 394.592 629.236 394.768C629.517 394.942 629.837 395.028 630.195 395.028C630.464 395.028 630.716 394.976 630.949 394.871C631.182 394.763 631.385 394.616 631.558 394.432C631.734 394.244 631.872 394.033 631.972 393.797C632.071 393.558 632.121 393.31 632.121 393.051C632.121 392.71 632.038 392.391 631.874 392.092C631.712 391.794 631.487 391.553 631.2 391.368C630.916 391.183 630.592 391.091 630.229 391.091ZM635.384 399.068C635.174 399.068 634.993 398.993 634.843 398.842C634.692 398.692 634.617 398.511 634.617 398.301C634.617 398.091 634.692 397.911 634.843 397.76C634.993 397.609 635.174 397.534 635.384 397.534C635.594 397.534 635.775 397.609 635.925 397.76C636.076 397.911 636.151 398.091 636.151 398.301C636.151 398.44 636.115 398.568 636.044 398.685C635.976 398.801 635.884 398.895 635.767 398.966C635.654 399.034 635.526 399.068 635.384 399.068ZM640.48 399.119C639.838 399.119 639.292 398.945 638.84 398.595C638.388 398.243 638.043 397.733 637.804 397.065C637.566 396.395 637.446 395.585 637.446 394.636C637.446 393.693 637.566 392.888 637.804 392.22C638.046 391.55 638.392 391.038 638.844 390.686C639.299 390.331 639.844 390.153 640.48 390.153C641.117 390.153 641.661 390.331 642.113 390.686C642.567 391.038 642.914 391.55 643.152 392.22C643.394 392.888 643.515 393.693 643.515 394.636C643.515 395.585 643.395 396.395 643.157 397.065C642.918 397.733 642.573 398.243 642.121 398.595C641.669 398.945 641.123 399.119 640.48 399.119ZM640.48 398.182C641.117 398.182 641.611 397.875 641.963 397.261C642.316 396.648 642.492 395.773 642.492 394.636C642.492 393.881 642.411 393.237 642.249 392.706C642.09 392.175 641.86 391.77 641.559 391.491C641.26 391.213 640.901 391.074 640.48 391.074C639.85 391.074 639.357 391.385 639.002 392.007C638.647 392.626 638.469 393.503 638.469 394.636C638.469 395.392 638.549 396.034 638.708 396.562C638.867 397.091 639.096 397.493 639.394 397.768C639.695 398.044 640.057 398.182 640.48 398.182ZM648.032 399.119C647.674 399.114 647.316 399.045 646.958 398.915C646.6 398.784 646.273 398.564 645.978 398.254C645.682 397.942 645.445 397.52 645.266 396.989C645.087 396.455 644.998 395.784 644.998 394.977C644.998 394.205 645.07 393.52 645.215 392.923C645.36 392.324 645.57 391.82 645.846 391.411C646.121 390.999 646.453 390.686 646.843 390.473C647.235 390.26 647.676 390.153 648.168 390.153C648.657 390.153 649.091 390.251 649.472 390.447C649.855 390.641 650.168 390.911 650.409 391.257C650.651 391.604 650.807 392.003 650.878 392.455H649.838C649.742 392.062 649.554 391.737 649.276 391.479C648.998 391.22 648.628 391.091 648.168 391.091C647.492 391.091 646.959 391.385 646.57 391.973C646.184 392.561 645.989 393.386 645.986 394.449H646.054C646.213 394.207 646.402 394.001 646.621 393.831C646.843 393.658 647.087 393.524 647.354 393.43C647.621 393.337 647.904 393.29 648.202 393.29C648.702 393.29 649.159 393.415 649.574 393.665C649.989 393.912 650.321 394.254 650.571 394.692C650.821 395.126 650.946 395.625 650.946 396.188C650.946 396.727 650.826 397.222 650.584 397.67C650.343 398.116 650.003 398.472 649.566 398.736C649.131 398.997 648.62 399.125 648.032 399.119ZM648.032 398.182C648.39 398.182 648.711 398.092 648.995 397.913C649.282 397.734 649.507 397.494 649.672 397.193C649.84 396.892 649.924 396.557 649.924 396.188C649.924 395.827 649.843 395.499 649.681 395.203C649.522 394.905 649.301 394.668 649.02 394.491C648.742 394.315 648.424 394.227 648.066 394.227C647.796 394.227 647.544 394.281 647.311 394.389C647.078 394.494 646.874 394.639 646.698 394.824C646.525 395.009 646.388 395.22 646.289 395.459C646.189 395.695 646.14 395.943 646.14 396.205C646.14 396.551 646.221 396.875 646.382 397.176C646.547 397.477 646.772 397.72 647.056 397.905C647.343 398.089 647.668 398.182 648.032 398.182Z" fill="#577084"/>
<path d="M796.908 399.119C796.266 399.119 795.719 398.945 795.268 398.595C794.816 398.243 794.471 397.733 794.232 397.065C793.993 396.395 793.874 395.585 793.874 394.636C793.874 393.693 793.993 392.888 794.232 392.22C794.474 391.55 794.82 391.038 795.272 390.686C795.726 390.331 796.272 390.153 796.908 390.153C797.545 390.153 798.089 390.331 798.54 390.686C798.995 391.038 799.341 391.55 799.58 392.22C799.822 392.888 799.942 393.693 799.942 394.636C799.942 395.585 799.823 396.395 799.584 397.065C799.346 397.733 799.001 398.243 798.549 398.595C798.097 398.945 797.55 399.119 796.908 399.119ZM796.908 398.182C797.545 398.182 798.039 397.875 798.391 397.261C798.743 396.648 798.92 395.773 798.92 394.636C798.92 393.881 798.839 393.237 798.677 392.706C798.518 392.175 798.287 391.77 797.986 391.491C797.688 391.213 797.329 391.074 796.908 391.074C796.278 391.074 795.785 391.385 795.43 392.007C795.074 392.626 794.897 393.503 794.897 394.636C794.897 395.392 794.976 396.034 795.135 396.562C795.295 397.091 795.523 397.493 795.822 397.768C796.123 398.044 796.485 398.182 796.908 398.182ZM804.63 390.273V399H803.573V391.381H803.522L801.391 392.795V391.722L803.573 390.273H804.63ZM807.374 399.068C807.164 399.068 806.983 398.993 806.833 398.842C806.682 398.692 806.607 398.511 806.607 398.301C806.607 398.091 806.682 397.911 806.833 397.76C806.983 397.609 807.164 397.534 807.374 397.534C807.584 397.534 807.765 397.609 807.915 397.76C808.066 397.911 808.141 398.091 808.141 398.301C808.141 398.44 808.106 398.568 808.035 398.685C807.966 398.801 807.874 398.895 807.758 398.966C807.644 399.034 807.516 399.068 807.374 399.068ZM812.471 399.119C811.829 399.119 811.282 398.945 810.83 398.595C810.378 398.243 810.033 397.733 809.795 397.065C809.556 396.395 809.437 395.585 809.437 394.636C809.437 393.693 809.556 392.888 809.795 392.22C810.036 391.55 810.383 391.038 810.834 390.686C811.289 390.331 811.834 390.153 812.471 390.153C813.107 390.153 813.651 390.331 814.103 390.686C814.557 391.038 814.904 391.55 815.143 392.22C815.384 392.888 815.505 393.693 815.505 394.636C815.505 395.585 815.385 396.395 815.147 397.065C814.908 397.733 814.563 398.243 814.111 398.595C813.66 398.945 813.113 399.119 812.471 399.119ZM812.471 398.182C813.107 398.182 813.601 397.875 813.954 397.261C814.306 396.648 814.482 395.773 814.482 394.636C814.482 393.881 814.401 393.237 814.239 392.706C814.08 392.175 813.85 391.77 813.549 391.491C813.251 391.213 812.891 391.074 812.471 391.074C811.84 391.074 811.347 391.385 810.992 392.007C810.637 392.626 810.459 393.503 810.459 394.636C810.459 395.392 810.539 396.034 810.698 396.562C810.857 397.091 811.086 397.493 811.384 397.768C811.685 398.044 812.047 398.182 812.471 398.182ZM817.162 399L821.066 391.278V391.21H816.566V390.273H822.157V391.261L818.27 399H817.162Z" fill="#577084"/>
<path d="M955.795 399.119C955.153 399.119 954.606 398.945 954.154 398.595C953.703 398.243 953.357 397.733 953.119 397.065C952.88 396.395 952.761 395.585 952.761 394.636C952.761 393.693 952.88 392.888 953.119 392.22C953.36 391.55 953.707 391.038 954.159 390.686C954.613 390.331 955.159 390.153 955.795 390.153C956.431 390.153 956.975 390.331 957.427 390.686C957.882 391.038 958.228 391.55 958.467 392.22C958.708 392.888 958.829 393.693 958.829 394.636C958.829 395.585 958.71 396.395 958.471 397.065C958.232 397.733 957.887 398.243 957.436 398.595C956.984 398.945 956.437 399.119 955.795 399.119ZM955.795 398.182C956.431 398.182 956.926 397.875 957.278 397.261C957.63 396.648 957.806 395.773 957.806 394.636C957.806 393.881 957.725 393.237 957.563 392.706C957.404 392.175 957.174 391.77 956.873 391.491C956.575 391.213 956.215 391.074 955.795 391.074C955.164 391.074 954.671 391.385 954.316 392.007C953.961 392.626 953.784 393.503 953.784 394.636C953.784 395.392 953.863 396.034 954.022 396.562C954.181 397.091 954.41 397.493 954.708 397.768C955.009 398.044 955.372 398.182 955.795 398.182ZM960.244 397.21V396.341L964.079 390.273H964.71V391.619H964.284L961.386 396.205V396.273H966.551V397.21H960.244ZM964.352 399V396.946V396.541V390.273H965.357V399H964.352ZM968.487 399.068C968.277 399.068 968.097 398.993 967.946 398.842C967.796 398.692 967.72 398.511 967.72 398.301C967.72 398.091 967.796 397.911 967.946 397.76C968.097 397.609 968.277 397.534 968.487 397.534C968.698 397.534 968.878 397.609 969.029 397.76C969.179 397.911 969.254 398.091 969.254 398.301C969.254 398.44 969.219 398.568 969.148 398.685C969.08 398.801 968.987 398.895 968.871 398.966C968.757 399.034 968.629 399.068 968.487 399.068ZM973.584 399.119C972.942 399.119 972.395 398.945 971.943 398.595C971.492 398.243 971.146 397.733 970.908 397.065C970.669 396.395 970.55 395.585 970.55 394.636C970.55 393.693 970.669 392.888 970.908 392.22C971.149 391.55 971.496 391.038 971.948 390.686C972.402 390.331 972.948 390.153 973.584 390.153C974.22 390.153 974.764 390.331 975.216 390.686C975.671 391.038 976.017 391.55 976.256 392.22C976.497 392.888 976.618 393.693 976.618 394.636C976.618 395.585 976.499 396.395 976.26 397.065C976.021 397.733 975.676 398.243 975.225 398.595C974.773 398.945 974.226 399.119 973.584 399.119ZM973.584 398.182C974.22 398.182 974.715 397.875 975.067 397.261C975.419 396.648 975.595 395.773 975.595 394.636C975.595 393.881 975.514 393.237 975.352 392.706C975.193 392.175 974.963 391.77 974.662 391.491C974.364 391.213 974.004 391.074 973.584 391.074C972.953 391.074 972.46 391.385 972.105 392.007C971.75 392.626 971.573 393.503 971.573 394.636C971.573 395.392 971.652 396.034 971.811 396.562C971.97 397.091 972.199 397.493 972.497 397.768C972.798 398.044 973.161 398.182 973.584 398.182ZM978.276 399L982.179 391.278V391.21H977.679V390.273H983.27V391.261L979.384 399H978.276Z" fill="#577084"/>
<path d="M276.091 399V398.233L278.972 395.08C279.31 394.71 279.588 394.389 279.807 394.116C280.026 393.841 280.188 393.582 280.293 393.341C280.401 393.097 280.455 392.841 280.455 392.574C280.455 392.267 280.381 392.001 280.233 391.777C280.088 391.553 279.889 391.379 279.636 391.257C279.384 391.135 279.099 391.074 278.784 391.074C278.449 391.074 278.156 391.143 277.906 391.283C277.659 391.419 277.467 391.611 277.331 391.858C277.197 392.105 277.131 392.395 277.131 392.727H276.125C276.125 392.216 276.243 391.767 276.479 391.381C276.714 390.994 277.036 390.693 277.442 390.477C277.851 390.261 278.31 390.153 278.818 390.153C279.33 390.153 279.783 390.261 280.178 390.477C280.572 390.693 280.882 390.984 281.107 391.351C281.331 391.717 281.443 392.125 281.443 392.574C281.443 392.895 281.385 393.209 281.268 393.516C281.155 393.82 280.956 394.159 280.672 394.534C280.391 394.906 280 395.361 279.5 395.898L277.54 397.994V398.062H281.597V399H276.091ZM286.305 399.119C285.743 399.119 285.241 399.023 284.801 398.83C284.364 398.636 284.016 398.368 283.757 398.024C283.501 397.678 283.362 397.276 283.339 396.818H284.413C284.436 397.099 284.533 397.342 284.703 397.547C284.874 397.749 285.097 397.905 285.372 398.016C285.648 398.126 285.953 398.182 286.288 398.182C286.663 398.182 286.996 398.116 287.286 397.986C287.575 397.855 287.803 397.673 287.967 397.44C288.132 397.207 288.214 396.938 288.214 396.631C288.214 396.31 288.135 396.027 287.976 395.783C287.817 395.536 287.584 395.342 287.277 395.203C286.97 395.064 286.595 394.994 286.152 394.994H285.453V394.057H286.152C286.499 394.057 286.803 393.994 287.064 393.869C287.328 393.744 287.534 393.568 287.682 393.341C287.832 393.114 287.908 392.847 287.908 392.54C287.908 392.244 287.842 391.987 287.712 391.768C287.581 391.55 287.396 391.379 287.158 391.257C286.922 391.135 286.643 391.074 286.322 391.074C286.021 391.074 285.737 391.129 285.47 391.24C285.206 391.348 284.99 391.506 284.822 391.713C284.655 391.918 284.564 392.165 284.55 392.455H283.527C283.544 391.997 283.682 391.597 283.94 391.253C284.199 390.906 284.537 390.636 284.955 390.443C285.375 390.25 285.837 390.153 286.339 390.153C286.879 390.153 287.342 390.263 287.729 390.482C288.115 390.697 288.412 390.983 288.619 391.338C288.827 391.693 288.93 392.077 288.93 392.489C288.93 392.98 288.801 393.399 288.543 393.746C288.287 394.092 287.939 394.332 287.499 394.466V394.534C288.05 394.625 288.48 394.859 288.79 395.237C289.099 395.612 289.254 396.077 289.254 396.631C289.254 397.105 289.125 397.531 288.866 397.909C288.611 398.284 288.261 398.58 287.818 398.795C287.375 399.011 286.871 399.119 286.305 399.119ZM291.478 399.068C291.267 399.068 291.087 398.993 290.936 398.842C290.786 398.692 290.711 398.511 290.711 398.301C290.711 398.091 290.786 397.911 290.936 397.76C291.087 397.609 291.267 397.534 291.478 397.534C291.688 397.534 291.868 397.609 292.019 397.76C292.169 397.911 292.245 398.091 292.245 398.301C292.245 398.44 292.209 398.568 292.138 398.685C292.07 398.801 291.978 398.895 291.861 398.966C291.748 399.034 291.62 399.068 291.478 399.068ZM296.574 399.119C295.932 399.119 295.385 398.945 294.934 398.595C294.482 398.243 294.137 397.733 293.898 397.065C293.659 396.395 293.54 395.585 293.54 394.636C293.54 393.693 293.659 392.888 293.898 392.22C294.14 391.55 294.486 391.038 294.938 390.686C295.392 390.331 295.938 390.153 296.574 390.153C297.211 390.153 297.755 390.331 298.206 390.686C298.661 391.038 299.007 391.55 299.246 392.22C299.488 392.888 299.608 393.693 299.608 394.636C299.608 395.585 299.489 396.395 299.25 397.065C299.012 397.733 298.667 398.243 298.215 398.595C297.763 398.945 297.216 399.119 296.574 399.119ZM296.574 398.182C297.211 398.182 297.705 397.875 298.057 397.261C298.409 396.648 298.586 395.773 298.586 394.636C298.586 393.881 298.505 393.237 298.343 392.706C298.184 392.175 297.953 391.77 297.652 391.491C297.354 391.213 296.995 391.074 296.574 391.074C295.944 391.074 295.451 391.385 295.096 392.007C294.74 392.626 294.563 393.503 294.563 394.636C294.563 395.392 294.642 396.034 294.801 396.562C294.961 397.091 295.189 397.493 295.488 397.768C295.789 398.044 296.151 398.182 296.574 398.182ZM304.125 399.119C303.767 399.114 303.409 399.045 303.051 398.915C302.694 398.784 302.367 398.564 302.071 398.254C301.776 397.942 301.539 397.52 301.36 396.989C301.181 396.455 301.091 395.784 301.091 394.977C301.091 394.205 301.164 393.52 301.309 392.923C301.453 392.324 301.664 391.82 301.939 391.411C302.215 390.999 302.547 390.686 302.936 390.473C303.328 390.26 303.77 390.153 304.262 390.153C304.75 390.153 305.185 390.251 305.566 390.447C305.949 390.641 306.262 390.911 306.503 391.257C306.745 391.604 306.901 392.003 306.972 392.455H305.932C305.836 392.062 305.648 391.737 305.37 391.479C305.091 391.22 304.722 391.091 304.262 391.091C303.586 391.091 303.053 391.385 302.664 391.973C302.277 392.561 302.083 393.386 302.08 394.449H302.148C302.307 394.207 302.496 394.001 302.715 393.831C302.936 393.658 303.181 393.524 303.448 393.43C303.715 393.337 303.998 393.29 304.296 393.29C304.796 393.29 305.253 393.415 305.668 393.665C306.083 393.912 306.415 394.254 306.665 394.692C306.915 395.126 307.04 395.625 307.04 396.188C307.04 396.727 306.919 397.222 306.678 397.67C306.436 398.116 306.097 398.472 305.659 398.736C305.225 398.997 304.713 399.125 304.125 399.119ZM304.125 398.182C304.483 398.182 304.804 398.092 305.088 397.913C305.375 397.734 305.601 397.494 305.766 397.193C305.934 396.892 306.017 396.557 306.017 396.188C306.017 395.827 305.936 395.499 305.775 395.203C305.615 394.905 305.395 394.668 305.114 394.491C304.836 394.315 304.517 394.227 304.159 394.227C303.89 394.227 303.638 394.281 303.405 394.389C303.172 394.494 302.968 394.639 302.792 394.824C302.618 395.009 302.482 395.22 302.382 395.459C302.283 395.695 302.233 395.943 302.233 396.205C302.233 396.551 302.314 396.875 302.476 397.176C302.641 397.477 302.865 397.72 303.15 397.905C303.436 398.089 303.762 398.182 304.125 398.182Z" fill="#577084"/>
<circle cx="88" cy="271" r="16" fill="#EAEFF3"/>
<path d="M81 268.5C81 267.671 81.6705 267 82.5 267C83.3295 267 84 267.671 84 268.5C84 269.329 83.3295 270 82.5 270C81.6705 270 81 269.329 81 268.5Z" fill="#577084"/>
<path d="M91.817 268.5C91.817 267.671 92.4875 267 93.317 267C94.1465 267 94.817 267.671 94.817 268.5C94.817 269.329 94.1465 270 93.317 270C92.4875 270 91.817 269.329 91.817 268.5Z" fill="#577084"/>
<path d="M88 283C94.6274 283 100 277.627 100 271C100 264.373 94.6274 259 88 259C81.3726 259 76 264.373 76 271C76 277.627 81.3726 283 88 283Z" stroke="#577084" stroke-width="1.5" stroke-linecap="round" stroke-linejoin="round"/>
<path d="M81.8049 274.277H94.1951" stroke="#577084" stroke-width="1.5" stroke-linecap="round" stroke-linejoin="round"/>
<circle cx="88" cy="167" r="16" fill="#EAEFF3"/>
<path d="M88 179C94.6274 179 100 173.627 100 167C100 160.373 94.6274 155 88 155C81.3726 155 76 160.373 76 167C76 173.627 81.3726 179 88 179Z" stroke="#577084" stroke-width="1.5" stroke-linecap="round" stroke-linejoin="round"/>
<path d="M94.4507 169.009C93.5945 171.759 91.0303 173.755 87.9981 173.755C84.9659 173.755 82.4016 171.759 81.5455 169.009H94.4486H94.4507Z" stroke="#577084" stroke-width="1.5" stroke-linecap="round" stroke-linejoin="round"/>
<path d="M81.2982 164.806C81.5557 164.36 82.0379 164.062 82.5875 164.062C83.1024 164.062 83.556 164.324 83.8237 164.718" stroke="#577084" stroke-width="1.5" stroke-linecap="round" stroke-linejoin="round"/>
<path d="M94.7102 164.806C94.4527 164.36 93.9705 164.062 93.4209 164.062C92.906 164.062 92.4524 164.324 92.1847 164.718" stroke="#577084" stroke-width="1.5" stroke-linecap="round" stroke-linejoin="round"/>
<circle cx="88" cy="375" r="16" fill="#EAEFF3"/>
<path d="M88 387C94.6274 387 100 381.627 100 375C100 368.373 94.6274 363 88 363C81.3726 363 76 368.373 76 375C76 381.627 81.3726 387 88 387Z" stroke="#577084" stroke-width="1.5" stroke-linecap="round" stroke-linejoin="round"/>
<path d="M83.1293 378.001L81.5315 375.001L79.9337 378.001C79.6742 378.479 79.5455 378.736 79.5455 379.178C79.5455 380.275 80.4343 381.164 81.5315 381.164C82.6287 381.164 83.5175 380.275 83.5175 379.178C83.5175 378.736 83.4154 378.55 83.1293 378.001Z" stroke="#577084" stroke-width="1.5" stroke-linecap="round" stroke-linejoin="round"/>
<path d="M84.6127 377.008C85.5955 376.381 86.7642 376.015 88.0168 376.015C89.4246 376.015 90.7261 376.474 91.7763 377.251" stroke="#577084" stroke-width="1.5" stroke-linecap="round" stroke-linejoin="round"/>
<path d="M81.292 372.111C81.5494 372.556 82.0316 372.855 82.5813 372.855C83.0962 372.855 83.5498 372.593 83.8174 372.199" stroke="#577084" stroke-width="1.5" stroke-linecap="round" stroke-linejoin="round"/>
<path d="M94.7039 372.111C94.4465 372.556 93.9643 372.855 93.4146 372.855C92.8997 372.855 92.4461 372.593 92.1785 372.199" stroke="#577084" stroke-width="1.5" stroke-linecap="round" stroke-linejoin="round"/>
<circle cx="88" cy="219" r="16" fill="#EAEFF3"/>
<path d="M88 231C94.6274 231 100 225.627 100 219C100 212.373 94.6274 207 88 207C81.3726 207 76 212.373 76 219C76 225.627 81.3726 231 88 231Z" stroke="#577084" stroke-width="1.5" stroke-linecap="round" stroke-linejoin="round"/>
<path d="M81 216.5C81 215.673 81.6705 215 82.5 215C83.3295 215 84 215.671 84 216.5C84 217.329 83.3295 218 82.5 218C81.6705 218 81 217.329 81 216.5Z" fill="#577084"/>
<path d="M91.8149 216.5C91.8149 215.673 92.4855 215 93.3149 215C94.1444 215 94.8149 215.671 94.8149 216.5C94.8149 217.329 94.1444 218 93.3149 218C92.4855 218 91.8149 217.329 91.8149 216.5Z" fill="#577084"/>
<path d="M94.4542 221.01C93.598 223.76 91.0338 225.756 88.0016 225.756C84.9694 225.756 82.4051 223.76 81.549 221.01" stroke="#577084" stroke-width="1.5" stroke-linecap="round" stroke-linejoin="round"/>
<path d="M82.0619 220.714L80.8318 221.304" stroke="#577084" stroke-width="1.5" stroke-linecap="round" stroke-linejoin="round"/>
<path d="M93.9413 220.714L95.1713 221.304" stroke="#577084" stroke-width="1.5" stroke-linecap="round" stroke-linejoin="round"/>
<circle cx="88" cy="323" r="16" fill="#EAEFF3"/>
<path d="M88 335C94.6274 335 100 329.627 100 323C100 316.373 94.6274 311 88 311C81.3726 311 76 316.373 76 323C76 329.627 81.3726 335 88 335Z" stroke="#577084" stroke-width="1.5" stroke-linecap="round" stroke-linejoin="round"/>
<path d="M81 320.5C81 319.673 81.6705 319 82.5 319C83.3295 319 84 319.671 84 320.5C84 321.329 83.3295 322 82.5 322C81.6705 322 81 321.329 81 320.5Z" fill="#577084"/>
<path d="M91.817 320.5C91.817 319.673 92.4875 319 93.317 319C94.1464 319 94.817 319.671 94.817 320.5C94.817 321.329 94.1464 322 93.317 322C92.4875 322 91.817 321.329 91.817 320.5Z" fill="#577084"/>
<path d="M82.1872 327.91C83.1598 325.664 85.3971 324.093 88.0002 324.093C90.6033 324.093 92.8386 325.662 93.8112 327.908" stroke="#577084" stroke-width="1.5" stroke-linecap="round" stroke-linejoin="round"/>
<circle cx="464" cy="118" r="21" fill="#E5FCE5"/>
<path d="M464 133.75C472.698 133.75 479.75 126.698 479.75 118C479.75 109.302 472.698 102.25 464 102.25C455.302 102.25 448.25 109.302 448.25 118C448.25 126.698 455.302 133.75 464 133.75Z" stroke="#59CA56" stroke-width="2" stroke-linecap="round" stroke-linejoin="round"/>
<path d="M472.467 120.636C471.343 124.246 467.977 126.866 463.998 126.866C460.018 126.866 456.652 124.246 455.529 120.636H472.464H472.467Z" stroke="#59CA56" stroke-width="2" stroke-linecap="round" stroke-linejoin="round"/>
<path d="M455.204 115.12C455.542 114.536 456.175 114.144 456.896 114.144C457.572 114.144 458.167 114.487 458.518 115.005" stroke="#59CA56" stroke-width="2" stroke-linecap="round" stroke-linejoin="round"/>
<path d="M472.807 115.12C472.469 114.536 471.836 114.144 471.115 114.144C470.439 114.144 469.844 114.487 469.492 115.005" stroke="#59CA56" stroke-width="2" stroke-linecap="round" stroke-linejoin="round"/>
<path d="M119 44.8C119 40.3196 119 38.0794 119.872 36.3681C120.639 34.8628 121.863 33.6389 123.368 32.8719C125.079 32 127.32 32 131.8 32H242.2C246.68 32 248.921 32 250.632 32.8719C252.137 33.6389 253.361 34.8628 254.128 36.3681C255 38.0794 255 40.3196 255 44.8V49.2C255 53.6804 255 55.9206 254.128 57.6319C253.361 59.1372 252.137 60.3611 250.632 61.1281C248.921 62 246.68 62 242.2 62H131.8C127.32 62 125.079 62 123.368 61.1281C121.863 60.3611 120.639 59.1372 119.872 57.6319C119 55.9206 119 53.6804 119 49.2V44.8Z" fill="#59CA56"/>
<path d="M146 42L136 52" stroke="white" stroke-width="2" stroke-linecap="round" stroke-linejoin="round"/>
<path d="M136 42L146 52" stroke="white" stroke-width="2" stroke-linecap="round" stroke-linejoin="round"/>
<path d="M168.29 47.1818C168.29 48.4091 168.068 49.4697 167.625 50.3636C167.182 51.2576 166.574 51.947 165.801 52.4318C165.028 52.9167 164.146 53.1591 163.153 53.1591C162.161 53.1591 161.278 52.9167 160.506 52.4318C159.733 51.947 159.125 51.2576 158.682 50.3636C158.239 49.4697 158.017 48.4091 158.017 47.1818C158.017 45.9545 158.239 44.8939 158.682 44C159.125 43.1061 159.733 42.4167 160.506 41.9318C161.278 41.447 162.161 41.2045 163.153 41.2045C164.146 41.2045 165.028 41.447 165.801 41.9318C166.574 42.4167 167.182 43.1061 167.625 44C168.068 44.8939 168.29 45.9545 168.29 47.1818ZM166.926 47.1818C166.926 46.1742 166.758 45.3239 166.42 44.6307C166.087 43.9375 165.634 43.4129 165.062 43.0568C164.494 42.7008 163.858 42.5227 163.153 42.5227C162.449 42.5227 161.811 42.7008 161.239 43.0568C160.67 43.4129 160.218 43.9375 159.881 44.6307C159.547 45.3239 159.381 46.1742 159.381 47.1818C159.381 48.1894 159.547 49.0398 159.881 49.733C160.218 50.4261 160.67 50.9508 161.239 51.3068C161.811 51.6629 162.449 51.8409 163.153 51.8409C163.858 51.8409 164.494 51.6629 165.062 51.3068C165.634 50.9508 166.087 50.4261 166.42 49.733C166.758 49.0398 166.926 48.1894 166.926 47.1818ZM182.386 51.75L182.227 55.5H180.841V53H179.705V51.75H182.386ZM170.477 44.2727H171.818V51.75H175.114V44.2727H176.455V51.75H179.75V44.2727H181.091V53H170.477V44.2727ZM185.2 56.2727C184.973 56.2727 184.77 56.2538 184.592 56.2159C184.414 56.1818 184.291 56.1477 184.223 56.1136L184.564 54.9318C184.89 55.0152 185.178 55.0455 185.428 55.0227C185.678 55 185.899 54.8883 186.092 54.6875C186.289 54.4905 186.469 54.1705 186.632 53.7273L186.882 53.0455L183.655 44.2727H185.109L187.518 51.2273H187.609L190.018 44.2727H191.473L187.768 54.2727C187.602 54.7235 187.395 55.0966 187.149 55.392C186.903 55.6913 186.617 55.9129 186.291 56.0568C185.969 56.2008 185.606 56.2727 185.2 56.2727ZM205.152 51.75L204.993 55.5H203.607V53H202.47V51.75H205.152ZM193.243 44.2727H194.584V51.75H197.879V44.2727H199.22V51.75H202.516V44.2727H203.857V53H193.243V44.2727ZM210.668 53.1818C209.827 53.1818 209.101 52.9962 208.491 52.625C207.885 52.25 207.418 51.7273 207.088 51.0568C206.762 50.3826 206.599 49.5985 206.599 48.7045C206.599 47.8106 206.762 47.0227 207.088 46.3409C207.418 45.6553 207.876 45.1212 208.463 44.7386C209.054 44.3523 209.743 44.1591 210.531 44.1591C210.986 44.1591 211.435 44.2348 211.878 44.3864C212.321 44.5379 212.724 44.7841 213.088 45.125C213.452 45.4621 213.741 45.9091 213.957 46.4659C214.173 47.0227 214.281 47.7083 214.281 48.5227V49.0909H207.554V47.9318H212.918C212.918 47.4394 212.819 47 212.622 46.6136C212.429 46.2273 212.152 45.9223 211.793 45.6989C211.437 45.4754 211.016 45.3636 210.531 45.3636C209.997 45.3636 209.535 45.4962 209.145 45.7614C208.759 46.0227 208.461 46.3636 208.253 46.7841C208.045 47.2045 207.94 47.6553 207.94 48.1364V48.9091C207.94 49.5682 208.054 50.1269 208.281 50.5852C208.512 51.0398 208.832 51.3864 209.241 51.625C209.651 51.8598 210.126 51.9773 210.668 51.9773C211.02 51.9773 211.338 51.928 211.622 51.8295C211.91 51.7273 212.158 51.5758 212.366 51.375C212.575 51.1705 212.736 50.9167 212.849 50.6136L214.145 50.9773C214.009 51.4167 213.779 51.803 213.457 52.1364C213.135 52.4659 212.738 52.7235 212.264 52.9091C211.791 53.0909 211.259 53.1818 210.668 53.1818ZM222.162 48.0227V49.2727H217.344V48.0227H222.162ZM217.662 44.2727V53H216.321V44.2727H217.662ZM223.185 44.2727V53H221.844V44.2727H223.185ZM226.974 51.0227L231.179 44.2727H232.724V53H231.384V46.25L227.202 53H225.634V44.2727H226.974V51.0227ZM240.43 53V45.5H238.112C237.589 45.5 237.179 45.6212 236.879 45.8636C236.58 46.1061 236.43 46.4394 236.43 46.8636C236.43 47.2803 236.565 47.608 236.834 47.8466C237.107 48.0852 237.48 48.2045 237.953 48.2045H240.771V49.4545H237.953C237.362 49.4545 236.853 49.3504 236.425 49.142C235.997 48.9337 235.667 48.6364 235.436 48.25C235.205 47.8598 235.089 47.3977 235.089 46.8636C235.089 46.3258 235.211 45.8636 235.453 45.4773C235.696 45.0909 236.042 44.7936 236.493 44.5852C236.947 44.3769 237.487 44.2727 238.112 44.2727H241.703V53H240.43ZM234.612 53L237.089 48.6591H238.544L236.067 53H234.612Z" fill="white"/>
<path d="M267 44.8C267 40.3196 267 38.0794 267.872 36.3681C268.639 34.8628 269.863 33.6389 271.368 32.8719C273.079 32 275.32 32 279.8 32H359.2C363.68 32 365.921 32 367.632 32.8719C369.137 33.6389 370.361 34.8628 371.128 36.3681C372 38.0794 372 40.3196 372 44.8V49.2C372 53.6804 372 55.9206 371.128 57.6319C370.361 59.1372 369.137 60.3611 367.632 61.1281C365.921 62 363.68 62 359.2 62H279.8C275.32 62 273.079 62 271.368 61.1281C269.863 60.3611 268.639 59.1372 267.872 57.6319C267 55.9206 267 53.6804 267 49.2V44.8Z" fill="#009FF5"/>
<path d="M294 42L284 52" stroke="white" stroke-width="2" stroke-linecap="round" stroke-linejoin="round"/>
<path d="M284 42L294 52" stroke="white" stroke-width="2" stroke-linecap="round" stroke-linejoin="round"/>
<path d="M306.831 41.3636H308.513L312.467 51.0227H312.604L316.558 41.3636H318.24V53H316.922V44.1591H316.808L313.172 53H311.899L308.263 44.1591H308.149V53H306.831V41.3636ZM322.043 47.4318H324.543C325.565 47.4318 326.348 47.6913 326.889 48.2102C327.431 48.7292 327.702 49.3864 327.702 50.1818C327.702 50.7045 327.58 51.1799 327.338 51.608C327.096 52.0322 326.74 52.3712 326.27 52.625C325.8 52.875 325.224 53 324.543 53H320.884V44.2727H322.224V51.75H324.543C325.073 51.75 325.509 51.6098 325.849 51.3295C326.19 51.0492 326.361 50.6894 326.361 50.25C326.361 49.7879 326.19 49.411 325.849 49.1193C325.509 48.8277 325.073 48.6818 324.543 48.6818H322.043V47.4318ZM329.088 53V44.2727H330.429V53H329.088ZM336.429 53.1818C335.611 53.1818 334.906 52.9886 334.315 52.6023C333.724 52.2159 333.27 51.6837 332.952 51.0057C332.634 50.3277 332.474 49.553 332.474 48.6818C332.474 47.7955 332.637 47.0133 332.963 46.3352C333.293 45.6534 333.751 45.1212 334.338 44.7386C334.929 44.3523 335.618 44.1591 336.406 44.1591C337.02 44.1591 337.573 44.2727 338.065 44.5C338.558 44.7273 338.961 45.0455 339.276 45.4545C339.59 45.8636 339.785 46.3409 339.861 46.8864H338.52C338.418 46.4886 338.19 46.1364 337.838 45.8295C337.49 45.5189 337.02 45.3636 336.429 45.3636C335.906 45.3636 335.448 45.5 335.054 45.7727C334.664 46.0417 334.359 46.4223 334.139 46.9148C333.923 47.4034 333.815 47.9773 333.815 48.6364C333.815 49.3106 333.921 49.8977 334.134 50.3977C334.349 50.8977 334.652 51.286 335.043 51.5625C335.437 51.839 335.899 51.9773 336.429 51.9773C336.777 51.9773 337.094 51.9167 337.378 51.7955C337.662 51.6742 337.902 51.5 338.099 51.2727C338.296 51.0455 338.437 50.7727 338.52 50.4545H339.861C339.785 50.9697 339.598 51.4337 339.298 51.8466C339.003 52.2557 338.611 52.5814 338.122 52.8239C337.637 53.0625 337.073 53.1818 336.429 53.1818ZM341.048 53V51.75H341.366C341.628 51.75 341.846 51.6989 342.02 51.5966C342.194 51.4905 342.334 51.3068 342.44 51.0455C342.55 50.7803 342.634 50.4129 342.69 49.9432C342.751 49.4697 342.795 48.8674 342.821 48.1364L342.98 44.2727H348.798V53H347.457V45.5227H344.253L344.116 48.6364C344.086 49.3523 344.022 49.983 343.923 50.5284C343.829 51.0701 343.683 51.5246 343.486 51.892C343.293 52.2595 343.035 52.536 342.713 52.7216C342.391 52.9072 341.988 53 341.503 53H341.048ZM352.599 51.0227L356.804 44.2727H358.349V53H357.009V46.25L352.827 53H351.259V44.2727H352.599V51.0227Z" fill="white"/>
<path d="M384 44.8C384 40.3196 384 38.0794 384.872 36.3681C385.639 34.8628 386.863 33.6389 388.368 32.8719C390.079 32 392.32 32 396.8 32H486.2C490.68 32 492.921 32 494.632 32.8719C496.137 33.6389 497.361 34.8628 498.128 36.3681C499 38.0794 499 40.3196 499 44.8V49.2C499 53.6804 499 55.9206 498.128 57.6319C497.361 59.1372 496.137 60.3611 494.632 61.1281C492.921 62 490.68 62 486.2 62H396.8C392.32 62 390.079 62 388.368 61.1281C386.863 60.3611 385.639 59.1372 384.872 57.6319C384 55.9206 384 53.6804 384 49.2V44.8Z" fill="#B240EB"/>
<path d="M411 42L401 52" stroke="white" stroke-width="2" stroke-linecap="round" stroke-linejoin="round"/>
<path d="M401 42L411 52" stroke="white" stroke-width="2" stroke-linecap="round" stroke-linejoin="round"/>
<path d="M423.71 41.3636H425.119V45.25C425.119 45.8258 425.22 46.2784 425.42 46.608C425.621 46.9337 425.905 47.1648 426.273 47.3011C426.64 47.4337 427.074 47.5 427.574 47.5C427.888 47.5 428.193 47.4886 428.489 47.4659C428.784 47.4394 429.072 47.4034 429.352 47.358C429.636 47.3125 429.913 47.2576 430.182 47.1932C430.455 47.1288 430.722 47.0568 430.983 46.9773V48.25C430.729 48.3295 430.477 48.4015 430.227 48.4659C429.981 48.5303 429.723 48.5852 429.455 48.6307C429.189 48.6761 428.903 48.7121 428.597 48.7386C428.29 48.7614 427.949 48.7727 427.574 48.7727C426.771 48.7727 426.08 48.6572 425.5 48.4261C424.924 48.1951 424.481 47.822 424.17 47.3068C423.864 46.7917 423.71 46.1061 423.71 45.25V41.3636ZM430.801 41.3636H432.21V53H430.801V41.3636ZM435.716 56.2727C435.489 56.2727 435.286 56.2538 435.108 56.2159C434.93 56.1818 434.807 56.1477 434.739 56.1136L435.08 54.9318C435.405 55.0152 435.693 55.0455 435.943 55.0227C436.193 55 436.415 54.8883 436.608 54.6875C436.805 54.4905 436.985 54.1705 437.148 53.7273L437.398 53.0455L434.17 44.2727H435.625L438.034 51.2273H438.125L440.534 44.2727H441.989L438.284 54.2727C438.117 54.7235 437.911 55.0966 437.665 55.392C437.419 55.6913 437.133 55.9129 436.807 56.0568C436.485 56.2008 436.121 56.2727 435.716 56.2727ZM443.759 53V44.2727H447.327C448.266 44.2727 449.012 44.4848 449.565 44.9091C450.118 45.3333 450.395 45.8939 450.395 46.5909C450.395 47.1212 450.238 47.5322 449.923 47.8239C449.609 48.1117 449.205 48.3068 448.713 48.4091C449.035 48.4545 449.348 48.5682 449.651 48.75C449.957 48.9318 450.211 49.1818 450.412 49.5C450.613 49.8144 450.713 50.2008 450.713 50.6591C450.713 51.1061 450.599 51.5057 450.372 51.858C450.145 52.2102 449.819 52.4886 449.395 52.6932C448.971 52.8977 448.463 53 447.872 53H443.759ZM445.031 51.7727H447.872C448.334 51.7727 448.696 51.6629 448.957 51.4432C449.219 51.2235 449.349 50.9242 449.349 50.5455C449.349 50.0947 449.219 49.7405 448.957 49.483C448.696 49.2216 448.334 49.0909 447.872 49.0909H445.031V51.7727ZM445.031 47.9318H447.327C447.687 47.9318 447.995 47.8826 448.253 47.7841C448.51 47.6818 448.707 47.5379 448.844 47.3523C448.984 47.1629 449.054 46.9394 449.054 46.6818C449.054 46.3144 448.901 46.0265 448.594 45.8182C448.287 45.6061 447.865 45.5 447.327 45.5H445.031V47.9318ZM456.288 53.1818C455.47 53.1818 454.766 52.9886 454.175 52.6023C453.584 52.2159 453.129 51.6837 452.811 51.0057C452.493 50.3277 452.334 49.553 452.334 48.6818C452.334 47.7955 452.497 47.0133 452.822 46.3352C453.152 45.6534 453.61 45.1212 454.197 44.7386C454.788 44.3523 455.478 44.1591 456.266 44.1591C456.879 44.1591 457.432 44.2727 457.925 44.5C458.417 44.7273 458.821 45.0455 459.135 45.4545C459.449 45.8636 459.644 46.3409 459.72 46.8864H458.379C458.277 46.4886 458.05 46.1364 457.697 45.8295C457.349 45.5189 456.879 45.3636 456.288 45.3636C455.766 45.3636 455.307 45.5 454.913 45.7727C454.523 46.0417 454.218 46.4223 453.999 46.9148C453.783 47.4034 453.675 47.9773 453.675 48.6364C453.675 49.3106 453.781 49.8977 453.993 50.3977C454.209 50.8977 454.512 51.286 454.902 51.5625C455.296 51.839 455.758 51.9773 456.288 51.9773C456.637 51.9773 456.953 51.9167 457.237 51.7955C457.521 51.6742 457.762 51.5 457.959 51.2727C458.156 51.0455 458.296 50.7727 458.379 50.4545H459.72C459.644 50.9697 459.457 51.4337 459.158 51.8466C458.862 52.2557 458.47 52.5814 457.982 52.8239C457.497 53.0625 456.932 53.1818 456.288 53.1818ZM460.993 45.5227V44.2727H468.084V45.5227H465.22V53H463.879V45.5227H460.993ZM470.04 53V44.2727H473.608C474.547 44.2727 475.294 44.4848 475.847 44.9091C476.4 45.3333 476.676 45.8939 476.676 46.5909C476.676 47.1212 476.519 47.5322 476.205 47.8239C475.89 48.1117 475.487 48.3068 474.994 48.4091C475.316 48.4545 475.629 48.5682 475.932 48.75C476.239 48.9318 476.492 49.1818 476.693 49.5C476.894 49.8144 476.994 50.2008 476.994 50.6591C476.994 51.1061 476.881 51.5057 476.653 51.858C476.426 52.2102 476.1 52.4886 475.676 52.6932C475.252 52.8977 474.744 53 474.153 53H470.04ZM471.312 51.7727H474.153C474.616 51.7727 474.977 51.6629 475.239 51.4432C475.5 51.2235 475.631 50.9242 475.631 50.5455C475.631 50.0947 475.5 49.7405 475.239 49.483C474.977 49.2216 474.616 49.0909 474.153 49.0909H471.312V51.7727ZM471.312 47.9318H473.608C473.968 47.9318 474.277 47.8826 474.534 47.7841C474.792 47.6818 474.989 47.5379 475.125 47.3523C475.265 47.1629 475.335 46.9394 475.335 46.6818C475.335 46.3144 475.182 46.0265 474.875 45.8182C474.568 45.6061 474.146 45.5 473.608 45.5H471.312V47.9318ZM481.592 53.2045C481.039 53.2045 480.537 53.1004 480.087 52.892C479.636 52.6799 479.278 52.375 479.013 51.9773C478.748 51.5758 478.615 51.0909 478.615 50.5227C478.615 50.0227 478.714 49.6174 478.911 49.3068C479.107 48.9924 479.371 48.7462 479.7 48.5682C480.03 48.3902 480.393 48.2576 480.791 48.1705C481.193 48.0795 481.596 48.0076 482.001 47.9545C482.532 47.8864 482.962 47.8352 483.291 47.8011C483.625 47.7633 483.867 47.7008 484.018 47.6136C484.174 47.5265 484.251 47.375 484.251 47.1591V47.1136C484.251 46.553 484.098 46.1174 483.791 45.8068C483.488 45.4962 483.028 45.3409 482.411 45.3409C481.77 45.3409 481.268 45.4811 480.905 45.7614C480.541 46.0417 480.286 46.3409 480.138 46.6591L478.865 46.2045C479.092 45.6742 479.395 45.2614 479.774 44.9659C480.157 44.6667 480.573 44.4583 481.024 44.3409C481.479 44.2197 481.926 44.1591 482.365 44.1591C482.645 44.1591 482.967 44.1932 483.331 44.2614C483.698 44.3258 484.053 44.4602 484.393 44.6648C484.738 44.8693 485.024 45.178 485.251 45.5909C485.479 46.0038 485.592 46.5568 485.592 47.25V53H484.251V51.8182H484.183C484.092 52.0076 483.941 52.2102 483.729 52.4261C483.517 52.642 483.234 52.8258 482.882 52.9773C482.53 53.1288 482.1 53.2045 481.592 53.2045ZM481.797 52C482.327 52 482.774 51.8958 483.138 51.6875C483.505 51.4792 483.782 51.2102 483.967 50.8807C484.157 50.5511 484.251 50.2045 484.251 49.8409V48.6136C484.195 48.6818 484.07 48.7443 483.876 48.8011C483.687 48.8542 483.467 48.9015 483.217 48.9432C482.971 48.9811 482.731 49.0152 482.496 49.0455C482.265 49.072 482.077 49.0947 481.933 49.1136C481.585 49.1591 481.259 49.233 480.956 49.3352C480.657 49.4337 480.414 49.5833 480.229 49.7841C480.047 49.9811 479.956 50.25 479.956 50.5909C479.956 51.0568 480.128 51.4091 480.473 51.6477C480.821 51.8826 481.263 52 481.797 52Z" fill="white"/>
<defs>
<filter id="filter0_d_19_26" x="414" y="78" width="100" height="107.598" filterUnits="userSpaceOnUse" color-interpolation-filters="sRGB">
<feFlood flood-opacity="0" result="BackgroundImageFix"/>
<feColorMatrix in="SourceAlpha" type="matrix" values="0 0 0 0 0 0 0 0 0 0 0 0 0 0 0 0 0 0 127 0" result="hardAlpha"/>
<feOffset dy="10"/>
<feGaussianBlur stdDeviation="10"/>
<feComposite in2="hardAlpha" operator="out"/>
<feColorMatrix type="matrix" values="0 0 0 0 0.101961 0 0 0 0 0.101961 0 0 0 0 0.101961 0 0 0 0.15 0"/>
<feBlend mode="normal" in2="BackgroundImageFix" result="effect1_dropShadow_19_26"/>
<feBlend mode="normal" in="SourceGraphic" in2="effect1_dropShadow_19_26" result="shape"/>
</filter>
<filter id="filter1_d_19_26" x="462.2" y="163.2" width="15.0142" height="21.1785" filterUnits="userSpaceOnUse" color-interpolation-filters="sRGB">
<feFlood flood-opacity="0" result="BackgroundImageFix"/>
<feColorMatrix in="SourceAlpha" type="matrix" values="0 0 0 0 0 0 0 0 0 0 0 0 0 0 0 0 0 0 127 0" result="hardAlpha"/>
<feOffset dy="1"/>
<feGaussianBlur stdDeviation="0.9"/>
<feColorMatrix type="matrix" values="0 0 0 0 0 0 0 0 0 0 0 0 0 0 0 0 0 0 0.65 0"/>
<feBlend mode="normal" in2="BackgroundImageFix" result="effect1_dropShadow_19_26"/>
<feBlend mode="normal" in="SourceGraphic" in2="effect1_dropShadow_19_26" result="shape"/>
</filter>
</defs>
</svg>
