<svg width="120" height="120" viewBox="0 0 120 120" fill="none" xmlns="http://www.w3.org/2000/svg">
<circle cx="60" cy="60" r="60" fill="url(#paint0_linear_1648_7787)"/>
<path opacity="0.9" d="M80.8 62.6C80 62.9 79.3 63.4001 78.6 63.9001C77.9 64.5001 76.7 65.2001 75.1 65.7001L62.1 52.7L53.6 56.8C53.2 57 52.9 57.1 52.6 57.1C51.8 57.1 51 56.4 51 55.7C51 55.2 51.2 54.8 51.5 54.5L56.2 50.3C56.8 49.8 57.4 49.4 58.1 49.2L64.8 47.2C65.2 47.1 65.4 47 66.1 47.3L73.4 49.6C74.5 50 75.8 50.1 76.9 50.1C78.1 50.1 79.3 49.9 80.4 49.5L88.1 46.8L87.4 44.9L79.7 47.6C79 47.8 78 48 77 48C76 48 75 47.9 74.1 47.6L66.9 45.3C66.5 45.1 66 45 65.5 45C65.1 45 64.7 45.1 64.4 45.2L60.2 46.4C58.3 45.4 55 44 52 44C50.8 44 49.4 44.2 48 44.7C46.6 45.1 45 45.2 43.6 44.7C43.5 44.7 41.2 44 38.8 43.3C36.2 42.6 33.6 41.8 33.5 41.8L33 43.7C33.1 43.7 35.7 44.5 38.3 45.2C40.7 45.9 43.1 46.6 43.1 46.6C44.9 47.1 46.8 47.1 48.7 46.6C49.8 46.2 51 46 52 46C53.8 46 55.7 46.6 57.3 47.3C56.4 47.6 55.6 48.1 55 48.7L50.3 52.9C49.5 53.6 49.1 54.5 49.1 55.6C49.1 57.4 50.8 59 52.7 59C53.3 59 53.9 58.8 54.6 58.5L61.8 55.1L73.8 67.1C74 67.3 74.1 67.6001 74.1 67.9001C74.1 68.5001 73.6 69 73 69C72.7 69 72.4 68.9001 72.2 68.7001L67.2 63.7001L65.8 65.1L70.8 70.1C71 70.3 71.1 70.6001 71.1 70.9001C71.1 71.5001 70.6 72 70 72C69.7 72 69.4 71.9001 69.2 71.7001L65.2 67.7001L63.8 69.1L67.8 73.1C68 73.3 68.1 73.6001 68.1 73.9001C68.1 74.5 67.6 75 67 75C66.7 75 66.4 74.9001 66.2 74.7001L65.2 73.7001L63.2 71.7001L61.8 73.1L63.8 75.1C64 75.3 64.1 75.6001 64.1 75.9001C64.1 76.5 63.6 77 63 77C62.7 77 62.4 76.9001 62.2 76.7001L61.2 75.7001L59.8 77.1L60.8 78.1C61.4 78.7 62.2 79 63 79C64.4 79 65.6 78.1 66 76.8C66.3 76.9 66.7 77 67 77C68.7 77 70.1 75.7001 70.1 74C71.7 73.9001 73 72.6 73.1 71C74.8 70.9 76.1 69.6001 76.1 67.9001C76.1 67.8001 76.1 67.7001 76.1 67.5C77.9 66.9 79.2 66.1001 80 65.4001C80.6 64.9001 81.2 64.6 81.7 64.3L88.3 61.5L87.5 59.7001L80.8 62.6Z" fill="url(#paint1_linear_1648_7787)"/>
<path opacity="0.9" d="M56.0004 72C55.9004 70.4 54.6004 69.1 53.0004 69C52.9004 67.4 51.6004 66.1 50.0004 66C49.9004 64.3 48.6004 63 46.9004 63C46.1004 63 45.3004 63.3001 44.7004 63.9001L44.5004 64.1L43.3004 62.9001C42.8004 62.4001 42.3004 62 41.6004 61.8L31.6004 57.8L30.9004 59.7001L40.9004 63.7001C41.3004 63.9001 41.6004 64.1001 41.9004 64.4001L43.1004 65.6L42.9004 65.8C42.3004 66.4 42.0004 67.2 42.0004 68C42.0004 69.7 43.3004 71.1 45.0004 71.1C45.1004 72.7 46.4004 74 48.0004 74.1C48.1004 75.8 49.4004 77.1 51.1004 77.1C51.5004 77.1 51.8004 77.0001 52.1004 76.9001C52.5004 78.2001 53.7004 79.1 55.1004 79.1C55.9004 79.1 56.7004 78.8001 57.3004 78.2001L58.1004 77.4001C58.7004 76.8001 59.0004 76 59.0004 75.2001C59.0004 73.4001 57.7004 72.1 56.0004 72ZM45.9004 68.7001C45.7004 68.9001 45.4004 69 45.1004 69C44.5004 69 44.0004 68.5001 44.0004 67.9001C44.0004 67.6001 44.1004 67.3 44.3004 67.1L46.1004 65.3C46.3004 65.1 46.6004 65 46.9004 65C47.5004 65 48.0004 65.5 48.0004 66.1C48.0004 66.4 47.9004 66.7001 47.7004 66.9001L45.9004 68.7001ZM48.9004 71.7001C48.7004 71.9001 48.4004 72 48.1004 72C47.5004 72 47.0004 71.5001 47.0004 70.9001C47.0004 70.6001 47.1004 70.3 47.3004 70.1L49.1004 68.3C49.3004 68.1 49.6004 68 49.9004 68C50.5004 68 51.0004 68.5 51.0004 69.1C51.0004 69.4 50.9004 69.7001 50.7004 69.9001L48.9004 71.7001ZM52.9004 73.7001L51.9004 74.7001C51.7004 74.9001 51.4004 75 51.1004 75C50.5004 75 50.0004 74.5001 50.0004 73.9001C50.0004 73.6001 50.1004 73.3 50.3004 73.1L52.1004 71.3C52.3004 71.1 52.6004 71 52.9004 71C53.5004 71 54.0004 71.5 54.0004 72.1C54.0004 72.4 53.9004 72.7001 53.7004 72.9001L52.9004 73.7001ZM56.7004 75.9001L55.9004 76.7001C55.7004 76.9001 55.4004 77 55.1004 77C54.5004 77 54.0004 76.5001 54.0004 75.9001C54.0004 75.6001 54.1004 75.3 54.3004 75.1L55.1004 74.3C55.3004 74.1 55.6004 74 55.9004 74C56.5004 74 57.0004 74.5 57.0004 75.1C57.0004 75.4 56.9004 75.7001 56.7004 75.9001Z" fill="url(#paint2_linear_1648_7787)"/>
<defs>
<linearGradient id="paint0_linear_1648_7787" x1="60" y1="0" x2="60" y2="120" gradientUnits="userSpaceOnUse">
<stop stop-color="#E6F7E6"/>
<stop offset="1" stop-color="#E6F7E6" stop-opacity="0"/>
</linearGradient>
<linearGradient id="paint1_linear_1648_7787" x1="46.2911" y1="18.5357" x2="82.4165" y2="85.1539" gradientUnits="userSpaceOnUse">
<stop stop-color="#00476E"/>
<stop offset="1" stop-color="#398137"/>
</linearGradient>
<linearGradient id="paint2_linear_1648_7787" x1="33.69" y1="46.2355" x2="56.7988" y2="88.8501" gradientUnits="userSpaceOnUse">
<stop stop-color="#00476E"/>
<stop offset="1" stop-color="#398137"/>
</linearGradient>
</defs>
</svg>
