<svg width="40" height="40" viewBox="0 0 40 40" fill="none" xmlns="http://www.w3.org/2000/svg">
<g clip-path="url(#clip0_3795_7906)">
<path fill-rule="evenodd" clip-rule="evenodd" d="M20.5132 1.53738L20.0332 2.00001L19.5532 1.53738C19.6788 1.407 19.8521 1.33334 20.0332 1.33334C20.2143 1.33334 20.3875 1.407 20.5132 1.53738ZM20.0332 2.00001C19.5532 1.53738 19.5529 1.53767 19.5526 1.53799L19.5519 1.53876L19.5499 1.5408L19.5441 1.54682L19.5256 1.56662C19.5101 1.58326 19.4886 1.60674 19.4617 1.63689C19.4077 1.69719 19.3319 1.78428 19.2395 1.89688C19.0545 2.12195 18.8021 2.44976 18.5227 2.87003C17.9652 3.70903 17.2947 4.92586 16.8469 6.4368C15.9422 9.48854 15.9675 13.6806 19.505 18.2737C19.6312 18.4375 19.8263 18.5336 20.0332 18.5336C20.24 18.5336 20.4351 18.4375 20.5613 18.2737C24.0989 13.6806 24.1241 9.48854 23.2195 6.4368C22.7717 4.92586 22.1012 3.70903 21.5436 2.87003C21.2643 2.44976 21.0118 2.12195 20.8269 1.89688C20.7344 1.78428 20.6587 1.69719 20.6047 1.63689C20.5777 1.60674 20.5563 1.58326 20.5408 1.56662L20.5222 1.54682L20.5165 1.5408L20.5145 1.53876L20.5138 1.53799C20.5135 1.53767 20.5132 1.53738 20.0332 2.00001ZM20.0332 3.04362C19.9135 3.20186 19.7777 3.39064 19.6333 3.608C19.1295 4.36604 18.5264 5.46234 18.1252 6.81574C17.3772 9.33908 17.3119 12.8083 20.0332 16.7378C22.7545 12.8083 22.6891 9.33908 21.9412 6.81574C21.54 5.46234 20.9369 4.36604 20.4331 3.608C20.2887 3.39064 20.1529 3.20186 20.0332 3.04362ZM7.4922 7.50101C7.4922 7.50101 15.2725 7.87114 16.1991 16.2079C7.86233 15.2813 7.4922 7.50101 7.4922 7.50101ZM7.4922 31.5054C7.4922 31.5054 15.2725 31.1353 16.1991 22.7985C7.86233 23.7251 7.4922 31.5054 7.4922 31.5054ZM32.5995 31.5054C32.5995 31.5054 24.8192 31.1353 23.8926 22.7985C32.2293 23.7251 32.5995 31.5054 32.5995 31.5054ZM32.5995 7.50101C32.5995 7.50101 24.8192 7.87114 23.8926 16.2079C32.2293 15.2813 32.5995 7.50101 32.5995 7.50101ZM4.08844 18.1124C5.32775 17.1926 7.21353 15.8908 9.76407 15.8908C12.3178 15.8908 14.2015 17.1959 15.4395 18.1121C15.8938 18.4484 16.6843 18.624 17.4713 18.6936C17.5945 18.7045 17.7139 18.7125 17.8275 18.7183C18.0627 18.7077 18.2725 18.7053 18.4422 18.7065C18.5813 18.7075 18.6945 18.7109 18.7742 18.714C18.8141 18.7156 18.8455 18.7171 18.8677 18.7183L18.8939 18.7198L18.9015 18.7203L18.904 18.7204L18.9048 18.7205H18.9051C18.9053 18.7205 18.9055 18.7205 18.8615 19.3857C18.9055 20.0509 18.9053 20.0509 18.9051 20.0509L18.9048 20.051L18.904 20.0511L18.9015 20.0512L18.8939 20.0517L18.8677 20.0531C18.8455 20.0543 18.8141 20.0559 18.7742 20.0575C18.6945 20.0606 18.5813 20.0639 18.4422 20.0649C18.2725 20.0661 18.0627 20.0638 17.8275 20.0531C17.7139 20.0589 17.5945 20.067 17.4713 20.0779C16.6845 20.1475 15.894 20.323 15.4397 20.6591C14.2003 21.5789 12.3146 22.8807 9.76407 22.8807C7.2104 22.8807 5.32667 21.5755 4.08874 20.6593C3.63443 20.3231 2.84387 20.1475 2.05687 20.0779C1.93375 20.067 1.8143 20.0589 1.70065 20.0531C1.46553 20.0638 1.25575 20.0661 1.08601 20.0649C0.946933 20.0639 0.833647 20.0606 0.754 20.0575C0.714153 20.0559 0.682647 20.0543 0.660464 20.0531L0.634277 20.0517L0.626639 20.0512L0.624221 20.0511L0.623369 20.051L0.623032 20.0509C0.622888 20.0509 0.622755 20.0509 0.666667 19.3857C0.622757 18.7205 0.62289 18.7205 0.623034 18.7205H0.623371L0.624223 18.7204L0.626641 18.7203L0.634279 18.7198L0.660466 18.7183C0.682647 18.7171 0.714153 18.7156 0.754 18.714C0.833647 18.7109 0.94694 18.7075 1.08601 18.7065C1.25575 18.7053 1.46553 18.7077 1.70065 18.7183C1.8143 18.7125 1.93375 18.7045 2.05687 18.6936C2.8437 18.624 3.63409 18.4485 4.08844 18.1124ZM0.666667 19.3857L0.622755 20.0509C0.272373 20.0278 0 19.7369 0 19.3857C0 19.0346 0.272375 18.7436 0.622757 18.7205L0.666667 19.3857ZM18.8615 19.3857L18.9055 18.7205C19.2558 18.7436 19.5282 19.0346 19.5282 19.3857C19.5282 19.7369 19.2558 20.0278 18.9055 20.0509L18.8615 19.3857ZM4.56913 19.3857C4.67816 19.4471 4.78289 19.5143 4.88195 19.5875C6.09961 20.4888 7.6772 21.5473 9.76407 21.5473C11.8487 21.5473 13.4293 20.4908 14.6455 19.5881L14.6463 19.5875C14.7453 19.5143 14.8501 19.4471 14.9591 19.3857C14.8501 19.3243 14.7453 19.2572 14.6463 19.1839C13.4286 18.2827 11.851 17.2241 9.76407 17.2241C7.67947 17.2241 6.09895 18.2806 4.88267 19.1833L4.88195 19.1839C4.78289 19.2572 4.67816 19.3243 4.56913 19.3857ZM30.2361 15.8908C27.6855 15.8908 25.7997 17.1926 24.5605 18.1124C24.1061 18.4485 23.3157 18.624 22.5289 18.6936C22.4057 18.7045 22.2863 18.7125 22.1727 18.7183C21.9375 18.7077 21.7277 18.7053 21.558 18.7065C21.4189 18.7075 21.3057 18.7109 21.226 18.714C21.1861 18.7156 21.1547 18.7171 21.1325 18.7183L21.1063 18.7198L21.0987 18.7203L21.0962 18.7204L21.0954 18.7205H21.0951C21.0949 18.7205 21.0947 18.7205 21.1387 19.3857L21.0947 18.7205C20.7444 18.7436 20.472 19.0346 20.472 19.3857C20.472 19.7369 20.7444 20.0278 21.0947 20.0509L21.1387 19.3857C21.0947 20.0509 21.0949 20.0509 21.0951 20.0509L21.0954 20.051L21.0962 20.0511L21.0987 20.0512L21.1063 20.0517L21.1325 20.0531L21.1727 20.0551C21.1799 20.0555 21.1877 20.0558 21.1959 20.0562C21.2053 20.0566 21.2154 20.057 21.226 20.0575C21.3057 20.0606 21.4189 20.0639 21.558 20.0649C21.7277 20.0661 21.9375 20.0638 22.1727 20.0531C22.2863 20.0589 22.4057 20.067 22.5289 20.0779C23.3159 20.1475 24.1065 20.3231 24.5607 20.6593C25.7987 21.5755 27.6824 22.8807 30.2361 22.8807C32.7866 22.8807 34.6723 21.5789 35.9117 20.6591C36.366 20.323 37.1565 20.1475 37.9433 20.0779C38.0665 20.067 38.1859 20.0589 38.2995 20.0531C38.5347 20.0638 38.7445 20.0661 38.9142 20.0649C39.0533 20.0639 39.1665 20.0606 39.2462 20.0575C39.2861 20.0559 39.3175 20.0543 39.3397 20.0531L39.3659 20.0517L39.3735 20.0512L39.376 20.0511L39.3769 20.051L39.3772 20.0509C39.3773 20.0509 39.3775 20.0509 39.3335 19.3857L39.3775 20.0509C39.7279 20.0278 40.0002 19.7369 40.0002 19.3857C40.0002 19.0346 39.7278 18.7436 39.3775 18.7205L39.3335 19.3857C39.3775 18.7205 39.3773 18.7205 39.3772 18.7205H39.3769L39.376 18.7204L39.3735 18.7203L39.3659 18.7198L39.3397 18.7183C39.3175 18.7171 39.2861 18.7156 39.2462 18.714C39.1665 18.7109 39.0533 18.7075 38.9142 18.7065C38.7445 18.7053 38.5347 18.7077 38.2995 18.7183C38.1859 18.7125 38.0665 18.7045 37.9433 18.6936C37.1563 18.624 36.3658 18.4484 35.9115 18.1121C34.6735 17.1959 32.7898 15.8908 30.2361 15.8908ZM25.3539 19.5875C25.2549 19.5143 25.1502 19.4471 25.0411 19.3857C25.1502 19.3243 25.2549 19.2572 25.3539 19.1839L25.3547 19.1833C26.5709 18.2806 28.1515 17.2241 30.2361 17.2241C32.323 17.2241 33.9006 18.2827 35.1183 19.1839C35.2173 19.2572 35.3221 19.3243 35.4311 19.3857C35.3221 19.4471 35.2173 19.5143 35.1183 19.5875L35.1175 19.5881C33.9013 20.4908 32.3208 21.5473 30.2361 21.5473C28.1492 21.5473 26.5716 20.4888 25.3539 19.5875ZM20.0332 21.4891L20.5132 21.0265C20.3875 20.8961 20.2143 20.8224 20.0332 20.8224C19.8521 20.8224 19.6788 20.8961 19.5532 21.0265L20.0332 21.4891ZM20.0332 21.4891C20.5132 21.0265 20.5135 21.0267 20.5138 21.0271L20.5145 21.0279L20.5165 21.0299L20.5222 21.0359L20.5408 21.0557C20.5563 21.0723 20.5777 21.0958 20.6047 21.126C20.6587 21.1863 20.7344 21.2733 20.8269 21.3859C21.0118 21.611 21.2643 21.9389 21.5436 22.3591C22.1012 23.1981 22.7717 24.4149 23.2195 25.9259C24.1241 28.9776 24.0989 33.1697 20.5613 37.7628C20.4351 37.9267 20.24 38.0227 20.0332 38.0227C19.8263 38.0227 19.6312 37.9267 19.505 37.7628C15.9675 33.1697 15.9422 28.9776 16.8469 25.9259C17.2947 24.4149 17.9652 23.1981 18.5227 22.3591C18.8021 21.9389 19.0545 21.611 19.2395 21.3859C19.3319 21.2733 19.4077 21.1863 19.4617 21.126C19.4886 21.0958 19.5101 21.0723 19.5256 21.0557L19.5441 21.0359L19.5499 21.0299L19.5519 21.0279L19.5526 21.0271C19.5529 21.0267 19.5532 21.0265 20.0332 21.4891ZM19.6333 23.0971C19.7777 22.8797 19.9135 22.6909 20.0332 22.5327C20.1529 22.6909 20.2887 22.8797 20.4331 23.0971C20.9369 23.8551 21.54 24.9514 21.9412 26.3048C22.6891 28.8282 22.7545 32.2974 20.0332 36.2269C17.3119 32.2974 17.3772 28.8282 18.1252 26.3048C18.5264 24.9514 19.1295 23.8551 19.6333 23.0971Z" fill="url(#paint0_linear_3795_7906)" fill-opacity="0.9"/>
</g>
<defs>
<linearGradient id="paint0_linear_3795_7906" x1="-9.51562e-07" y1="38.0227" x2="47.0932" y2="21.2576" gradientUnits="userSpaceOnUse">
<stop stop-color="#00476E"/>
<stop offset="1" stop-color="#398137"/>
</linearGradient>
<clipPath id="clip0_3795_7906">
<rect width="40" height="40" fill="white"/>
</clipPath>
</defs>
</svg>
