<svg width="120" height="120" viewBox="0 0 120 120" fill="none" xmlns="http://www.w3.org/2000/svg">
<circle cx="60" cy="60" r="60" fill="url(#paint0_linear_1648_7781)"/>
<path fill-rule="evenodd" clip-rule="evenodd" d="M78.3499 44.0921L76.9996 53.0885C76.9966 53.3867 76.979 53.6802 76.9485 53.969L74.9595 53.7589C74.986 53.5083 75 53.2554 75 53C75 49.1343 71.8657 46 68 46C64.1343 46 61 49.1343 61 53C61 53.2543 61.014 53.5061 61.0404 53.7556L59.0516 53.9664C59.018 53.6499 59 53.3277 59 53C59 48.0297 63.0297 44 68 44C71.2584 44 74.1125 45.7319 75.6921 48.3253L77.3229 37.46C77.3288 37.4186 77.3349 37.3771 77.3412 37.3354L77.3416 37.3354L78.1491 31.9556L80.1269 32.2524L80.0017 33.0868C80.0214 33.468 80.2243 33.9097 80.7099 34.5003C81.0898 34.9621 81.553 35.4144 82.0854 35.9341L82.0856 35.9343L82.0857 35.9344L82.086 35.9347C82.2836 36.1276 82.4906 36.3298 82.7065 36.5452C84.2177 38.0533 86.0001 40.0601 86.0001 42.9999C86.0001 46.1348 85.3235 48.7534 84.4079 50.5483L83.1883 52.9392L82.5461 50.3331C82.1208 48.6071 81.2454 47.6264 80.2183 46.4758C79.9078 46.1279 79.5834 45.7645 79.2534 45.3603C78.9371 44.9728 78.6285 44.5563 78.3499 44.0921ZM79.3018 37.7498C79.0557 39.4732 79.165 40.7056 79.4441 41.6554C79.7285 42.6231 80.2095 43.3689 80.8027 44.0955C81.033 44.3776 81.2918 44.665 81.5638 44.9673C82.187 45.6595 82.88 46.4295 83.4615 47.3909C83.788 46.1548 84.0001 44.6739 84.0001 42.9999C84.0001 40.9397 82.7825 39.4465 81.2937 37.9609C81.1207 37.7882 80.9405 37.6123 80.758 37.4342C80.3419 37.0282 79.9144 36.611 79.5351 36.1956L79.3018 37.7498ZM55 64C55 62.3427 56.3427 61 58 61C58.56 61 59.0893 61.1542 59.5415 61.4255L69.5415 67.4255C70.4129 67.9486 71 68.9052 71 70C71 71.0943 70.4135 72.0511 69.5425 72.5735L59.5425 78.5735L59.5412 78.5742C59.0909 78.8436 58.5633 79 58 79C56.3427 79 55 77.6573 55 76V64ZM58 63C57.4473 63 57 63.4473 57 64V76C57 76.5527 57.4473 77 58 77C58.1884 77 58.3626 76.9486 58.5141 76.8582L68.5135 70.8585C68.8064 70.6829 69 70.3636 69 70C69 69.6367 68.8069 69.3172 68.5123 69.1404L58.5125 63.1405C58.3647 63.0518 58.19 63 58 63ZM35.1883 71.0422L34.8623 69.2822L36.8288 68.918L37.1549 70.678L35.1883 71.0422ZM63 53C63 50.2387 65.2387 48 68 48V50C66.3433 50 65 51.3433 65 53H63ZM38 55H40V57H38V55ZM44 55H42V57H44V55ZM46 55H48V57H46V55ZM46 88V86H64V88H46ZM66 86V88H72V86H66ZM32 53.5C32 51.5667 33.5667 50 35.5 50H49.757C50.8181 50 51.8351 50.4213 52.5855 51.1703L56.8291 55.4139C57.2032 55.7886 57.7121 56 58.243 56H83.5C85.4333 56 87 57.5667 87 59.5C87 59.7232 86.9792 59.9428 86.9383 60.1571L82.9384 81.157C82.6303 82.7758 81.2091 84 79.5 84H40.5C38.7853 84 37.3598 82.7675 37.0587 81.1399L35.6187 73.362L37.5853 72.9979L39.0253 80.7759C39.1541 81.4724 39.7667 82 40.5 82H79.5C80.2309 82 80.8417 81.4762 80.9736 80.783L84.9737 59.7829C84.9908 59.6932 85 59.5987 85 59.5C85 58.6713 84.3287 58 83.5 58H58.243C57.1822 58 56.1648 57.579 55.4149 56.8281L51.1725 52.5857C50.7969 52.2111 50.2876 52 49.757 52H35.5C34.6713 52 34 52.6713 34 53.5C34 53.596 34.0086 53.6871 34.0248 53.7733L34.0253 53.7759L36.4253 66.7379L34.4587 67.1021L32.0592 54.1427L32.0589 54.1412C32.0193 53.9299 32 53.7155 32 53.5ZM38.5 40C36.5667 40 35 41.5667 35 43.5C35 43.7155 35.0193 43.9299 35.0589 44.1413L35.0592 44.1427L35.7787 48.0262L37.7453 47.6618L37.0253 43.7758L37.0248 43.7733C37.0086 43.6871 37 43.596 37 43.5C37 42.6713 37.6713 42 38.5 42H52.757C53.2878 42 53.7964 42.2106 54.1719 42.5861L57.8899 46.3041L59.3041 44.8899L55.5861 41.1719C54.8356 40.4213 53.8182 40 52.757 40H38.5Z" fill="url(#paint1_linear_1648_7781)" fill-opacity="0.9"/>
<defs>
<linearGradient id="paint0_linear_1648_7781" x1="60" y1="0" x2="60" y2="120" gradientUnits="userSpaceOnUse">
<stop stop-color="#E6F7E6"/>
<stop offset="1" stop-color="#E6F7E6" stop-opacity="0"/>
</linearGradient>
<linearGradient id="paint1_linear_1648_7781" x1="32" y1="88" x2="98.165" y2="66.7977" gradientUnits="userSpaceOnUse">
<stop stop-color="#00476E"/>
<stop offset="1" stop-color="#398137"/>
</linearGradient>
</defs>
</svg>
