<svg width="42.000000" height="22.000000" viewBox="0 0 42 22" fill="none" xmlns="http://www.w3.org/2000/svg" xmlns:xlink="http://www.w3.org/1999/xlink">
	<desc>
			Created with Pixso.
	</desc>
	<defs/>
	<path id="Vector 2" d="M31.85 -0.54Q20.77 -2.12 -0.18 2.81L0.17 4.27Q20.83 -0.59 31.64 0.95Q37.87 1.83 39.31 4.95Q39.51 5.38 39.62 5.85Q40.65 10.3 34.08 18.59L33.71 14.45C33.67 14.03 33.31 13.73 32.9 13.77C32.48 13.81 32.18 14.17 32.22 14.59L32.75 20.56C32.79 20.98 33.14 21.28 33.56 21.24L39.54 20.71C39.96 20.67 40.26 20.31 40.22 19.9C40.18 19.48 39.82 19.18 39.4 19.22L35.2 19.59Q42.27 10.67 41.09 5.51Q40.9 4.7 40.52 3.99Q38.61 0.43 31.85 -0.54Z" fill="#009FF5" fill-opacity="1.000000" fill-rule="evenodd"/>
</svg>
