<svg width="32.000000" height="17.000000" viewBox="0 0 32 17" fill="none" xmlns="http://www.w3.org/2000/svg" xmlns:xlink="http://www.w3.org/1999/xlink">
	<desc>
			Created with Pixso.
	</desc>
	<defs/>
	<path id="Vector 1" d="M15.66 -0.24Q9.53 -0.67 -0.18 1.62L0.17 3.08Q9.65 0.84 15.55 1.25Q18.2 1.44 20.14 2.15Q21.91 2.8 23.12 3.9Q23.25 4.02 23.38 4.15Q24.3 5.07 24.9 6.29Q25.52 7.56 25.84 9.23Q26.11 10.65 26.19 12.54Q26.23 13.27 26.24 14.18L23.28 11.22C22.99 10.93 22.52 10.93 22.22 11.22C21.93 11.52 21.93 11.99 22.22 12.28L26.46 16.53C26.76 16.82 27.23 16.82 27.53 16.53L31.77 12.28C32.06 11.99 32.06 11.52 31.77 11.22C31.47 10.93 31 10.93 30.71 11.22L27.74 14.19Q27.73 13.24 27.69 12.48Q27.6 10.47 27.31 8.95Q26.95 7.08 26.24 5.63Q25.58 4.28 24.59 3.24Q24.36 3 24.12 2.79Q22.7 1.49 20.66 0.75Q18.52 -0.04 15.66 -0.24Z" fill="#009FF5" fill-opacity="1.000000" fill-rule="evenodd"/>
</svg>
