<svg width="120" height="120" viewBox="0 0 120 120" fill="none" xmlns="http://www.w3.org/2000/svg">
<circle cx="60" cy="60" r="60" fill="url(#paint0_linear_1648_7769)"/>
<path fill-rule="evenodd" clip-rule="evenodd" d="M38 31H40V33H38V31ZM40 39C39.4473 39 39 39.4473 39 40V65H67V67H39V68C39 68.5527 39.4473 69 40 69H80C80.5527 69 81 68.5527 81 68V40C81 39.4473 80.5527 39 80 39H40ZM37 40C37 38.3427 38.3427 37 40 37H80C81.6573 37 83 38.3427 83 40V68C83 69.6573 81.6573 71 80 71H40C38.3427 71 37 69.6573 37 68V40ZM54 46C54 44.8957 54.8957 44 56 44C56.3775 44 56.7326 44.1056 57.0349 44.289L67.0249 50.283L67.0266 50.2839C67.6091 50.6318 68 51.2705 68 52C68 52.7293 67.6093 53.3676 67.0285 53.7155H67.0284L67.0272 53.7163L57.0368 59.7105L57.0348 59.7117C56.7331 59.8939 56.3786 60 56 60C54.8957 60 54 59.1043 54 58V46ZM56 46.0004V58H56.0003L56.0012 57.9995L56.0045 57.9975L65.9995 52.0005L65.9998 52.0003L65.9985 51.9995L56.0035 46.0025L56 46.0004ZM66.0004 51.9999L66.0008 51.9997L66.0004 51.9999ZM79 65H77V67H79V65ZM73 65H75V67H73V65ZM71 65H69V67H71V65ZM33 38H31V40H33V38ZM33 33H35V35H33V33ZM45 33H43V35H45V33ZM33 43H35V45H33V43ZM71 77H69V79H71V77ZM73 79H75V81H73V79ZM79 80H77V82H79V80ZM85 77H87V79H85V77ZM87 73V75H89V73H87ZM81 79H83V81H81V79ZM88 69V71H90V69H88ZM85 61H87V63H85V61ZM89 65H87V67H89V65ZM67 73H69V75H67V73ZM40 73H38V75H40V73ZM42 77V75H44V77H42ZM32 79V81H34V79H32ZM44 81V79H46V81H44ZM38 85V87H40V85H38ZM34 85V83H36V85H34ZM42 83V85H44V83H42ZM34 75H36V77H34V75Z" fill="url(#paint1_linear_1648_7769)" fill-opacity="0.9"/>
<defs>
<linearGradient id="paint0_linear_1648_7769" x1="60" y1="0" x2="60" y2="120" gradientUnits="userSpaceOnUse">
<stop stop-color="#E6F7E6"/>
<stop offset="1" stop-color="#E6F7E6" stop-opacity="0"/>
</linearGradient>
<linearGradient id="paint1_linear_1648_7769" x1="31" y1="87" x2="100.983" y2="62.9243" gradientUnits="userSpaceOnUse">
<stop stop-color="#00476E"/>
<stop offset="1" stop-color="#398137"/>
</linearGradient>
</defs>
</svg>
