<svg width="25" height="19" viewBox="0 0 25 19" fill="none" xmlns="http://www.w3.org/2000/svg">
<path d="M23.0436 0C23.2502 0.100928 23.4826 0.22709 23.7408 0.378486C24.0507 0.529881 24.2573 0.706507 24.3606 0.908364C24.5155 1.11022 24.5413 1.36255 24.438 1.66534C24.3347 1.91766 23.9732 2.19522 23.3535 2.49801H23.4309C19.5058 5.27357 17.5433 7.72112 17.5433 9.84064C17.5433 11.0013 18.1114 11.7583 19.2476 12.1116C21.0036 12.8181 21.8815 13.8778 21.8815 15.2908C21.8815 16.2497 21.5458 17.1076 20.8744 17.8645C20.2547 18.6215 19.2218 19 17.7757 19C16.4329 19 15.2192 18.4701 14.1346 17.4104C13.05 16.3001 12.5077 14.8871 12.5077 13.1713C12.5077 10.3958 14.0313 7.51926 17.0784 4.54183C20.0739 1.51394 22.0365 0 22.9661 0H23.0436ZM11.0358 0C11.2424 0.100928 11.4748 0.22709 11.7331 0.378486C12.0429 0.529881 12.2495 0.706507 12.3528 0.908364C12.5077 1.11022 12.5336 1.36255 12.4303 1.66534C12.327 1.91766 11.9655 2.19522 11.3457 2.49801H11.4232C7.49807 5.27357 5.53551 7.72112 5.53551 9.84064C5.53551 11.0013 6.10362 11.7583 7.23983 12.1116C8.99581 12.8181 9.87379 13.8778 9.87379 15.2908C9.87379 16.2497 9.53808 17.1076 8.86668 17.8645C8.24693 18.6215 7.21401 19 5.76791 19C4.42511 19 3.21143 18.4701 2.12685 17.4104C1.04228 16.3001 0.5 14.8871 0.5 13.1713C0.5 10.3958 2.02356 7.51926 5.07069 4.54183C8.06617 1.51394 10.0287 0 10.9584 0H11.0358Z" fill="white"/>
</svg>
