<svg width="20" height="20" viewBox="0 0 20 20" fill="none" xmlns="http://www.w3.org/2000/svg">
<path d="M19.5694 9.47586C19.487 9.33188 19.3764 9.20596 19.2443 9.10563C19.1122 9.00529 18.9612 8.93258 18.8004 8.89183C18.0865 8.71557 17.3472 8.66657 16.6163 8.7471C16.8086 7.68356 16.7408 6.58926 16.4185 5.55763C16.3236 5.26346 16.1229 5.015 15.8552 4.86046C15.5875 4.70592 15.272 4.6563 14.9698 4.72122C14.2453 4.88143 13.554 5.16541 12.9261 5.56068C12.4248 4.50554 11.6792 3.58509 10.7511 2.87567C10.535 2.71267 10.2717 2.6245 10.001 2.62451C9.73027 2.62453 9.46694 2.71272 9.25084 2.87575C8.32277 3.58514 7.57719 4.50556 7.07592 5.56068C6.44811 5.16543 5.75682 4.88145 5.03247 4.72122C4.73024 4.65634 4.41469 4.70598 4.14699 4.86053C3.87929 5.01508 3.6785 5.26353 3.58357 5.5577C3.2613 6.58928 3.19345 7.68353 3.38582 8.74702C2.65492 8.66646 1.91554 8.71548 1.20168 8.89183C1.04109 8.93314 0.89036 9.00607 0.758309 9.10636C0.626257 9.20664 0.515538 9.33226 0.432634 9.47586C0.349729 9.61946 0.296305 9.77815 0.275488 9.94265C0.254672 10.1072 0.266881 10.2742 0.311402 10.4339C0.587815 11.4224 1.43388 13.3015 3.99403 14.7797C6.53828 16.2485 8.7867 16.2501 9.99684 16.2501C9.99806 16.2501 9.9992 16.2503 10.0004 16.2503L10.001 16.2503L10.0016 16.2503C10.0029 16.2503 10.004 16.2501 10.0052 16.2501C11.2154 16.2501 13.4638 16.2485 16.008 14.7796C18.5682 13.3015 19.4143 11.4224 19.6907 10.4339C19.7358 10.2742 19.7483 10.1071 19.7275 9.94254C19.7067 9.77794 19.6529 9.61923 19.5694 9.47586ZM10.0034 3.87733C10.7544 4.43801 12.501 6.09611 12.501 9.37515C12.501 12.6542 10.7544 14.3123 10.0035 14.8729C10.0032 14.8732 10.0028 14.8735 10.0024 14.8737C10.002 14.8738 10.0015 14.8739 10.001 14.8739C10.0006 14.8739 10.0001 14.8738 9.99969 14.8737C9.99927 14.8735 9.99888 14.8732 9.99856 14.8729C9.24752 14.3121 7.50103 12.654 7.50103 9.37515C7.50103 6.09611 9.24771 4.43801 10.0034 3.87733ZM1.51211 10.1026C2.2385 9.92838 2.99393 9.91299 3.72681 10.0575C3.92695 10.6245 4.17985 11.1715 4.4822 11.6913C5.15506 12.8467 6.03646 13.8671 7.08165 14.7009C6.21784 14.4832 5.38887 14.1453 4.61903 13.6971C2.44301 12.4407 1.74038 10.9024 1.51211 10.1026ZM15.383 13.697C14.6132 14.1453 13.7843 14.4832 12.9205 14.7009C13.9656 13.8671 14.847 12.8466 15.5199 11.6913C15.8222 11.1715 16.0751 10.6245 16.2753 10.0575C17.007 9.91413 17.7608 9.92769 18.4869 10.0973C18.2617 10.9024 17.5591 12.4407 15.383 13.697Z" fill="#398137"/>
</svg>
