<svg width="25" height="24" viewBox="0 0 25 24" fill="none" xmlns="http://www.w3.org/2000/svg">
<path d="M14.9073 12C14.9073 13.4927 13.6929 14.7071 12.2002 14.7071C10.7075 14.7071 9.49312 13.4927 9.49312 12C9.49312 10.5073 10.7075 9.29293 12.2002 9.29293C13.6929 9.29293 14.9073 10.5073 14.9073 12ZM12.2002 3C7.23734 3 3.2002 7.03714 3.2002 12C3.2002 16.9629 7.23734 21 12.2002 21C14.0182 21 15.7713 20.4587 17.2698 19.4346L17.2955 19.4166L16.0831 18.0075L16.0625 18.0204C14.9092 18.7629 13.5733 19.155 12.2002 19.155C8.25498 19.155 5.0452 15.9452 5.0452 12C5.0452 8.05479 8.25498 4.845 12.2002 4.845C16.1454 4.845 19.3552 8.05479 19.3552 12C19.3552 12.5111 19.298 13.0286 19.1868 13.5377C18.9605 14.4666 18.3099 14.7508 17.822 14.7135C17.3308 14.6736 16.7561 14.3239 16.7523 13.4676V12.8151V12C16.7523 9.48964 14.7106 7.44793 12.2002 7.44793C9.68984 7.44793 7.64812 9.48964 7.64812 12C7.64812 14.5104 9.68984 16.5521 12.2002 16.5521C13.4197 16.5521 14.5633 16.0757 15.4254 15.2085C15.9268 15.9889 16.7439 16.4781 17.6741 16.5527C17.7538 16.5591 17.8355 16.5624 17.9158 16.5624C18.5709 16.5624 19.2196 16.3431 19.7428 15.9465C20.2822 15.5364 20.6853 14.9443 20.9077 14.2326C20.9431 14.1176 21.0086 13.8546 21.0086 13.8527L21.0106 13.8431C21.1417 13.2722 21.2002 12.7033 21.2002 12C21.2002 7.03714 17.1631 3 12.2002 3Z" fill="#FF9E00"/>
</svg>
