<svg width="100" height="100" viewBox="0 0 100 100" fill="none" xmlns="http://www.w3.org/2000/svg">
<circle cx="50" cy="50" r="50" fill="#59CA56"/>
<path d="M30 37C27.791 37 26 35.134 26 32.833V31.166C26 28.865 27.791 27 30 27C32.209 27 34 28.865 34 31.167V32.834C34 35.134 32.209 37 30 37Z" stroke="white" stroke-width="2" stroke-miterlimit="10"/>
<path d="M23 51V45C23 42.791 24.791 41 27 41H33C35.209 41 37 42.791 37 45V51" stroke="white" stroke-width="2" stroke-miterlimit="10"/>
<path d="M61 59V52C61 49.239 63.239 47 66 47H72C74.761 47 77 49.239 77 52V59" stroke="white" stroke-width="2" stroke-miterlimit="10"/>
<path d="M47 63C44.791 63 43 61.134 43 58.833V57.166C43 54.866 44.791 53 47 53C49.209 53 51 54.866 51 57.167V58.834C51 61.134 49.209 63 47 63Z" stroke="white" stroke-width="2" stroke-miterlimit="10"/>
<path d="M40 77V71C40 68.791 41.791 67 44 67H50C52.209 67 54 68.791 54 71V77" stroke="white" stroke-width="2" stroke-miterlimit="10"/>
<path d="M69 43C66.208 43 64 40.761 64 38V36C64 33.239 66.229 31 69 31C71.761 31 74 33.239 74 36V38C74 40.761 71.761 43 69 43Z" stroke="white" stroke-width="2" stroke-miterlimit="10"/>
<path d="M45.2793 28.9189C46.6963 29.2329 47.9683 29.6049 49.0003 29.9999C51.9723 31.1389 54.9213 32.4969 59.6563 36.6929" stroke="white" stroke-width="2" stroke-miterlimit="10"/>
<path d="M41.2441 28.249C41.7431 28.306 42.2361 28.372 42.7211 28.445" stroke="white" stroke-width="2" stroke-miterlimit="10"/>
<path d="M37 28C37.583 28 38.168 28.015 38.751 28.044" stroke="white" stroke-width="2" stroke-miterlimit="10"/>
<path d="M51.7754 45.647C54.2444 42.947 57.5924 41 60.0004 41" stroke="white" stroke-width="2" stroke-miterlimit="10"/>
<path d="M49.1514 49.6188C49.3384 49.1738 49.5594 48.7338 49.8094 48.3008" stroke="white" stroke-width="2" stroke-miterlimit="10"/>
</svg>
