<svg width="48" height="48" viewBox="0 0 48 48" fill="none" xmlns="http://www.w3.org/2000/svg">
<path d="M24 1C36.7025 1 47 11.2975 47 24C47 36.7025 36.7025 47 24 47C11.2975 47 1 36.7025 0.999999 24C0.999998 11.2975 11.2974 1 24 1Z" stroke="#FF7043" stroke-width="2" stroke-linecap="round" stroke-linejoin="round"/>
<path d="M11.0635 18.4148C11.0635 17.242 12.0115 16.2939 13.1844 16.2939C14.3572 16.2939 15.3053 17.242 15.3053 18.4148C15.3053 19.5877 14.3572 20.5357 13.1844 20.5357C12.0115 20.5357 11.0635 19.5877 11.0635 18.4148Z" fill="#FF7043"/>
<path d="M32.6973 18.4148C32.6973 17.242 33.6453 16.2939 34.8182 16.2939C35.991 16.2939 36.939 17.242 36.939 18.4148C36.939 19.5877 35.991 20.5357 34.8182 20.5357C33.6453 20.5357 32.6973 19.5877 32.6973 18.4148Z" fill="#FF7043"/>
<path d="M14.2595 30.0002L11.0639 24.0012L7.86823 30.0002C7.34925 30.9564 7.0918 31.4713 7.0918 32.354C7.0918 34.5485 8.86942 36.3261 11.0639 36.3261C13.2583 36.3261 15.0359 34.5485 15.0359 32.354C15.0359 31.4713 14.8316 31.0995 14.2595 30.0002Z" stroke="#FF7043" stroke-width="2" stroke-linecap="round" stroke-linejoin="round"/>
<path d="M17.2256 28.0141C19.1912 26.7596 21.5287 26.0281 24.0337 26.0281C26.8493 26.0281 29.4524 26.9475 31.5528 28.5004" stroke="#FF7043" stroke-width="2" stroke-linecap="round" stroke-linejoin="round"/>
</svg>
