<svg width="24" height="24" viewBox="0 0 24 24" fill="none" xmlns="http://www.w3.org/2000/svg">
<path d="M11.4061 17.2808H12.5686C12.7669 17.2624 12.9539 17.179 13.101 17.0434C13.2077 16.8946 13.2665 16.7163 13.2696 16.5326C13.2696 16.5326 13.2474 14.9556 13.9661 14.7092C14.6849 14.4628 15.6033 16.2414 16.5749 16.9224C16.9409 17.2171 17.4037 17.3612 17.8704 17.3257L20.4836 17.2808C20.4836 17.2808 21.8457 17.2002 21.2024 16.107C20.6911 15.2436 20.0368 14.4753 19.268 13.8355C17.6308 12.2943 17.8482 12.5407 19.8181 9.87946C21.016 8.24864 21.4908 7.26298 21.3488 6.84184C21.2147 6.71035 21.0509 6.61388 20.8715 6.56079C20.6921 6.5077 20.5027 6.4996 20.3195 6.53718L17.3824 6.55958C17.2528 6.54309 17.1214 6.56652 17.0053 6.62679C16.8905 6.70558 16.7986 6.81384 16.7391 6.94041C16.4388 7.74282 16.0769 8.52028 15.6565 9.26566C14.3521 11.5058 13.833 11.6447 13.6201 11.5058C13.1232 11.1832 13.2474 10.1976 13.2474 9.49415C13.2474 7.31227 13.5668 6.40725 12.6129 6.16532C12.1641 6.05793 11.7029 6.01271 11.242 6.03091C10.4213 5.94715 9.59236 6.03406 8.80624 6.28629C8.46461 6.45206 8.20728 6.82392 8.36257 6.84632C8.53264 6.85724 8.6988 6.90252 8.85123 6.97948C9.00365 7.05644 9.13922 7.16351 9.24991 7.29435C9.45208 7.71229 9.55103 8.17346 9.5383 8.63842C9.5383 8.63842 9.70689 11.2101 9.13012 11.5192C8.74413 11.7432 8.19841 11.2997 7.02712 9.25222C6.62851 8.53964 6.2758 7.80185 5.97119 7.04345C5.92059 6.91287 5.83819 6.7973 5.7316 6.70743C5.59883 6.61232 5.44763 6.54667 5.28793 6.51478L2.50169 6.53718C2.29252 6.53743 2.08947 6.60841 1.92491 6.73879C1.89197 6.81826 1.875 6.90354 1.875 6.98969C1.875 7.07583 1.89197 7.16112 1.92491 7.24058C1.92491 7.24058 4.07228 12.4287 6.56127 15.0452C7.17436 15.7328 7.92068 16.286 8.75405 16.6705C9.58741 17.0551 10.4901 17.2628 11.4061 17.2808Z" fill="#0171F2"/>
</svg>
