<svg width="40" height="40" viewBox="0 0 40 40" fill="none" xmlns="http://www.w3.org/2000/svg">
<circle cx="20" cy="20" r="20" fill="url(#paint0_linear_3312_8663)"/>
<path fill-rule="evenodd" clip-rule="evenodd" d="M21.0231 9.1799C23.8092 9.31119 26.4054 10.4128 28.3883 12.3154C30.5034 14.3447 31.6676 17.0422 31.6665 19.9108C31.664 25.8305 26.6379 30.6471 20.4636 30.6471H20.459C18.584 30.6465 16.7417 30.1957 15.1054 29.3403L9.1665 30.8333L10.7559 25.2697C9.7755 23.6415 9.25963 21.7946 9.26044 19.9023C9.26292 13.9827 14.2886 9.16663 20.4635 9.16663L21.0231 9.1799ZM15.3805 27.3967L15.7206 27.59C17.1502 28.4031 18.7889 28.8333 20.4598 28.8339H20.4636C25.5958 28.8339 29.7729 24.8307 29.7749 19.9102C29.7759 17.5258 28.8083 15.2838 27.0503 13.5971C25.2922 11.9102 22.9544 10.9808 20.4673 10.98C15.3311 10.98 11.154 14.9828 11.1519 19.9029C11.1512 21.5891 11.6435 23.2312 12.5756 24.652L12.797 24.9896L11.8563 28.2826L15.3805 27.3967ZM26.1075 22.4639C26.0376 22.3519 25.851 22.2848 25.5711 22.1505C25.2912 22.0162 23.9149 21.3673 23.6583 21.2777C23.4018 21.1883 23.2151 21.1435 23.0285 21.412C22.842 21.6805 22.3055 22.2848 22.1422 22.4639C21.9789 22.6429 21.8156 22.6653 21.5357 22.531C21.2558 22.3968 20.3539 22.1134 19.2847 21.1995C18.4525 20.4881 17.8907 19.6097 17.7274 19.3411C17.5642 19.0726 17.71 18.9274 17.8501 18.7936C17.9761 18.6734 18.1301 18.4803 18.2701 18.3236C18.41 18.167 18.4566 18.0551 18.55 17.8761C18.6433 17.697 18.5966 17.5404 18.5266 17.4061C18.4566 17.2718 17.8968 15.9513 17.6636 15.4142C17.4363 14.8911 17.2055 14.9619 17.0337 14.9537C16.8707 14.9459 16.6839 14.9442 16.4973 14.9442C16.3106 14.9442 16.0074 15.0113 15.7508 15.2799C15.4942 15.5485 14.7711 16.1975 14.7711 17.5179C14.7711 18.8384 15.7741 20.114 15.9141 20.293C16.0541 20.4721 17.8879 23.1817 20.696 24.3438C21.3638 24.6202 21.8852 24.7852 22.2918 24.9089C22.9624 25.113 23.5725 25.0843 24.0549 25.0152C24.5927 24.9381 25.711 24.3662 25.9443 23.7396C26.1775 23.1129 26.1775 22.5758 26.1075 22.4639Z" fill="white"/>
<defs>
<linearGradient id="paint0_linear_3312_8663" x1="20" y1="0" x2="20" y2="40" gradientUnits="userSpaceOnUse">
<stop stop-color="#61FD7D"/>
<stop offset="1" stop-color="#25CF43"/>
</linearGradient>
</defs>
</svg>
