<svg width="65" height="42" viewBox="0 0 65 42" fill="none" xmlns="http://www.w3.org/2000/svg">
<path d="M59.8181 17.2572C58.0378 17.6625 57.0397 18.9336 56.7584 19.3213C58.6123 13.5884 57.8088 10.7725 56.5875 9.2618C55.7353 8.20452 54.2137 7.21185 53.2844 4.90462C52.8751 3.87307 52.6517 2.77845 52.6245 1.67051C48.1453 1.67051 45.9686 5.38627 45.9686 5.38627C45.7312 2.99799 42.1623 0.80471 42.1623 0.80471C38.7904 2.28843 37.6783 7.27411 37.6783 7.27411C37.2213 5.35446 36.294 3.57565 34.9782 2.0946C34.2538 1.28652 33.4198 0.581623 32.5 0C31.5754 0.580836 30.7366 1.28575 30.0076 2.0946C28.6916 3.57566 27.7639 5.35444 27.3063 7.27411C27.3063 7.27411 26.2096 2.28843 22.8258 0.798837C22.8258 0.798837 19.251 2.99799 19.0196 5.38627C19.0196 5.38627 16.8428 1.67051 12.3648 1.67051C12.3371 2.7785 12.1133 3.87311 11.7037 4.90462C10.7803 7.21185 9.25282 8.20804 8.40658 9.2618C7.18648 10.7725 6.38891 13.5884 8.23686 19.3213C7.95557 18.9336 6.95861 17.6625 5.17593 17.2572C2.28235 16.6005 0.129369 19.0323 0 18.9653C6.09338 22.1618 6.71767 24.2329 7.75974 28.0897C8.55376 31.7902 10.8587 34.209 12.1144 35.278C15.2548 37.9588 20.4652 41.8238 32.5 42C44.5289 41.8238 49.7404 37.9588 52.8868 35.278C54.1425 34.209 56.4474 31.7902 57.2414 28.0897C58.2823 24.2329 58.9031 22.1618 65 18.9653C64.8659 19.0323 62.7117 16.6005 59.8181 17.2572ZM52.9011 22.1419C52.1652 24.4843 52.7883 25.1633 52.1783 26.9584C51.675 28.4421 51.1706 28.2142 49.6075 30.579C48.0646 32.9074 48.3613 33.4231 46.981 35.6187C46.7116 36.0463 46.4659 36.441 46.2344 36.7935C46.505 34.0128 46.8504 32.5502 47.1839 31.7878C47.264 31.5964 47.3711 31.4172 47.502 31.2557C47.921 30.6037 48.2675 30.2442 48.5702 29.6768C48.6378 29.5511 48.7019 29.4172 48.7672 29.2668C48.7921 29.2057 48.8171 29.1434 48.842 29.0788C48.855 29.0459 48.8681 29.0107 48.88 28.9754C49.4948 27.2838 48.9298 26.6576 49.4057 24.2893C49.7309 22.6729 50.1677 22.0984 49.7998 21.6825C49.325 21.141 47.953 21.3994 47.0379 21.9433C45.7098 22.7328 45.2232 24.193 44.7342 25.7202C44.6749 25.9093 44.6227 26.0832 44.5787 26.2465C44.5693 26.2794 44.5598 26.3134 44.5526 26.3463C44.485 26.6013 44.434 26.8233 44.3995 27.0206C44.3912 27.0676 44.3841 27.1111 44.377 27.1546C44.377 27.1781 44.3687 27.198 44.3663 27.2204C44.3521 27.3143 44.3378 27.4036 44.3295 27.487L44.3224 27.5516C44.3224 27.5881 44.3153 27.6245 44.3117 27.6585C44.3081 27.6926 44.3117 27.7044 44.3046 27.7243C44.3046 27.7643 44.3046 27.7995 44.2963 27.8359C44.288 27.8723 44.2963 27.8723 44.2963 27.8911C44.2808 28.0862 44.2725 28.253 44.2488 28.4151C44.2488 28.4304 44.2488 28.4468 44.2417 28.4644C44.2346 28.482 44.2417 28.4961 44.2334 28.5138C44.2251 28.5314 44.2227 28.5631 44.2168 28.5878C44.2108 28.6124 44.2049 28.6371 44.199 28.6618L44.1811 28.724V28.737C44.1808 28.7421 44.1808 28.7472 44.1811 28.7522C44.1256 28.9216 44.0512 29.0844 43.9592 29.2374C43.3848 30.2183 39.582 31.4695 38.2361 32.038C35.9965 32.9872 34.0821 34.8645 33.154 36.9203C33.0328 37.1906 32.9274 37.4675 32.8383 37.7497C32.6697 38.2908 32.5563 38.8473 32.5 39.4108C32.4432 38.8481 32.3294 38.2924 32.1606 37.7521C32.0714 37.4699 31.966 37.1929 31.8448 36.9227C30.9191 34.8669 29.0023 32.9896 26.7627 32.0404C25.4168 31.4671 21.614 30.2207 21.0396 29.2398C20.9488 29.0873 20.8752 28.9253 20.82 28.7569C20.8195 28.7519 20.8195 28.7467 20.82 28.7417C20.8193 28.7378 20.8193 28.7338 20.82 28.7299L20.8129 28.7076C20.8058 28.6806 20.7987 28.6512 20.7904 28.6218C20.7785 28.5713 20.769 28.522 20.7595 28.4703C20.7595 28.4515 20.7595 28.4362 20.7512 28.4174C20.7275 28.2553 20.7191 28.0885 20.7037 27.8935C20.7037 27.8559 20.6978 27.816 20.6954 27.776C20.6954 27.7607 20.6954 27.7431 20.6954 27.7267C20.6954 27.7102 20.6954 27.6832 20.6895 27.6609C20.6693 27.4612 20.6396 27.2309 20.5874 26.956C20.5744 26.8902 20.5601 26.8209 20.5447 26.7516C20.5186 26.6259 20.4853 26.4944 20.4474 26.351L20.4212 26.2512C20.4212 26.243 20.4153 26.2324 20.4117 26.2218C20.4046 26.1913 20.3951 26.1595 20.3856 26.129C20.3512 26.001 20.3097 25.867 20.267 25.7249C19.7791 24.1977 19.2913 22.7375 17.9644 21.948C17.0494 21.4041 15.6797 21.1457 15.2026 21.6872C14.8347 22.1031 15.2714 22.6776 15.5954 24.294C16.0702 26.6623 15.5076 27.2885 16.1224 28.9801C16.2051 29.2123 16.3051 29.4381 16.4215 29.6556C16.7289 30.243 17.0778 30.5954 17.5051 31.2604C17.6352 31.4223 17.7418 31.6014 17.822 31.7925C19.0575 34.0246 19.1014 36.2566 19.1881 37.4255C19.0552 37.2293 18.9187 37.0214 18.7762 36.8005C18.546 36.441 18.3015 36.051 18.0297 35.6258C16.6482 33.4301 16.9425 32.9144 15.4032 30.586C13.8401 28.2213 13.3356 28.4492 12.8336 26.9654C12.2247 25.168 12.8455 24.489 12.1096 22.1489C11.8809 21.4998 11.7606 20.8181 11.7536 20.1307C11.7565 19.5421 11.8449 18.957 12.0158 18.3932C12.4621 16.7803 12.0657 16.0883 12.233 13.747C12.4704 10.4577 13.3285 10.7467 13.4199 7.75576C13.4567 6.46353 13.3261 5.49553 13.9457 5.08553C14.4917 4.73311 15.4269 4.93164 15.9847 5.41329C16.3883 5.75867 16.8452 6.46353 16.5782 9.58016C16.3954 11.71 16.0916 12.4325 15.9218 13.8093C15.7616 15.0945 15.7153 16.9659 16.3147 19.3448C17.3583 17.3289 18.4012 15.3126 19.4433 13.2959C20.1119 11.5361 20.7797 9.774 21.4467 8.00951C21.6591 6.62564 22.0128 5.05616 22.5908 5.0127C22.6739 5.0127 22.9469 5.0127 23.3552 5.73048C24.3498 7.49262 23.9356 9.68589 23.5522 11.3517C23.0046 13.7147 22.2863 16.0357 21.4028 18.2969C21.3731 18.3497 21.3446 18.4014 21.3161 18.4555L21.8051 18.1735C22.8947 17.5427 23.6697 17.0939 24.5622 16.4748C26.3223 15.2554 27.7525 13.9256 28.5762 13.1538C30.3316 11.5091 30.9654 10.6668 31.471 10.8747C31.9279 11.0615 31.9861 11.9955 31.9315 12.5676C31.8128 13.8328 31.0318 14.2956 29.0379 16.5394C27.3514 18.4355 27.1389 18.9653 25.8132 20.0555C25.2616 20.5076 24.6808 20.9236 24.0744 21.3007C25.5269 21.0969 26.9233 20.6067 28.181 19.8593C30.1832 18.654 31.4247 16.9729 31.9683 17.296C32.1166 17.3829 32.2377 17.6367 32.1297 18.3627C31.8053 19.0094 31.3835 19.6036 30.8787 20.1248C30.2782 20.7392 29.9791 20.8179 29.2337 21.4264C27.8 22.6012 27.8582 23.1886 27.0511 23.6749L27.0938 23.7125C27.4868 24.0654 27.8283 24.4707 28.1086 24.9166C28.3875 25.3654 28.4872 25.6861 29.3097 28.2165C29.3097 28.2283 29.3845 28.4456 29.388 28.4597C29.5374 29.1283 29.8068 29.7649 30.1832 30.3393C30.658 31.0653 31.2051 31.4941 31.7095 32.5796C31.7902 32.7605 31.8674 32.9461 31.9398 33.1341C32.1706 33.7249 32.3578 34.3315 32.5 34.9491C32.64 34.3319 32.8245 33.7253 33.0519 33.1341C33.1255 32.9461 33.2026 32.7605 33.2821 32.5796C33.7877 31.4941 34.329 31.0653 34.8096 30.3393C35.1857 29.7648 35.4546 29.1282 35.6037 28.4597C35.6037 28.4456 35.6784 28.2248 35.6832 28.2165C36.5045 25.6861 36.6054 25.3654 36.8843 24.9166C37.1696 24.4689 37.5172 24.0631 37.9169 23.7113C37.041 23.2144 37.1418 22.6317 35.6689 21.4253C34.9271 20.8167 34.6257 20.738 34.0251 20.1236C33.5199 19.6027 33.0981 19.0085 32.7742 18.3615C32.665 17.6355 32.7872 17.3817 32.9356 17.2948C33.478 16.9718 34.7159 18.6528 36.7217 19.8581C37.9802 20.6056 39.3774 21.0957 40.8306 21.2996C40.2237 20.9227 39.6424 20.5067 39.0907 20.0543C37.7614 18.9641 37.5477 18.4343 35.866 16.5383C33.872 14.2945 33.0946 13.8363 32.9724 12.5664C32.9166 11.9943 32.9724 11.0604 33.4329 10.8736C33.9385 10.6656 34.5723 11.5091 36.3276 13.1526C37.1513 13.9244 38.5827 15.2543 40.3404 16.4737C41.2342 17.0928 42.0092 17.5415 43.0987 18.1724C43.3278 18.3039 43.5414 18.4285 43.742 18.5412L43.6079 18.2957C42.7244 16.0345 42.0061 13.7135 41.4585 11.3505C41.0739 9.68472 40.6597 7.48909 41.6567 5.7293C42.0578 5.0174 42.3368 5.00565 42.421 5.01152C42.9967 5.05499 43.3503 6.62447 43.564 8.00834L45.5662 13.2948C46.6091 15.3114 47.6523 17.3277 48.696 19.3436C49.2954 16.9647 49.2479 15.0933 49.0912 13.8081C48.9191 12.429 48.6165 11.7065 48.4313 9.57899C48.1643 6.46235 48.6224 5.7575 49.0248 5.41212C49.5826 4.93047 50.5178 4.72606 51.0638 5.08436C51.6845 5.49435 51.5516 6.46705 51.5896 7.75459C51.6798 10.7444 52.5391 10.4565 52.7764 13.7459C52.9438 16.0872 52.5462 16.7791 52.9936 18.392C53.1646 18.9558 53.2529 19.5409 53.2559 20.1295C53.2492 20.8149 53.1293 21.4947 52.9011 22.1419Z" fill="white"/>
</svg>
