<svg width="72" height="46" viewBox="0 0 72 46" fill="none" xmlns="http://www.w3.org/2000/svg">
<path d="M66.2601 18.9008C64.2881 19.3447 63.1824 20.7368 62.8708 21.1614C64.9244 14.8826 64.0343 11.7985 62.6815 10.1439C61.7376 8.9859 60.0521 7.89869 59.0228 5.37173C58.5693 4.24193 58.3219 3.04306 58.2918 1.8296C53.3302 1.8296 50.919 5.89925 50.919 5.89925C50.6561 3.28351 46.7028 0.881349 46.7028 0.881349C42.9678 2.50638 41.736 7.96688 41.736 7.96688C41.2297 5.86441 40.2026 3.91619 38.7451 2.29408C37.9426 1.40904 37.0188 0.637016 36 0C34.9758 0.636154 34.0467 1.4082 33.2392 2.29408C31.7814 3.9162 30.7538 5.86438 30.2469 7.96688C30.2469 7.96688 29.0322 2.50638 25.284 0.874916C25.284 0.874916 21.3242 3.28351 21.0678 5.89925C21.0678 5.89925 18.6567 1.8296 13.6964 1.8296C13.6657 3.04312 13.4178 4.24197 12.9641 5.37173C11.9413 7.89869 10.2493 8.98976 9.31191 10.1439C7.96041 11.7985 7.07695 14.8826 9.12391 21.1614C8.81233 20.7368 7.70799 19.3447 5.73334 18.9008C2.52814 18.1815 0.143301 20.8449 0 20.7715C6.74959 24.2725 7.44111 26.5408 8.59541 30.7649C9.47493 34.8178 12.028 37.467 13.419 38.6378C16.8976 41.574 22.6691 45.807 36 46C49.3243 45.807 55.0971 41.574 58.5823 38.6378C59.9733 37.467 62.5264 34.8178 63.4059 30.7649C64.5589 26.5408 65.2465 24.2725 72 20.7715C71.8514 20.8449 69.4653 18.1815 66.2601 18.9008ZM58.5981 24.2506C57.783 26.8162 58.4732 27.5599 57.7975 29.5258C57.24 31.1509 56.6813 30.9013 54.9499 33.4913C53.2408 36.0414 53.5694 36.6062 52.0405 39.011C51.742 39.4793 51.4699 39.9116 51.2135 40.2976C51.5133 37.2521 51.8958 35.6503 52.2653 34.8152C52.3539 34.6056 52.4726 34.4094 52.6176 34.2324C53.0817 33.5183 53.4656 33.1246 53.8008 32.5031C53.8758 32.3655 53.9468 32.2188 54.0191 32.0541C54.0467 31.9872 54.0743 31.919 54.1019 31.8482C54.1163 31.8122 54.1308 31.7736 54.144 31.735C54.825 29.8822 54.1992 29.1965 54.7264 26.6026C55.0866 24.8322 55.5704 24.203 55.1628 23.7475C54.637 23.1544 53.1172 23.4375 52.1036 24.0332C50.6324 24.8978 50.0934 26.4971 49.5518 28.1697C49.486 28.3769 49.4282 28.5673 49.3795 28.7461C49.369 28.7822 49.3585 28.8195 49.3506 28.8555C49.2757 29.1347 49.2192 29.3779 49.181 29.594C49.1718 29.6455 49.1639 29.6931 49.156 29.7407C49.156 29.7664 49.1468 29.7883 49.1442 29.8128C49.1284 29.9157 49.1127 30.0135 49.1035 30.1048L49.0956 30.1756C49.0956 30.2155 49.0877 30.2554 49.0837 30.2927C49.0798 30.33 49.0837 30.3429 49.0758 30.3647C49.0758 30.4085 49.0759 30.4471 49.0667 30.487C49.0574 30.5269 49.0667 30.5269 49.0667 30.5474C49.0496 30.761 49.0404 30.9437 49.0141 31.1213C49.0141 31.138 49.0141 31.156 49.0062 31.1753C48.9983 31.1946 49.0062 31.2101 48.997 31.2294C48.9878 31.2487 48.9851 31.2834 48.9786 31.3104C48.972 31.3374 48.9654 31.3645 48.9588 31.3915L48.9391 31.4597V31.4738C48.9387 31.4794 48.9387 31.485 48.9391 31.4905C48.8776 31.6761 48.7951 31.8543 48.6933 32.0219C48.057 33.0963 43.8447 34.4665 42.3539 35.0893C39.8731 36.1289 37.7525 38.1849 36.7244 40.4366C36.5902 40.7326 36.4734 41.0358 36.3747 41.3449C36.1879 41.9376 36.0624 42.5471 36 43.1642C35.937 42.5479 35.8111 41.9393 35.624 41.3475C35.5253 41.0384 35.4085 40.7351 35.2743 40.4391C34.2488 38.1875 32.1256 36.1315 29.6448 35.0919C28.154 34.464 23.9417 33.0988 23.3054 32.0245C23.2048 31.8575 23.1233 31.6801 23.0622 31.4957C23.0616 31.4901 23.0616 31.4845 23.0622 31.479C23.0613 31.4747 23.0613 31.4703 23.0622 31.4661L23.0543 31.4417C23.0464 31.4121 23.0385 31.3799 23.0293 31.3477C23.0162 31.2924 23.0057 31.2384 22.9951 31.1818C22.9951 31.1612 22.9951 31.1444 22.9859 31.1239C22.9596 30.9463 22.9504 30.7636 22.9333 30.55C22.9333 30.5088 22.9268 30.4651 22.9241 30.4213C22.9241 30.4046 22.9241 30.3853 22.9241 30.3673C22.9241 30.3493 22.9241 30.3197 22.9176 30.2953C22.8952 30.0765 22.8624 29.8243 22.8045 29.5233C22.7901 29.4512 22.7743 29.3753 22.7572 29.2994C22.7283 29.1617 22.6915 29.0176 22.6494 28.8607L22.6205 28.7513C22.6205 28.7423 22.6139 28.7307 22.6099 28.7191C22.6021 28.6857 22.5915 28.6509 22.581 28.6175C22.5429 28.4772 22.4969 28.3306 22.4495 28.1749C21.9092 26.5022 21.3689 24.9029 19.8991 24.0383C18.8854 23.4426 17.3683 23.1595 16.8398 23.7527C16.4322 24.2082 16.916 24.8373 17.275 26.6077C17.8008 29.2016 17.1777 29.8874 17.8587 31.7402C17.9503 31.9944 18.061 32.2417 18.19 32.48C18.5305 33.1233 18.917 33.5093 19.3903 34.2375C19.5343 34.4149 19.6525 34.6111 19.7413 34.8204C21.1099 37.265 21.1585 39.7096 21.2545 40.9898C21.1073 40.775 20.9561 40.5472 20.7983 40.3053C20.5433 39.9116 20.2724 39.4845 19.9714 39.0187C18.4411 36.614 18.7671 36.0491 17.062 33.499C15.3305 30.909 14.7718 31.1586 14.2157 29.5336C13.5412 27.565 14.2288 26.8213 13.4137 24.2583C13.1604 23.5474 13.0272 22.8008 13.0193 22.0479C13.0226 21.4032 13.1205 20.7624 13.3099 20.1449C13.8042 18.3784 13.3651 17.6206 13.5505 15.0563C13.8134 11.4537 14.7639 11.7702 14.8651 8.49441C14.9059 7.0791 14.7613 6.01891 15.4475 5.56987C16.0523 5.18388 17.0883 5.40132 17.7062 5.92884C18.1532 6.30712 18.6593 7.0791 18.3635 10.4926C18.161 12.8252 17.8245 13.6165 17.6365 15.1245C17.459 16.5321 17.4077 18.5817 18.0717 21.1871C19.2277 18.9792 20.3829 16.7709 21.5372 14.5622C22.2778 12.6348 23.0175 10.7049 23.7563 8.77232C23.9917 7.25666 24.3834 5.5377 25.0237 5.4901C25.1157 5.4901 25.4181 5.4901 25.8704 6.27624C26.9721 8.2062 26.5132 10.6084 26.0886 12.4328C25.482 15.0209 24.6863 17.5629 23.7077 20.0394C23.6748 20.0973 23.6433 20.154 23.6117 20.2131L24.1534 19.9043C25.3603 19.2134 26.2187 18.7219 27.2074 18.0439C29.1571 16.7083 30.7413 15.2518 31.6537 14.4065C33.5981 12.6052 34.3001 11.6827 34.8602 11.9104C35.3663 12.115 35.4307 13.1379 35.3703 13.7645C35.2388 15.1502 34.3737 15.6571 32.1651 18.1146C30.2969 20.1913 30.0616 20.7715 28.5931 21.9655C27.9821 22.4607 27.3387 22.9163 26.6671 23.3294C28.2759 23.1061 29.8227 22.5693 31.2159 21.7507C33.4337 20.4306 34.8089 18.5894 35.411 18.9432C35.5754 19.0384 35.7095 19.3163 35.5898 20.1115C35.2305 20.8198 34.7633 21.4706 34.2041 22.0415C33.5389 22.7144 33.2076 22.8006 32.382 23.4671C30.7938 24.7537 30.8583 25.397 29.9643 25.9297L30.0116 25.9709C30.4469 26.3574 30.8252 26.8012 31.1357 27.2897C31.4446 27.7812 31.555 28.1324 32.4661 30.9038C32.4661 30.9167 32.549 31.1547 32.5529 31.1702C32.7184 31.9024 33.0167 32.5997 33.4337 33.2288C33.9596 34.0239 34.5657 34.4936 35.1244 35.6824C35.2138 35.8806 35.2993 36.0839 35.3795 36.2897C35.6351 36.9368 35.8425 37.6012 36 38.2776C36.1551 37.6016 36.3594 36.9372 36.6113 36.2897C36.6928 36.0839 36.7783 35.8806 36.8664 35.6824C37.4264 34.4936 38.0259 34.0239 38.5584 33.2288C38.9749 32.5995 39.2728 31.9023 39.4379 31.1702C39.4379 31.1547 39.5207 30.9128 39.526 30.9038C40.4357 28.1324 40.5475 27.7812 40.8564 27.2897C41.1725 26.7993 41.5575 26.3549 42.0002 25.9696C41.03 25.4253 41.1417 24.7871 39.5102 23.4658C38.6885 22.7993 38.3546 22.7131 37.6894 22.0402C37.1298 21.4696 36.6625 20.8188 36.3037 20.1102C36.1827 19.3151 36.3182 19.0371 36.4825 18.9419C37.0833 18.5881 38.4545 20.4293 40.6763 21.7494C42.0704 22.5681 43.6181 23.1049 45.2278 23.3281C44.5554 22.9154 43.9116 22.4598 43.3004 21.9643C41.828 20.7703 41.5914 20.19 39.7284 18.1133C37.5198 15.6559 36.6587 15.1541 36.5232 13.7632C36.4615 13.1366 36.5232 12.1137 37.0333 11.9092C37.5934 11.6814 38.2954 12.6052 40.2399 14.4052C41.1522 15.2506 42.7378 16.707 44.6848 18.0426C45.6748 18.7206 46.5332 19.2121 47.7401 19.9031C47.9939 20.0472 48.2305 20.1835 48.4527 20.3071L48.3041 20.0382C47.3255 17.5616 46.5298 15.0196 45.9232 12.4315C45.4973 10.6071 45.0384 8.20234 46.1428 6.27495C46.5871 5.49525 46.8961 5.48238 46.9894 5.48881C47.6271 5.53642 48.0188 7.25537 48.2555 8.77103L50.4734 14.5609C51.6285 16.7697 52.7841 18.978 53.9402 21.1858C54.6041 18.5804 54.5515 16.5308 54.378 15.1232C54.1873 13.6127 53.8521 12.8214 53.647 10.4913C53.3512 7.07782 53.8587 6.30583 54.3043 5.92756C54.9222 5.40003 55.9582 5.17616 56.563 5.56858C57.2506 6.01762 57.1033 7.08296 57.1454 8.49312C57.2453 11.7676 58.1971 11.4524 58.4601 15.055C58.6454 17.6193 58.205 18.3771 58.7007 20.1437C58.89 20.7611 58.9879 21.4019 58.9912 22.0466C58.9837 22.7973 58.851 23.5418 58.5981 24.2506Z" fill="#D6E0E8"/>
</svg>
