<svg width="25" height="24" viewBox="0 0 25 24" fill="none" xmlns="http://www.w3.org/2000/svg">
<path fill-rule="evenodd" clip-rule="evenodd" d="M21.4398 12.2042C21.4398 11.566 21.3825 10.9524 21.2762 10.3633H12.7998V13.8446H17.6434C17.4348 14.9696 16.8007 15.9228 15.8475 16.561V18.8192H18.7562C20.458 17.2524 21.4398 14.9451 21.4398 12.2042Z" fill="#4285F4"/>
<path fill-rule="evenodd" clip-rule="evenodd" d="M12.7996 21C15.2295 21 17.2668 20.194 18.7559 18.8195L15.8473 16.5613C15.0414 17.1013 14.0105 17.4204 12.7996 17.4204C10.4555 17.4204 8.47138 15.8372 7.76365 13.71H4.75684V16.0418C6.23774 18.9831 9.28137 21 12.7996 21Z" fill="#34A853"/>
<path fill-rule="evenodd" clip-rule="evenodd" d="M7.76389 13.7098C7.58389 13.1698 7.48162 12.593 7.48162 11.9998C7.48162 11.4066 7.58389 10.8298 7.76389 10.2898V7.95801H4.75708C4.14753 9.17301 3.7998 10.5475 3.7998 11.9998C3.7998 13.4521 4.14753 14.8266 4.75708 16.0416L7.76389 13.7098Z" fill="#FBBC05"/>
<path fill-rule="evenodd" clip-rule="evenodd" d="M12.7996 6.57954C14.1209 6.57954 15.3073 7.03363 16.24 7.92545L18.8214 5.34409C17.2627 3.89182 15.2255 3 12.7996 3C9.28137 3 6.23774 5.01682 4.75684 7.95817L7.76365 10.29C8.47138 8.16272 10.4555 6.57954 12.7996 6.57954Z" fill="#EA4335"/>
</svg>
