<svg width="25" height="24" viewBox="0 0 25 24" fill="none" xmlns="http://www.w3.org/2000/svg">
<path d="M12.607 12.322C15.5637 12.3211 17.9586 10.0091 17.9576 7.15915C17.9567 4.30828 15.5589 1.99908 12.6032 2C9.64753 2.00092 7.25169 4.31288 7.25265 7.16283C7.25646 10.0119 9.6523 12.3201 12.607 12.322ZM12.607 5.0256C13.8317 5.0256 14.8245 5.98294 14.8245 7.16375C14.8245 8.34456 13.8317 9.30099 12.607 9.30099C11.3824 9.30099 10.3896 8.34365 10.3896 7.16283C10.3915 5.98294 11.3834 5.02652 12.607 5.0256ZM14.7711 16.533C15.8727 16.2921 16.9237 15.8718 17.8804 15.2915C18.609 14.8381 18.8189 13.9019 18.3487 13.1993C17.8861 12.5078 16.9342 12.299 16.2075 12.7303C14.0033 14.0592 11.205 14.0592 9.00088 12.7303C8.26935 12.288 7.30319 12.4995 6.84253 13.2039C6.37996 13.9093 6.59741 14.8436 7.3299 15.2897C7.33085 15.2897 7.33181 15.2906 7.33181 15.2906C8.28747 15.8699 9.33851 16.2902 10.4392 16.5321L7.44626 19.4179C6.85016 20.0249 6.87782 20.9831 7.50825 21.5579C8.11389 22.1097 9.06002 22.1097 9.66565 21.5579L12.6051 18.7217L15.5465 21.5579C16.1588 22.1474 17.1498 22.1474 17.7621 21.5579C18.3735 20.9675 18.3735 20.012 17.7621 19.4216L14.7711 16.533Z" fill="#EB722E"/>
</svg>
