<svg width="24" height="24" viewBox="0 0 24 24" fill="none" xmlns="http://www.w3.org/2000/svg">
<path d="M11.901 6.97512C10.9109 6.97512 9.92079 7.27363 9.12871 7.77114C8.33663 8.26866 7.64356 9.06468 7.34653 9.9602C6.95049 10.9552 6.85148 11.9502 7.0495 12.9453C7.24752 13.9403 7.74257 14.8358 8.43564 15.5323C9.12871 16.2289 10.0198 16.7264 11.0099 16.9254C12 17.1244 12.9901 17.0249 13.8812 16.6269C14.7723 16.2289 15.5644 15.6318 16.0594 14.8358C16.5545 13.9403 16.8515 12.9453 16.8515 11.9502C16.8515 10.6567 16.3564 9.36318 15.3663 8.46766C14.4752 7.47264 13.1881 6.97512 11.901 6.97512ZM13.9802 14.0398C13.4851 14.6368 12.6931 14.9353 11.901 14.9353C11.3069 14.9353 10.7129 14.7363 10.2178 14.4378C9.72277 14.1393 9.32673 13.6418 9.12871 13.1443C8.93069 12.5473 8.83168 11.9502 9.0297 11.3532C9.12871 10.7562 9.42574 10.2587 9.82178 9.8607C10.2178 9.46269 10.8119 9.16418 11.3069 9.06468C11.901 8.86567 12.495 8.96517 12.9901 9.16418C13.4851 9.36318 13.9802 9.76119 14.2772 10.2587C14.5743 10.7562 14.7723 11.3532 14.7723 11.9502C14.8713 12.7463 14.5743 13.5423 13.9802 14.0398Z" fill="white"/>
<path d="M21.703 8.16915C21.703 7.27363 21.5049 6.47761 21.2079 5.68159C20.9109 4.98507 20.5149 4.28856 19.9208 3.79104C19.3267 3.19403 18.7327 2.79602 18.0396 2.49751C17.2475 2.199 16.4554 2 15.5644 2C14.6733 2 14.3762 2 11.901 2C9.42574 2 9.12871 2 8.13861 2.0995C7.24752 2.0995 6.45545 2.29851 5.66337 2.59701C4.9703 2.79602 4.37624 3.19403 3.78218 3.79104C3.18812 4.38806 2.79208 4.98507 2.49505 5.68159C2.19802 6.47761 2.09901 7.37313 2.09901 8.16915C2 9.16418 2 9.46269 2 11.9502C2 14.4378 2 14.7363 2.09901 15.7313C2.09901 16.6269 2.29703 17.4229 2.59406 18.2189C2.89109 18.9154 3.28713 19.6119 3.88119 20.1095C4.47525 20.7065 5.06931 21.1045 5.76238 21.403C6.55446 21.7015 7.34653 21.9005 8.23762 21.9005C9.22772 21.9005 9.52475 22 12 22C14.4752 22 14.7723 22 15.7624 21.9005C16.6535 21.9005 17.4455 21.7015 18.2376 21.403C18.9307 21.1045 19.6238 20.7065 20.1188 20.1095C20.7129 19.5124 21.1089 18.9154 21.4059 18.2189C21.703 17.4229 21.901 16.6269 21.901 15.7313C21.901 14.7363 22 14.4378 22 11.9502C21.802 9.46269 21.802 9.16418 21.703 8.16915ZM19.8218 15.6318C19.7228 16.2289 19.6238 16.9254 19.4257 17.5224C19.2277 18.0199 18.9307 18.4179 18.6337 18.8159C18.3366 19.2139 17.8416 19.4129 17.3465 19.6119C16.7525 19.8109 16.1584 19.9104 15.4653 20.01C14.5743 20.01 14.2772 20.01 11.802 20.01C9.32673 20.01 9.12871 20.01 8.13861 20.01C7.54455 20.01 6.85149 19.9104 6.25743 19.7114C5.76238 19.5124 5.36634 19.2139 4.9703 18.9154C4.57426 18.6169 4.37624 18.1194 4.17822 17.6219C3.9802 17.0249 3.88119 16.4279 3.78218 15.7313C3.78218 14.7363 3.78218 14.4378 3.78218 12.0498C3.78218 9.66169 3.78218 9.36318 3.78218 8.36816C3.78218 7.77114 3.88119 7.07463 4.17822 6.47761C4.57426 5.9801 4.87129 5.58209 5.16832 5.28358C5.56436 4.88557 5.9604 4.58706 6.45545 4.48756C7.0495 4.28856 7.64356 4.18905 8.33663 4.08955C9.22772 3.99005 9.52475 3.99005 11.901 3.99005C14.2772 3.99005 14.5743 3.99005 15.5644 3.99005C16.1584 3.99005 16.8515 4.08955 17.4455 4.38806C17.9406 4.58706 18.3366 4.78607 18.6337 5.18408C19.0297 5.48259 19.2277 5.9801 19.4257 6.47761C19.6238 6.97512 19.8218 7.67164 19.8218 8.26866C19.8218 9.26368 19.8218 9.56219 19.8218 11.9502C19.9208 14.3383 19.8218 14.6368 19.8218 15.6318Z" fill="white"/>
<path d="M16.8515 5.9801C16.6535 5.9801 16.4554 6.0796 16.2574 6.1791C16.0594 6.27861 15.9604 6.47761 15.8614 6.57711C15.8614 6.77612 15.8614 6.97512 15.8614 7.17413C15.8614 7.37313 15.9604 7.57214 16.1584 7.67164C16.2574 7.77114 16.4554 7.87065 16.6535 7.97015C16.8515 7.97015 17.0495 7.97015 17.2475 7.87065C17.4455 7.77114 17.5446 7.67164 17.6436 7.47264C17.7426 7.37313 17.8416 7.17413 17.8416 6.97512C17.8416 6.67662 17.7426 6.47761 17.5446 6.27861C17.3465 6.0796 17.1485 5.9801 16.8515 5.9801Z" fill="white"/>
</svg>
