<svg width="24" height="24" viewBox="0 0 24 24" fill="none" xmlns="http://www.w3.org/2000/svg">
<path d="M22.2647 2.47142C21.98 2.23566 21.6364 2.08115 21.2704 2.02432C20.9045 1.9675 20.5299 2.01049 20.1866 2.14872L2.26566 9.35031C1.88241 9.50725 1.55618 9.7765 1.33026 10.1223C1.10434 10.4681 0.989427 10.8741 1.00076 11.2865C1.0121 11.6988 1.14916 12.0979 1.39374 12.4309C1.63832 12.7639 1.97886 13.015 2.37016 13.1508L5.99516 14.4057L8.01566 21.0562C8.04312 21.145 8.08297 21.2296 8.13404 21.3074C8.14179 21.3193 8.15272 21.3282 8.16096 21.3398C8.21996 21.4218 8.29127 21.4942 8.37239 21.5546C8.39546 21.5721 8.41755 21.5885 8.44221 21.604C8.53714 21.6667 8.64228 21.7125 8.75294 21.7395L8.76478 21.7405L8.77149 21.7433C8.83802 21.7568 8.90574 21.7636 8.97364 21.7638C8.98017 21.7638 8.98597 21.7606 8.99244 21.7605C9.0949 21.7587 9.19647 21.7412 9.29353 21.7085C9.31611 21.7008 9.33546 21.688 9.35737 21.6788C9.42975 21.6489 9.49832 21.6106 9.56166 21.5647C9.61238 21.5222 9.66312 21.4797 9.71388 21.4372L12.416 18.4677L16.4463 21.5752C16.8011 21.8501 17.2379 21.9996 17.6875 22C18.1587 21.9994 18.6154 21.8375 18.9809 21.5416C19.3465 21.2457 19.5987 20.8338 19.6954 20.3747L22.958 4.43293C23.032 4.07413 23.0065 3.70208 22.8844 3.35657C22.7623 3.01106 22.5481 2.7051 22.2647 2.47142ZM9.37016 14.7226C9.2315 14.86 9.13672 15.0352 9.0977 15.2261L8.78819 16.7231L8.00413 14.1421L12.0694 12.035L9.37016 14.7226ZM17.6719 20.0015L12.9092 16.3293C12.71 16.176 12.46 16.1031 12.2092 16.1251C11.9583 16.1471 11.725 16.2623 11.5557 16.4478L10.6903 17.3986L10.9961 15.9191L18.0791 8.86913C18.2482 8.70108 18.3512 8.47832 18.3695 8.2412C18.3878 8.00408 18.3201 7.76828 18.1788 7.57651C18.0375 7.38474 17.8319 7.24969 17.5992 7.19582C17.3664 7.14194 17.122 7.17281 16.9102 7.28282L6.74491 12.5508L3.02055 11.1942L20.999 4.03536L17.6719 20.0015Z" fill="white"/>
</svg>
