<svg width="24" height="24" viewBox="0 0 24 24" fill="none" xmlns="http://www.w3.org/2000/svg">
<path d="M22.9933 4.25824C22.9934 4.0884 22.9467 3.92157 22.858 3.77474C22.7693 3.6279 22.6417 3.5063 22.4882 3.42233C22.3347 3.33836 22.1608 3.29501 21.9843 3.29669C21.8077 3.29838 21.6347 3.34504 21.483 3.43193C20.8979 3.76691 20.2679 4.02344 19.6106 4.19441C18.6719 3.41966 17.4746 2.9957 16.2377 3.00003C14.8807 3.00154 13.5774 3.5102 12.603 4.41863C11.6287 5.32705 11.0595 6.56412 11.0157 7.86862C8.34051 7.45831 5.91592 6.11533 4.20427 4.09579C4.10114 3.97544 3.96943 3.88071 3.82026 3.81959C3.67108 3.75847 3.50881 3.73275 3.34712 3.7446C3.18554 3.7574 3.02962 3.80786 2.89286 3.89162C2.7561 3.97539 2.64261 4.08993 2.56221 4.22535C2.14987 4.91746 1.91305 5.69335 1.87098 6.49001C1.82891 7.28666 1.98278 8.08164 2.3201 8.81036L2.31815 8.81224C2.16654 8.90205 2.04143 9.02777 1.95477 9.17737C1.86811 9.32697 1.8228 9.49546 1.82318 9.66671C1.82135 9.80799 1.83016 9.9492 1.84954 10.0893C1.95165 11.2991 2.50912 12.4315 3.41741 13.2743C3.35579 13.3872 3.31819 13.5107 3.30679 13.6378C3.29539 13.7648 3.31043 13.8928 3.35102 14.0142C3.74701 15.2008 4.58913 16.2026 5.71259 16.8236C4.57119 17.2481 3.33876 17.3961 2.12387 17.2546C1.89901 17.2274 1.67124 17.2746 1.47792 17.3883C1.2846 17.5021 1.13721 17.6756 1.05992 17.8805C0.982631 18.0854 0.980039 18.3095 1.05257 18.516C1.12509 18.7225 1.26844 18.8992 1.45908 19.017C3.54852 20.3114 5.98133 20.9995 8.46665 20.9992C11.285 21.0297 14.0349 20.1635 16.2884 18.5353C18.542 16.9071 20.1729 14.6082 20.9275 11.9963C21.2805 10.8585 21.4607 9.67757 21.4626 8.49019C21.4626 8.42728 21.4626 8.36249 21.4616 8.29771C21.9835 7.75631 22.3878 7.12015 22.6509 6.42651C22.9139 5.73287 23.0303 4.99571 22.9933 4.25824ZM19.6877 7.34652C19.5226 7.53435 19.439 7.77612 19.4544 8.02165C19.4641 8.1803 19.4632 8.33991 19.4632 8.49019C19.4611 9.49357 19.3082 10.4914 19.0092 11.4527C18.3929 13.6751 17.019 15.6343 15.1075 17.0165C13.196 18.3988 10.8576 19.124 8.46665 19.0762C7.60779 19.0765 6.7519 18.9794 5.91667 18.787C6.98174 18.4569 7.97761 17.9479 8.85812 17.2837C9.0203 17.1609 9.13899 16.9928 9.1979 16.8025C9.25682 16.6123 9.25308 16.4091 9.18719 16.221C9.12131 16.0328 8.99651 15.8689 8.82991 15.7517C8.66332 15.6345 8.46309 15.5697 8.25671 15.5663C7.4258 15.5539 6.63235 15.2317 6.04354 14.6677C6.19291 14.6405 6.3413 14.6067 6.48872 14.5663C6.70466 14.5072 6.89363 14.3799 7.02521 14.2049C7.15678 14.0299 7.22331 13.8175 7.21406 13.6017C7.20482 13.3859 7.12035 13.1794 6.97425 13.0155C6.82815 12.8515 6.62893 12.7396 6.40866 12.6977C5.92635 12.6061 5.4725 12.4088 5.08239 12.121C4.69229 11.8333 4.37643 11.4628 4.15937 11.0386C4.34004 11.0623 4.52187 11.077 4.70412 11.0827C4.92063 11.0858 5.13258 11.0227 5.3093 10.9023C5.48603 10.782 5.61838 10.6107 5.68721 10.4132C5.75317 10.214 5.74977 9.99944 5.67754 9.8022C5.60531 9.60496 5.46818 9.43576 5.28695 9.32024C4.84723 9.03849 4.48704 8.65625 4.23863 8.20773C3.99022 7.75922 3.86135 7.25845 3.86356 6.75028C3.86356 6.68644 3.86551 6.62258 3.86942 6.55967C6.10998 8.56947 9.01612 9.75424 12.0758 9.90524C12.2303 9.91109 12.3841 9.88311 12.5257 9.82341C12.6672 9.76371 12.7928 9.67386 12.893 9.56063C12.9921 9.44631 13.0623 9.31142 13.0981 9.16656C13.1338 9.02171 13.1341 8.87086 13.0989 8.72589C13.0417 8.49644 13.0126 8.26135 13.012 8.02541C13.0129 7.20287 13.3531 6.41427 13.9578 5.83265C14.5625 5.25103 15.3824 4.92389 16.2376 4.92303C16.6776 4.92189 17.1131 5.0085 17.5165 5.17739C17.9199 5.34628 18.2826 5.59377 18.5816 5.90426C18.6969 6.02356 18.842 6.11251 19.0031 6.16265C19.1643 6.21278 19.3361 6.22243 19.5022 6.19068C19.9128 6.11381 20.3176 6.01029 20.7137 5.88082C20.4435 6.41251 20.0983 6.90574 19.6877 7.34652Z" fill="white"/>
</svg>
